%TF.GenerationSoftware,KiCad,Pcbnew,10.0.5-1-g226df246f3*%
%TF.CreationDate,2026-08-27T23:04:54+05:30*%
%TF.ProjectId,init_dawn.d,696e6974-5f64-4617-976e-2e642e6b6963,rev?*%
%TF.SameCoordinates,Original*%
%TF.FileFunction,Legend,Top*%
%TF.FilePolarity,Positive*%
%FSLAX46Y46*%
G04 Gerber Fmt 4.6, Leading zero omitted, Abs format (unit mm)*
G04 Created by KiCad (PCBNEW 10.0.5-1-g226df246f3) date 2026-08-27 23:04:54*
%MOMM*%
%LPD*%
G01*
G04 APERTURE LIST*
%ADD10C,0.150000*%
%ADD11C,0.106680*%
%ADD12C,0.120000*%
%ADD13C,0.100000*%
%ADD14C,0.127000*%
%ADD15C,0.504000*%
G04 APERTURE END LIST*
D10*
X1203612142Y-885663152D02*
X1203993094Y-885663152D01*
X1203754999Y-885329819D02*
X1203754999Y-886186961D01*
X1203754999Y-886186961D02*
X1203802618Y-886282200D01*
X1203802618Y-886282200D02*
X1203897856Y-886329819D01*
X1203897856Y-886329819D02*
X1203993094Y-886329819D01*
X1204183571Y-885663152D02*
X1204564523Y-885663152D01*
X1204326428Y-886329819D02*
X1204326428Y-885472676D01*
X1204326428Y-885472676D02*
X1204374047Y-885377438D01*
X1204374047Y-885377438D02*
X1204469285Y-885329819D01*
X1204469285Y-885329819D02*
X1204564523Y-885329819D01*
X1204755000Y-885663152D02*
X1205135952Y-885663152D01*
X1204897857Y-885329819D02*
X1204897857Y-886186961D01*
X1204897857Y-886186961D02*
X1204945476Y-886282200D01*
X1204945476Y-886282200D02*
X1205040714Y-886329819D01*
X1205040714Y-886329819D02*
X1205135952Y-886329819D01*
X1205231191Y-886425057D02*
X1205993095Y-886425057D01*
X1206231191Y-886329819D02*
X1206231191Y-885329819D01*
X1206659762Y-886329819D02*
X1206659762Y-885806009D01*
X1206659762Y-885806009D02*
X1206612143Y-885710771D01*
X1206612143Y-885710771D02*
X1206516905Y-885663152D01*
X1206516905Y-885663152D02*
X1206374048Y-885663152D01*
X1206374048Y-885663152D02*
X1206278810Y-885710771D01*
X1206278810Y-885710771D02*
X1206231191Y-885758390D01*
X1207516905Y-886282200D02*
X1207421667Y-886329819D01*
X1207421667Y-886329819D02*
X1207231191Y-886329819D01*
X1207231191Y-886329819D02*
X1207135953Y-886282200D01*
X1207135953Y-886282200D02*
X1207088334Y-886186961D01*
X1207088334Y-886186961D02*
X1207088334Y-885806009D01*
X1207088334Y-885806009D02*
X1207135953Y-885710771D01*
X1207135953Y-885710771D02*
X1207231191Y-885663152D01*
X1207231191Y-885663152D02*
X1207421667Y-885663152D01*
X1207421667Y-885663152D02*
X1207516905Y-885710771D01*
X1207516905Y-885710771D02*
X1207564524Y-885806009D01*
X1207564524Y-885806009D02*
X1207564524Y-885901247D01*
X1207564524Y-885901247D02*
X1207088334Y-885996485D01*
X1208421667Y-886329819D02*
X1208421667Y-885806009D01*
X1208421667Y-885806009D02*
X1208374048Y-885710771D01*
X1208374048Y-885710771D02*
X1208278810Y-885663152D01*
X1208278810Y-885663152D02*
X1208088334Y-885663152D01*
X1208088334Y-885663152D02*
X1207993096Y-885710771D01*
X1208421667Y-886282200D02*
X1208326429Y-886329819D01*
X1208326429Y-886329819D02*
X1208088334Y-886329819D01*
X1208088334Y-886329819D02*
X1207993096Y-886282200D01*
X1207993096Y-886282200D02*
X1207945477Y-886186961D01*
X1207945477Y-886186961D02*
X1207945477Y-886091723D01*
X1207945477Y-886091723D02*
X1207993096Y-885996485D01*
X1207993096Y-885996485D02*
X1208088334Y-885948866D01*
X1208088334Y-885948866D02*
X1208326429Y-885948866D01*
X1208326429Y-885948866D02*
X1208421667Y-885901247D01*
X1209326429Y-886329819D02*
X1209326429Y-885329819D01*
X1209326429Y-886282200D02*
X1209231191Y-886329819D01*
X1209231191Y-886329819D02*
X1209040715Y-886329819D01*
X1209040715Y-886329819D02*
X1208945477Y-886282200D01*
X1208945477Y-886282200D02*
X1208897858Y-886234580D01*
X1208897858Y-886234580D02*
X1208850239Y-886139342D01*
X1208850239Y-886139342D02*
X1208850239Y-885853628D01*
X1208850239Y-885853628D02*
X1208897858Y-885758390D01*
X1208897858Y-885758390D02*
X1208945477Y-885710771D01*
X1208945477Y-885710771D02*
X1209040715Y-885663152D01*
X1209040715Y-885663152D02*
X1209231191Y-885663152D01*
X1209231191Y-885663152D02*
X1209326429Y-885710771D01*
X1210183572Y-886282200D02*
X1210088334Y-886329819D01*
X1210088334Y-886329819D02*
X1209897858Y-886329819D01*
X1209897858Y-886329819D02*
X1209802620Y-886282200D01*
X1209802620Y-886282200D02*
X1209755001Y-886186961D01*
X1209755001Y-886186961D02*
X1209755001Y-885806009D01*
X1209755001Y-885806009D02*
X1209802620Y-885710771D01*
X1209802620Y-885710771D02*
X1209897858Y-885663152D01*
X1209897858Y-885663152D02*
X1210088334Y-885663152D01*
X1210088334Y-885663152D02*
X1210183572Y-885710771D01*
X1210183572Y-885710771D02*
X1210231191Y-885806009D01*
X1210231191Y-885806009D02*
X1210231191Y-885901247D01*
X1210231191Y-885901247D02*
X1209755001Y-885996485D01*
X1210659763Y-886329819D02*
X1210659763Y-885663152D01*
X1210659763Y-885853628D02*
X1210707382Y-885758390D01*
X1210707382Y-885758390D02*
X1210755001Y-885710771D01*
X1210755001Y-885710771D02*
X1210850239Y-885663152D01*
X1210850239Y-885663152D02*
X1210945477Y-885663152D01*
X1211802620Y-886329819D02*
X1211231192Y-886329819D01*
X1211516906Y-886329819D02*
X1211516906Y-885329819D01*
X1211516906Y-885329819D02*
X1211421668Y-885472676D01*
X1211421668Y-885472676D02*
X1211326430Y-885567914D01*
X1211326430Y-885567914D02*
X1211231192Y-885615533D01*
X1199818333Y-922079819D02*
X1199485000Y-921603628D01*
X1199246905Y-922079819D02*
X1199246905Y-921079819D01*
X1199246905Y-921079819D02*
X1199627857Y-921079819D01*
X1199627857Y-921079819D02*
X1199723095Y-921127438D01*
X1199723095Y-921127438D02*
X1199770714Y-921175057D01*
X1199770714Y-921175057D02*
X1199818333Y-921270295D01*
X1199818333Y-921270295D02*
X1199818333Y-921413152D01*
X1199818333Y-921413152D02*
X1199770714Y-921508390D01*
X1199770714Y-921508390D02*
X1199723095Y-921556009D01*
X1199723095Y-921556009D02*
X1199627857Y-921603628D01*
X1199627857Y-921603628D02*
X1199246905Y-921603628D01*
X1200675476Y-921413152D02*
X1200675476Y-922079819D01*
X1200437381Y-921032200D02*
X1200199286Y-921746485D01*
X1200199286Y-921746485D02*
X1200818333Y-921746485D01*
X1121918095Y-945756819D02*
X1121918095Y-944756819D01*
X1121918095Y-945233009D02*
X1122489523Y-945233009D01*
X1122489523Y-945756819D02*
X1122489523Y-944756819D01*
X1122870476Y-944756819D02*
X1123489523Y-944756819D01*
X1123489523Y-944756819D02*
X1123156190Y-945137771D01*
X1123156190Y-945137771D02*
X1123299047Y-945137771D01*
X1123299047Y-945137771D02*
X1123394285Y-945185390D01*
X1123394285Y-945185390D02*
X1123441904Y-945233009D01*
X1123441904Y-945233009D02*
X1123489523Y-945328247D01*
X1123489523Y-945328247D02*
X1123489523Y-945566342D01*
X1123489523Y-945566342D02*
X1123441904Y-945661580D01*
X1123441904Y-945661580D02*
X1123394285Y-945709200D01*
X1123394285Y-945709200D02*
X1123299047Y-945756819D01*
X1123299047Y-945756819D02*
X1123013333Y-945756819D01*
X1123013333Y-945756819D02*
X1122918095Y-945709200D01*
X1122918095Y-945709200D02*
X1122870476Y-945661580D01*
X1221422667Y-923189200D02*
X1221565524Y-923236819D01*
X1221565524Y-923236819D02*
X1221803619Y-923236819D01*
X1221803619Y-923236819D02*
X1221898857Y-923189200D01*
X1221898857Y-923189200D02*
X1221946476Y-923141580D01*
X1221946476Y-923141580D02*
X1221994095Y-923046342D01*
X1221994095Y-923046342D02*
X1221994095Y-922951104D01*
X1221994095Y-922951104D02*
X1221946476Y-922855866D01*
X1221946476Y-922855866D02*
X1221898857Y-922808247D01*
X1221898857Y-922808247D02*
X1221803619Y-922760628D01*
X1221803619Y-922760628D02*
X1221613143Y-922713009D01*
X1221613143Y-922713009D02*
X1221517905Y-922665390D01*
X1221517905Y-922665390D02*
X1221470286Y-922617771D01*
X1221470286Y-922617771D02*
X1221422667Y-922522533D01*
X1221422667Y-922522533D02*
X1221422667Y-922427295D01*
X1221422667Y-922427295D02*
X1221470286Y-922332057D01*
X1221470286Y-922332057D02*
X1221517905Y-922284438D01*
X1221517905Y-922284438D02*
X1221613143Y-922236819D01*
X1221613143Y-922236819D02*
X1221851238Y-922236819D01*
X1221851238Y-922236819D02*
X1221994095Y-922284438D01*
X1222327429Y-922236819D02*
X1222565524Y-923236819D01*
X1222565524Y-923236819D02*
X1222756000Y-922522533D01*
X1222756000Y-922522533D02*
X1222946476Y-923236819D01*
X1222946476Y-923236819D02*
X1223184572Y-922236819D01*
X1223470286Y-922236819D02*
X1224136952Y-922236819D01*
X1224136952Y-922236819D02*
X1223708381Y-923236819D01*
X1122934095Y-872096819D02*
X1122934095Y-871096819D01*
X1122934095Y-871573009D02*
X1123505523Y-871573009D01*
X1123505523Y-872096819D02*
X1123505523Y-871096819D01*
X1124505523Y-872096819D02*
X1123934095Y-872096819D01*
X1124219809Y-872096819D02*
X1124219809Y-871096819D01*
X1124219809Y-871096819D02*
X1124124571Y-871239676D01*
X1124124571Y-871239676D02*
X1124029333Y-871334914D01*
X1124029333Y-871334914D02*
X1123934095Y-871382533D01*
X1143190667Y-930301200D02*
X1143333524Y-930348819D01*
X1143333524Y-930348819D02*
X1143571619Y-930348819D01*
X1143571619Y-930348819D02*
X1143666857Y-930301200D01*
X1143666857Y-930301200D02*
X1143714476Y-930253580D01*
X1143714476Y-930253580D02*
X1143762095Y-930158342D01*
X1143762095Y-930158342D02*
X1143762095Y-930063104D01*
X1143762095Y-930063104D02*
X1143714476Y-929967866D01*
X1143714476Y-929967866D02*
X1143666857Y-929920247D01*
X1143666857Y-929920247D02*
X1143571619Y-929872628D01*
X1143571619Y-929872628D02*
X1143381143Y-929825009D01*
X1143381143Y-929825009D02*
X1143285905Y-929777390D01*
X1143285905Y-929777390D02*
X1143238286Y-929729771D01*
X1143238286Y-929729771D02*
X1143190667Y-929634533D01*
X1143190667Y-929634533D02*
X1143190667Y-929539295D01*
X1143190667Y-929539295D02*
X1143238286Y-929444057D01*
X1143238286Y-929444057D02*
X1143285905Y-929396438D01*
X1143285905Y-929396438D02*
X1143381143Y-929348819D01*
X1143381143Y-929348819D02*
X1143619238Y-929348819D01*
X1143619238Y-929348819D02*
X1143762095Y-929396438D01*
X1144095429Y-929348819D02*
X1144333524Y-930348819D01*
X1144333524Y-930348819D02*
X1144524000Y-929634533D01*
X1144524000Y-929634533D02*
X1144714476Y-930348819D01*
X1144714476Y-930348819D02*
X1144952572Y-929348819D01*
X1145238286Y-929348819D02*
X1145857333Y-929348819D01*
X1145857333Y-929348819D02*
X1145524000Y-929729771D01*
X1145524000Y-929729771D02*
X1145666857Y-929729771D01*
X1145666857Y-929729771D02*
X1145762095Y-929777390D01*
X1145762095Y-929777390D02*
X1145809714Y-929825009D01*
X1145809714Y-929825009D02*
X1145857333Y-929920247D01*
X1145857333Y-929920247D02*
X1145857333Y-930158342D01*
X1145857333Y-930158342D02*
X1145809714Y-930253580D01*
X1145809714Y-930253580D02*
X1145762095Y-930301200D01*
X1145762095Y-930301200D02*
X1145666857Y-930348819D01*
X1145666857Y-930348819D02*
X1145381143Y-930348819D01*
X1145381143Y-930348819D02*
X1145285905Y-930301200D01*
X1145285905Y-930301200D02*
X1145238286Y-930253580D01*
X1242314095Y-871588819D02*
X1242314095Y-870588819D01*
X1242314095Y-871065009D02*
X1242885523Y-871065009D01*
X1242885523Y-871588819D02*
X1242885523Y-870588819D01*
X1243314095Y-870684057D02*
X1243361714Y-870636438D01*
X1243361714Y-870636438D02*
X1243456952Y-870588819D01*
X1243456952Y-870588819D02*
X1243695047Y-870588819D01*
X1243695047Y-870588819D02*
X1243790285Y-870636438D01*
X1243790285Y-870636438D02*
X1243837904Y-870684057D01*
X1243837904Y-870684057D02*
X1243885523Y-870779295D01*
X1243885523Y-870779295D02*
X1243885523Y-870874533D01*
X1243885523Y-870874533D02*
X1243837904Y-871017390D01*
X1243837904Y-871017390D02*
X1243266476Y-871588819D01*
X1243266476Y-871588819D02*
X1243885523Y-871588819D01*
D11*
X1193962450Y-886850891D02*
X1193962450Y-887484198D01*
X1193962450Y-887484198D02*
X1193999704Y-887558704D01*
X1193999704Y-887558704D02*
X1194036957Y-887595958D01*
X1194036957Y-887595958D02*
X1194111464Y-887633211D01*
X1194111464Y-887633211D02*
X1194260477Y-887633211D01*
X1194260477Y-887633211D02*
X1194334984Y-887595958D01*
X1194334984Y-887595958D02*
X1194372237Y-887558704D01*
X1194372237Y-887558704D02*
X1194409490Y-887484198D01*
X1194409490Y-887484198D02*
X1194409490Y-886850891D01*
X1194744770Y-886925398D02*
X1194782023Y-886888144D01*
X1194782023Y-886888144D02*
X1194856530Y-886850891D01*
X1194856530Y-886850891D02*
X1195042797Y-886850891D01*
X1195042797Y-886850891D02*
X1195117303Y-886888144D01*
X1195117303Y-886888144D02*
X1195154557Y-886925398D01*
X1195154557Y-886925398D02*
X1195191810Y-886999904D01*
X1195191810Y-886999904D02*
X1195191810Y-887074411D01*
X1195191810Y-887074411D02*
X1195154557Y-887186171D01*
X1195154557Y-887186171D02*
X1194707517Y-887633211D01*
X1194707517Y-887633211D02*
X1195191810Y-887633211D01*
D10*
X1199818333Y-926129819D02*
X1199485000Y-925653628D01*
X1199246905Y-926129819D02*
X1199246905Y-925129819D01*
X1199246905Y-925129819D02*
X1199627857Y-925129819D01*
X1199627857Y-925129819D02*
X1199723095Y-925177438D01*
X1199723095Y-925177438D02*
X1199770714Y-925225057D01*
X1199770714Y-925225057D02*
X1199818333Y-925320295D01*
X1199818333Y-925320295D02*
X1199818333Y-925463152D01*
X1199818333Y-925463152D02*
X1199770714Y-925558390D01*
X1199770714Y-925558390D02*
X1199723095Y-925606009D01*
X1199723095Y-925606009D02*
X1199627857Y-925653628D01*
X1199627857Y-925653628D02*
X1199246905Y-925653628D01*
X1200723095Y-925129819D02*
X1200246905Y-925129819D01*
X1200246905Y-925129819D02*
X1200199286Y-925606009D01*
X1200199286Y-925606009D02*
X1200246905Y-925558390D01*
X1200246905Y-925558390D02*
X1200342143Y-925510771D01*
X1200342143Y-925510771D02*
X1200580238Y-925510771D01*
X1200580238Y-925510771D02*
X1200675476Y-925558390D01*
X1200675476Y-925558390D02*
X1200723095Y-925606009D01*
X1200723095Y-925606009D02*
X1200770714Y-925701247D01*
X1200770714Y-925701247D02*
X1200770714Y-925939342D01*
X1200770714Y-925939342D02*
X1200723095Y-926034580D01*
X1200723095Y-926034580D02*
X1200675476Y-926082200D01*
X1200675476Y-926082200D02*
X1200580238Y-926129819D01*
X1200580238Y-926129819D02*
X1200342143Y-926129819D01*
X1200342143Y-926129819D02*
X1200246905Y-926082200D01*
X1200246905Y-926082200D02*
X1200199286Y-926034580D01*
X1145730667Y-883057200D02*
X1145873524Y-883104819D01*
X1145873524Y-883104819D02*
X1146111619Y-883104819D01*
X1146111619Y-883104819D02*
X1146206857Y-883057200D01*
X1146206857Y-883057200D02*
X1146254476Y-883009580D01*
X1146254476Y-883009580D02*
X1146302095Y-882914342D01*
X1146302095Y-882914342D02*
X1146302095Y-882819104D01*
X1146302095Y-882819104D02*
X1146254476Y-882723866D01*
X1146254476Y-882723866D02*
X1146206857Y-882676247D01*
X1146206857Y-882676247D02*
X1146111619Y-882628628D01*
X1146111619Y-882628628D02*
X1145921143Y-882581009D01*
X1145921143Y-882581009D02*
X1145825905Y-882533390D01*
X1145825905Y-882533390D02*
X1145778286Y-882485771D01*
X1145778286Y-882485771D02*
X1145730667Y-882390533D01*
X1145730667Y-882390533D02*
X1145730667Y-882295295D01*
X1145730667Y-882295295D02*
X1145778286Y-882200057D01*
X1145778286Y-882200057D02*
X1145825905Y-882152438D01*
X1145825905Y-882152438D02*
X1145921143Y-882104819D01*
X1145921143Y-882104819D02*
X1146159238Y-882104819D01*
X1146159238Y-882104819D02*
X1146302095Y-882152438D01*
X1146635429Y-882104819D02*
X1146873524Y-883104819D01*
X1146873524Y-883104819D02*
X1147064000Y-882390533D01*
X1147064000Y-882390533D02*
X1147254476Y-883104819D01*
X1147254476Y-883104819D02*
X1147492572Y-882104819D01*
X1148397333Y-883104819D02*
X1147825905Y-883104819D01*
X1148111619Y-883104819D02*
X1148111619Y-882104819D01*
X1148111619Y-882104819D02*
X1148016381Y-882247676D01*
X1148016381Y-882247676D02*
X1147921143Y-882342914D01*
X1147921143Y-882342914D02*
X1147825905Y-882390533D01*
X1199818333Y-913979819D02*
X1199485000Y-913503628D01*
X1199246905Y-913979819D02*
X1199246905Y-912979819D01*
X1199246905Y-912979819D02*
X1199627857Y-912979819D01*
X1199627857Y-912979819D02*
X1199723095Y-913027438D01*
X1199723095Y-913027438D02*
X1199770714Y-913075057D01*
X1199770714Y-913075057D02*
X1199818333Y-913170295D01*
X1199818333Y-913170295D02*
X1199818333Y-913313152D01*
X1199818333Y-913313152D02*
X1199770714Y-913408390D01*
X1199770714Y-913408390D02*
X1199723095Y-913456009D01*
X1199723095Y-913456009D02*
X1199627857Y-913503628D01*
X1199627857Y-913503628D02*
X1199246905Y-913503628D01*
X1200199286Y-913075057D02*
X1200246905Y-913027438D01*
X1200246905Y-913027438D02*
X1200342143Y-912979819D01*
X1200342143Y-912979819D02*
X1200580238Y-912979819D01*
X1200580238Y-912979819D02*
X1200675476Y-913027438D01*
X1200675476Y-913027438D02*
X1200723095Y-913075057D01*
X1200723095Y-913075057D02*
X1200770714Y-913170295D01*
X1200770714Y-913170295D02*
X1200770714Y-913265533D01*
X1200770714Y-913265533D02*
X1200723095Y-913408390D01*
X1200723095Y-913408390D02*
X1200151667Y-913979819D01*
X1200151667Y-913979819D02*
X1200770714Y-913979819D01*
X1161986667Y-911505200D02*
X1162129524Y-911552819D01*
X1162129524Y-911552819D02*
X1162367619Y-911552819D01*
X1162367619Y-911552819D02*
X1162462857Y-911505200D01*
X1162462857Y-911505200D02*
X1162510476Y-911457580D01*
X1162510476Y-911457580D02*
X1162558095Y-911362342D01*
X1162558095Y-911362342D02*
X1162558095Y-911267104D01*
X1162558095Y-911267104D02*
X1162510476Y-911171866D01*
X1162510476Y-911171866D02*
X1162462857Y-911124247D01*
X1162462857Y-911124247D02*
X1162367619Y-911076628D01*
X1162367619Y-911076628D02*
X1162177143Y-911029009D01*
X1162177143Y-911029009D02*
X1162081905Y-910981390D01*
X1162081905Y-910981390D02*
X1162034286Y-910933771D01*
X1162034286Y-910933771D02*
X1161986667Y-910838533D01*
X1161986667Y-910838533D02*
X1161986667Y-910743295D01*
X1161986667Y-910743295D02*
X1162034286Y-910648057D01*
X1162034286Y-910648057D02*
X1162081905Y-910600438D01*
X1162081905Y-910600438D02*
X1162177143Y-910552819D01*
X1162177143Y-910552819D02*
X1162415238Y-910552819D01*
X1162415238Y-910552819D02*
X1162558095Y-910600438D01*
X1162891429Y-910552819D02*
X1163129524Y-911552819D01*
X1163129524Y-911552819D02*
X1163320000Y-910838533D01*
X1163320000Y-910838533D02*
X1163510476Y-911552819D01*
X1163510476Y-911552819D02*
X1163748572Y-910552819D01*
X1164558095Y-910552819D02*
X1164367619Y-910552819D01*
X1164367619Y-910552819D02*
X1164272381Y-910600438D01*
X1164272381Y-910600438D02*
X1164224762Y-910648057D01*
X1164224762Y-910648057D02*
X1164129524Y-910790914D01*
X1164129524Y-910790914D02*
X1164081905Y-910981390D01*
X1164081905Y-910981390D02*
X1164081905Y-911362342D01*
X1164081905Y-911362342D02*
X1164129524Y-911457580D01*
X1164129524Y-911457580D02*
X1164177143Y-911505200D01*
X1164177143Y-911505200D02*
X1164272381Y-911552819D01*
X1164272381Y-911552819D02*
X1164462857Y-911552819D01*
X1164462857Y-911552819D02*
X1164558095Y-911505200D01*
X1164558095Y-911505200D02*
X1164605714Y-911457580D01*
X1164605714Y-911457580D02*
X1164653333Y-911362342D01*
X1164653333Y-911362342D02*
X1164653333Y-911124247D01*
X1164653333Y-911124247D02*
X1164605714Y-911029009D01*
X1164605714Y-911029009D02*
X1164558095Y-910981390D01*
X1164558095Y-910981390D02*
X1164462857Y-910933771D01*
X1164462857Y-910933771D02*
X1164272381Y-910933771D01*
X1164272381Y-910933771D02*
X1164177143Y-910981390D01*
X1164177143Y-910981390D02*
X1164129524Y-911029009D01*
X1164129524Y-911029009D02*
X1164081905Y-911124247D01*
X1181235047Y-911703009D02*
X1181377904Y-911750628D01*
X1181377904Y-911750628D02*
X1181425523Y-911798247D01*
X1181425523Y-911798247D02*
X1181473142Y-911893485D01*
X1181473142Y-911893485D02*
X1181473142Y-912036342D01*
X1181473142Y-912036342D02*
X1181425523Y-912131580D01*
X1181425523Y-912131580D02*
X1181377904Y-912179200D01*
X1181377904Y-912179200D02*
X1181282666Y-912226819D01*
X1181282666Y-912226819D02*
X1180901714Y-912226819D01*
X1180901714Y-912226819D02*
X1180901714Y-911226819D01*
X1180901714Y-911226819D02*
X1181235047Y-911226819D01*
X1181235047Y-911226819D02*
X1181330285Y-911274438D01*
X1181330285Y-911274438D02*
X1181377904Y-911322057D01*
X1181377904Y-911322057D02*
X1181425523Y-911417295D01*
X1181425523Y-911417295D02*
X1181425523Y-911512533D01*
X1181425523Y-911512533D02*
X1181377904Y-911607771D01*
X1181377904Y-911607771D02*
X1181330285Y-911655390D01*
X1181330285Y-911655390D02*
X1181235047Y-911703009D01*
X1181235047Y-911703009D02*
X1180901714Y-911703009D01*
X1181806476Y-911226819D02*
X1182473142Y-911226819D01*
X1182473142Y-911226819D02*
X1181806476Y-912226819D01*
X1181806476Y-912226819D02*
X1182473142Y-912226819D01*
X1183377904Y-912226819D02*
X1182806476Y-912226819D01*
X1183092190Y-912226819D02*
X1183092190Y-911226819D01*
X1183092190Y-911226819D02*
X1182996952Y-911369676D01*
X1182996952Y-911369676D02*
X1182901714Y-911464914D01*
X1182901714Y-911464914D02*
X1182806476Y-911512533D01*
X1177925048Y-916505866D02*
X1178686953Y-916505866D01*
X1178306000Y-916886819D02*
X1178306000Y-916124914D01*
X1176869333Y-887592819D02*
X1176536000Y-887116628D01*
X1176297905Y-887592819D02*
X1176297905Y-886592819D01*
X1176297905Y-886592819D02*
X1176678857Y-886592819D01*
X1176678857Y-886592819D02*
X1176774095Y-886640438D01*
X1176774095Y-886640438D02*
X1176821714Y-886688057D01*
X1176821714Y-886688057D02*
X1176869333Y-886783295D01*
X1176869333Y-886783295D02*
X1176869333Y-886926152D01*
X1176869333Y-886926152D02*
X1176821714Y-887021390D01*
X1176821714Y-887021390D02*
X1176774095Y-887069009D01*
X1176774095Y-887069009D02*
X1176678857Y-887116628D01*
X1176678857Y-887116628D02*
X1176297905Y-887116628D01*
X1177821714Y-887592819D02*
X1177250286Y-887592819D01*
X1177536000Y-887592819D02*
X1177536000Y-886592819D01*
X1177536000Y-886592819D02*
X1177440762Y-886735676D01*
X1177440762Y-886735676D02*
X1177345524Y-886830914D01*
X1177345524Y-886830914D02*
X1177250286Y-886878533D01*
X1199818333Y-918029819D02*
X1199485000Y-917553628D01*
X1199246905Y-918029819D02*
X1199246905Y-917029819D01*
X1199246905Y-917029819D02*
X1199627857Y-917029819D01*
X1199627857Y-917029819D02*
X1199723095Y-917077438D01*
X1199723095Y-917077438D02*
X1199770714Y-917125057D01*
X1199770714Y-917125057D02*
X1199818333Y-917220295D01*
X1199818333Y-917220295D02*
X1199818333Y-917363152D01*
X1199818333Y-917363152D02*
X1199770714Y-917458390D01*
X1199770714Y-917458390D02*
X1199723095Y-917506009D01*
X1199723095Y-917506009D02*
X1199627857Y-917553628D01*
X1199627857Y-917553628D02*
X1199246905Y-917553628D01*
X1200151667Y-917029819D02*
X1200770714Y-917029819D01*
X1200770714Y-917029819D02*
X1200437381Y-917410771D01*
X1200437381Y-917410771D02*
X1200580238Y-917410771D01*
X1200580238Y-917410771D02*
X1200675476Y-917458390D01*
X1200675476Y-917458390D02*
X1200723095Y-917506009D01*
X1200723095Y-917506009D02*
X1200770714Y-917601247D01*
X1200770714Y-917601247D02*
X1200770714Y-917839342D01*
X1200770714Y-917839342D02*
X1200723095Y-917934580D01*
X1200723095Y-917934580D02*
X1200675476Y-917982200D01*
X1200675476Y-917982200D02*
X1200580238Y-918029819D01*
X1200580238Y-918029819D02*
X1200294524Y-918029819D01*
X1200294524Y-918029819D02*
X1200199286Y-917982200D01*
X1200199286Y-917982200D02*
X1200151667Y-917934580D01*
X1242314095Y-945756819D02*
X1242314095Y-944756819D01*
X1242314095Y-945233009D02*
X1242885523Y-945233009D01*
X1242885523Y-945756819D02*
X1242885523Y-944756819D01*
X1243790285Y-945090152D02*
X1243790285Y-945756819D01*
X1243552190Y-944709200D02*
X1243314095Y-945423485D01*
X1243314095Y-945423485D02*
X1243933142Y-945423485D01*
X1227010667Y-882549200D02*
X1227153524Y-882596819D01*
X1227153524Y-882596819D02*
X1227391619Y-882596819D01*
X1227391619Y-882596819D02*
X1227486857Y-882549200D01*
X1227486857Y-882549200D02*
X1227534476Y-882501580D01*
X1227534476Y-882501580D02*
X1227582095Y-882406342D01*
X1227582095Y-882406342D02*
X1227582095Y-882311104D01*
X1227582095Y-882311104D02*
X1227534476Y-882215866D01*
X1227534476Y-882215866D02*
X1227486857Y-882168247D01*
X1227486857Y-882168247D02*
X1227391619Y-882120628D01*
X1227391619Y-882120628D02*
X1227201143Y-882073009D01*
X1227201143Y-882073009D02*
X1227105905Y-882025390D01*
X1227105905Y-882025390D02*
X1227058286Y-881977771D01*
X1227058286Y-881977771D02*
X1227010667Y-881882533D01*
X1227010667Y-881882533D02*
X1227010667Y-881787295D01*
X1227010667Y-881787295D02*
X1227058286Y-881692057D01*
X1227058286Y-881692057D02*
X1227105905Y-881644438D01*
X1227105905Y-881644438D02*
X1227201143Y-881596819D01*
X1227201143Y-881596819D02*
X1227439238Y-881596819D01*
X1227439238Y-881596819D02*
X1227582095Y-881644438D01*
X1227915429Y-881596819D02*
X1228153524Y-882596819D01*
X1228153524Y-882596819D02*
X1228344000Y-881882533D01*
X1228344000Y-881882533D02*
X1228534476Y-882596819D01*
X1228534476Y-882596819D02*
X1228772572Y-881596819D01*
X1229105905Y-881692057D02*
X1229153524Y-881644438D01*
X1229153524Y-881644438D02*
X1229248762Y-881596819D01*
X1229248762Y-881596819D02*
X1229486857Y-881596819D01*
X1229486857Y-881596819D02*
X1229582095Y-881644438D01*
X1229582095Y-881644438D02*
X1229629714Y-881692057D01*
X1229629714Y-881692057D02*
X1229677333Y-881787295D01*
X1229677333Y-881787295D02*
X1229677333Y-881882533D01*
X1229677333Y-881882533D02*
X1229629714Y-882025390D01*
X1229629714Y-882025390D02*
X1229058286Y-882596819D01*
X1229058286Y-882596819D02*
X1229677333Y-882596819D01*
X1161986667Y-930301200D02*
X1162129524Y-930348819D01*
X1162129524Y-930348819D02*
X1162367619Y-930348819D01*
X1162367619Y-930348819D02*
X1162462857Y-930301200D01*
X1162462857Y-930301200D02*
X1162510476Y-930253580D01*
X1162510476Y-930253580D02*
X1162558095Y-930158342D01*
X1162558095Y-930158342D02*
X1162558095Y-930063104D01*
X1162558095Y-930063104D02*
X1162510476Y-929967866D01*
X1162510476Y-929967866D02*
X1162462857Y-929920247D01*
X1162462857Y-929920247D02*
X1162367619Y-929872628D01*
X1162367619Y-929872628D02*
X1162177143Y-929825009D01*
X1162177143Y-929825009D02*
X1162081905Y-929777390D01*
X1162081905Y-929777390D02*
X1162034286Y-929729771D01*
X1162034286Y-929729771D02*
X1161986667Y-929634533D01*
X1161986667Y-929634533D02*
X1161986667Y-929539295D01*
X1161986667Y-929539295D02*
X1162034286Y-929444057D01*
X1162034286Y-929444057D02*
X1162081905Y-929396438D01*
X1162081905Y-929396438D02*
X1162177143Y-929348819D01*
X1162177143Y-929348819D02*
X1162415238Y-929348819D01*
X1162415238Y-929348819D02*
X1162558095Y-929396438D01*
X1162891429Y-929348819D02*
X1163129524Y-930348819D01*
X1163129524Y-930348819D02*
X1163320000Y-929634533D01*
X1163320000Y-929634533D02*
X1163510476Y-930348819D01*
X1163510476Y-930348819D02*
X1163748572Y-929348819D01*
X1164558095Y-929682152D02*
X1164558095Y-930348819D01*
X1164320000Y-929301200D02*
X1164081905Y-930015485D01*
X1164081905Y-930015485D02*
X1164700952Y-930015485D01*
X1143190667Y-911505200D02*
X1143333524Y-911552819D01*
X1143333524Y-911552819D02*
X1143571619Y-911552819D01*
X1143571619Y-911552819D02*
X1143666857Y-911505200D01*
X1143666857Y-911505200D02*
X1143714476Y-911457580D01*
X1143714476Y-911457580D02*
X1143762095Y-911362342D01*
X1143762095Y-911362342D02*
X1143762095Y-911267104D01*
X1143762095Y-911267104D02*
X1143714476Y-911171866D01*
X1143714476Y-911171866D02*
X1143666857Y-911124247D01*
X1143666857Y-911124247D02*
X1143571619Y-911076628D01*
X1143571619Y-911076628D02*
X1143381143Y-911029009D01*
X1143381143Y-911029009D02*
X1143285905Y-910981390D01*
X1143285905Y-910981390D02*
X1143238286Y-910933771D01*
X1143238286Y-910933771D02*
X1143190667Y-910838533D01*
X1143190667Y-910838533D02*
X1143190667Y-910743295D01*
X1143190667Y-910743295D02*
X1143238286Y-910648057D01*
X1143238286Y-910648057D02*
X1143285905Y-910600438D01*
X1143285905Y-910600438D02*
X1143381143Y-910552819D01*
X1143381143Y-910552819D02*
X1143619238Y-910552819D01*
X1143619238Y-910552819D02*
X1143762095Y-910600438D01*
X1144095429Y-910552819D02*
X1144333524Y-911552819D01*
X1144333524Y-911552819D02*
X1144524000Y-910838533D01*
X1144524000Y-910838533D02*
X1144714476Y-911552819D01*
X1144714476Y-911552819D02*
X1144952572Y-910552819D01*
X1145809714Y-910552819D02*
X1145333524Y-910552819D01*
X1145333524Y-910552819D02*
X1145285905Y-911029009D01*
X1145285905Y-911029009D02*
X1145333524Y-910981390D01*
X1145333524Y-910981390D02*
X1145428762Y-910933771D01*
X1145428762Y-910933771D02*
X1145666857Y-910933771D01*
X1145666857Y-910933771D02*
X1145762095Y-910981390D01*
X1145762095Y-910981390D02*
X1145809714Y-911029009D01*
X1145809714Y-911029009D02*
X1145857333Y-911124247D01*
X1145857333Y-911124247D02*
X1145857333Y-911362342D01*
X1145857333Y-911362342D02*
X1145809714Y-911457580D01*
X1145809714Y-911457580D02*
X1145762095Y-911505200D01*
X1145762095Y-911505200D02*
X1145666857Y-911552819D01*
X1145666857Y-911552819D02*
X1145428762Y-911552819D01*
X1145428762Y-911552819D02*
X1145333524Y-911505200D01*
X1145333524Y-911505200D02*
X1145285905Y-911457580D01*
%TO.C,tft_header1*%
D12*
X1206375000Y-886875000D02*
X1207755000Y-886875000D01*
X1206375000Y-888255000D02*
X1206375000Y-886875000D01*
X1206375000Y-889525000D02*
X1206375000Y-907415000D01*
X1206375000Y-889525000D02*
X1209135000Y-889525000D01*
X1206375000Y-907415000D02*
X1209135000Y-907415000D01*
X1209135000Y-889525000D02*
X1209135000Y-907415000D01*
%TO.C,R4*%
X1195945000Y-923995000D02*
X1196715000Y-923995000D01*
X1204025000Y-923995000D02*
X1203255000Y-923995000D01*
X1196715000Y-922625000D02*
X1203255000Y-922625000D01*
X1203255000Y-925365000D01*
X1196715000Y-925365000D01*
X1196715000Y-922625000D01*
%TO.C,SW7*%
X1215771000Y-923671000D02*
X1229741000Y-923671000D01*
X1215771000Y-937641000D02*
X1215771000Y-923671000D01*
X1229741000Y-923671000D02*
X1229741000Y-937641000D01*
X1229741000Y-937641000D02*
X1215771000Y-937641000D01*
%TO.C,SW3*%
X1137539000Y-930783000D02*
X1151509000Y-930783000D01*
X1137539000Y-944753000D02*
X1137539000Y-930783000D01*
X1151509000Y-930783000D02*
X1151509000Y-944753000D01*
X1151509000Y-944753000D02*
X1137539000Y-944753000D01*
%TO.C,U2*%
D13*
X1186594000Y-907083500D02*
X1186594000Y-889938500D01*
X1188499000Y-908988500D02*
X1202469000Y-908988500D01*
D14*
X1190989000Y-888033500D02*
X1190992728Y-887023228D01*
X1191492728Y-886523500D02*
X1199488000Y-886523500D01*
X1199988000Y-887023500D02*
X1199988000Y-888033500D01*
D13*
X1202469000Y-888033500D02*
X1188499000Y-888033500D01*
X1204374000Y-907083500D02*
X1204374000Y-889938500D01*
X1186594000Y-889934500D02*
G75*
G02*
X1188499000Y-888029500I1905001J-1D01*
G01*
X1188499000Y-908988500D02*
G75*
G02*
X1186594000Y-907083500I0J1905000D01*
G01*
D14*
X1190992728Y-887023228D02*
G75*
G02*
X1191492728Y-886523498I500022J-292D01*
G01*
X1199488000Y-886523500D02*
G75*
G02*
X1199988000Y-887023500I0J-500000D01*
G01*
D13*
X1202469000Y-888033500D02*
G75*
G02*
X1204374000Y-889938500I0J-1905000D01*
G01*
X1204374000Y-907083500D02*
G75*
G02*
X1202469000Y-908988500I-1905000J0D01*
G01*
D15*
X1186636000Y-888449500D02*
G75*
G02*
X1186132000Y-888449500I-252000J0D01*
G01*
X1186132000Y-888449500D02*
G75*
G02*
X1186636000Y-888449500I252000J0D01*
G01*
X1187779000Y-889329500D02*
G75*
G02*
X1187275000Y-889329500I-252000J0D01*
G01*
X1187275000Y-889329500D02*
G75*
G02*
X1187779000Y-889329500I252000J0D01*
G01*
%TO.C,R5*%
D12*
X1195945000Y-928045000D02*
X1196715000Y-928045000D01*
X1204025000Y-928045000D02*
X1203255000Y-928045000D01*
X1196715000Y-926675000D02*
X1203255000Y-926675000D01*
X1203255000Y-929415000D01*
X1196715000Y-929415000D01*
X1196715000Y-926675000D01*
%TO.C,SW1*%
X1140079000Y-883539000D02*
X1154049000Y-883539000D01*
X1140079000Y-897509000D02*
X1140079000Y-883539000D01*
X1154049000Y-883539000D02*
X1154049000Y-897509000D01*
X1154049000Y-897509000D02*
X1140079000Y-897509000D01*
%TO.C,R2*%
X1195945000Y-915895000D02*
X1196715000Y-915895000D01*
X1204025000Y-915895000D02*
X1203255000Y-915895000D01*
X1196715000Y-914525000D02*
X1203255000Y-914525000D01*
X1203255000Y-917265000D01*
X1196715000Y-917265000D01*
X1196715000Y-914525000D01*
%TO.C,SW6*%
X1156335000Y-911987000D02*
X1170305000Y-911987000D01*
X1156335000Y-925957000D02*
X1156335000Y-911987000D01*
X1170305000Y-911987000D02*
X1170305000Y-925957000D01*
X1170305000Y-925957000D02*
X1156335000Y-925957000D01*
%TO.C,BZ1*%
X1188216000Y-918972000D02*
G75*
G02*
X1176016000Y-918972000I-6100000J0D01*
G01*
X1176016000Y-918972000D02*
G75*
G02*
X1188216000Y-918972000I6100000J0D01*
G01*
%TO.C,R1*%
X1172996000Y-889508000D02*
X1173766000Y-889508000D01*
X1181076000Y-889508000D02*
X1180306000Y-889508000D01*
X1173766000Y-888138000D02*
X1180306000Y-888138000D01*
X1180306000Y-890878000D01*
X1173766000Y-890878000D01*
X1173766000Y-888138000D01*
%TO.C,R3*%
X1195945000Y-919945000D02*
X1196715000Y-919945000D01*
X1204025000Y-919945000D02*
X1203255000Y-919945000D01*
X1196715000Y-918575000D02*
X1203255000Y-918575000D01*
X1203255000Y-921315000D01*
X1196715000Y-921315000D01*
X1196715000Y-918575000D01*
%TO.C,SW2*%
X1221359000Y-883031000D02*
X1235329000Y-883031000D01*
X1221359000Y-897001000D02*
X1221359000Y-883031000D01*
X1235329000Y-883031000D02*
X1235329000Y-897001000D01*
X1235329000Y-897001000D02*
X1221359000Y-897001000D01*
%TO.C,SW4*%
X1156335000Y-930783000D02*
X1170305000Y-930783000D01*
X1156335000Y-944753000D02*
X1156335000Y-930783000D01*
X1170305000Y-930783000D02*
X1170305000Y-944753000D01*
X1170305000Y-944753000D02*
X1156335000Y-944753000D01*
%TO.C,SW5*%
X1137539000Y-911987000D02*
X1151509000Y-911987000D01*
X1137539000Y-925957000D02*
X1137539000Y-911987000D01*
X1151509000Y-911987000D02*
X1151509000Y-925957000D01*
X1151509000Y-925957000D02*
X1137539000Y-925957000D01*
%TD*%
M02*
