%TF.GenerationSoftware,KiCad,Pcbnew,10.0.5-1-g226df246f3*%
%TF.CreationDate,2026-08-27T23:04:54+05:30*%
%TF.ProjectId,init_dawn.d,696e6974-5f64-4617-976e-2e642e6b6963,rev?*%
%TF.SameCoordinates,Original*%
%TF.FileFunction,Other,User*%
%FSLAX46Y46*%
G04 Gerber Fmt 4.6, Leading zero omitted, Abs format (unit mm)*
G04 Created by KiCad (PCBNEW 10.0.5-1-g226df246f3) date 2026-08-27 23:04:54*
%MOMM*%
%LPD*%
G01*
G04 APERTURE LIST*
%ADD10C,0.050000*%
G04 APERTURE END LIST*
%TO.C,tft_header1*%
D10*
X1205985000Y-886485000D02*
X1209525000Y-886485000D01*
X1209525000Y-907805000D01*
X1205985000Y-907805000D01*
X1205985000Y-886485000D01*
%TO.C,R4*%
X1193855000Y-922495000D02*
X1206115000Y-922495000D01*
X1206115000Y-925495000D01*
X1193855000Y-925495000D01*
X1193855000Y-922495000D01*
%TO.C,H3*%
X1126130000Y-949452000D02*
G75*
G02*
X1119230000Y-949452000I-3450000J0D01*
G01*
X1119230000Y-949452000D02*
G75*
G02*
X1126130000Y-949452000I3450000J0D01*
G01*
%TO.C,SW7*%
X1216156000Y-924056000D02*
X1229356000Y-924056000D01*
X1216156000Y-937256000D02*
X1216156000Y-924056000D01*
X1229356000Y-924056000D02*
X1229356000Y-937256000D01*
X1229356000Y-937256000D02*
X1216156000Y-937256000D01*
%TO.C,H1*%
X1127146000Y-875792000D02*
G75*
G02*
X1120246000Y-875792000I-3450000J0D01*
G01*
X1120246000Y-875792000D02*
G75*
G02*
X1127146000Y-875792000I3450000J0D01*
G01*
%TO.C,SW3*%
X1137924000Y-931168000D02*
X1151124000Y-931168000D01*
X1137924000Y-944368000D02*
X1137924000Y-931168000D01*
X1151124000Y-931168000D02*
X1151124000Y-944368000D01*
X1151124000Y-944368000D02*
X1137924000Y-944368000D01*
%TO.C,H2*%
X1246526000Y-875284000D02*
G75*
G02*
X1239626000Y-875284000I-3450000J0D01*
G01*
X1239626000Y-875284000D02*
G75*
G02*
X1246526000Y-875284000I3450000J0D01*
G01*
%TO.C,U2*%
X1186594000Y-888070500D02*
X1204394000Y-888070500D01*
X1204394000Y-909070500D01*
X1186594000Y-909070500D01*
X1186594000Y-888070500D01*
%TO.C,R5*%
X1193855000Y-926545000D02*
X1206115000Y-926545000D01*
X1206115000Y-929545000D01*
X1193855000Y-929545000D01*
X1193855000Y-926545000D01*
%TO.C,SW1*%
X1140464000Y-883924000D02*
X1153664000Y-883924000D01*
X1140464000Y-897124000D02*
X1140464000Y-883924000D01*
X1153664000Y-883924000D02*
X1153664000Y-897124000D01*
X1153664000Y-897124000D02*
X1140464000Y-897124000D01*
%TO.C,R2*%
X1193855000Y-914395000D02*
X1206115000Y-914395000D01*
X1206115000Y-917395000D01*
X1193855000Y-917395000D01*
X1193855000Y-914395000D01*
%TO.C,SW6*%
X1156720000Y-912372000D02*
X1169920000Y-912372000D01*
X1156720000Y-925572000D02*
X1156720000Y-912372000D01*
X1169920000Y-912372000D02*
X1169920000Y-925572000D01*
X1169920000Y-925572000D02*
X1156720000Y-925572000D01*
%TO.C,BZ1*%
X1188366000Y-918972000D02*
G75*
G02*
X1175866000Y-918972000I-6250000J0D01*
G01*
X1175866000Y-918972000D02*
G75*
G02*
X1188366000Y-918972000I6250000J0D01*
G01*
%TO.C,R1*%
X1170906000Y-888008000D02*
X1183166000Y-888008000D01*
X1183166000Y-891008000D01*
X1170906000Y-891008000D01*
X1170906000Y-888008000D01*
%TO.C,R3*%
X1193855000Y-918445000D02*
X1206115000Y-918445000D01*
X1206115000Y-921445000D01*
X1193855000Y-921445000D01*
X1193855000Y-918445000D01*
%TO.C,H4*%
X1246526000Y-949452000D02*
G75*
G02*
X1239626000Y-949452000I-3450000J0D01*
G01*
X1239626000Y-949452000D02*
G75*
G02*
X1246526000Y-949452000I3450000J0D01*
G01*
%TO.C,SW2*%
X1221744000Y-883416000D02*
X1234944000Y-883416000D01*
X1221744000Y-896616000D02*
X1221744000Y-883416000D01*
X1234944000Y-883416000D02*
X1234944000Y-896616000D01*
X1234944000Y-896616000D02*
X1221744000Y-896616000D01*
%TO.C,SW4*%
X1156720000Y-931168000D02*
X1169920000Y-931168000D01*
X1156720000Y-944368000D02*
X1156720000Y-931168000D01*
X1169920000Y-931168000D02*
X1169920000Y-944368000D01*
X1169920000Y-944368000D02*
X1156720000Y-944368000D01*
%TO.C,SW5*%
X1137924000Y-912372000D02*
X1151124000Y-912372000D01*
X1137924000Y-925572000D02*
X1137924000Y-912372000D01*
X1151124000Y-912372000D02*
X1151124000Y-925572000D01*
X1151124000Y-925572000D02*
X1137924000Y-925572000D01*
%TD*%
M02*
