%TF.GenerationSoftware,KiCad,Pcbnew,10.0.5-1-g226df246f3*%
%TF.CreationDate,2026-08-27T23:04:54+05:30*%
%TF.ProjectId,init_dawn.d,696e6974-5f64-4617-976e-2e642e6b6963,rev?*%
%TF.SameCoordinates,Original*%
%TF.FileFunction,Copper,L1,Top*%
%TF.FilePolarity,Positive*%
%FSLAX46Y46*%
G04 Gerber Fmt 4.6, Leading zero omitted, Abs format (unit mm)*
G04 Created by KiCad (PCBNEW 10.0.5-1-g226df246f3) date 2026-08-27 23:04:54*
%MOMM*%
%LPD*%
G01*
G04 APERTURE LIST*
G04 Aperture macros list*
%AMRoundRect*
0 Rectangle with rounded corners*
0 $1 Rounding radius*
0 $2 $3 $4 $5 $6 $7 $8 $9 X,Y pos of 4 corners*
0 Add a 4 corners polygon primitive as box body*
4,1,4,$2,$3,$4,$5,$6,$7,$8,$9,$2,$3,0*
0 Add four circle primitives for the rounded corners*
1,1,$1+$1,$2,$3*
1,1,$1+$1,$4,$5*
1,1,$1+$1,$6,$7*
1,1,$1+$1,$8,$9*
0 Add four rect primitives between the rounded corners*
20,1,$1+$1,$2,$3,$4,$5,0*
20,1,$1+$1,$4,$5,$6,$7,0*
20,1,$1+$1,$6,$7,$8,$9,0*
20,1,$1+$1,$8,$9,$2,$3,0*%
G04 Aperture macros list end*
%ADD10C,0.300000*%
%TA.AperFunction,NonConductor*%
%ADD11C,0.300000*%
%TD*%
%TA.AperFunction,ComponentPad*%
%ADD12R,1.700000X1.700000*%
%TD*%
%TA.AperFunction,ComponentPad*%
%ADD13C,1.700000*%
%TD*%
%TA.AperFunction,ComponentPad*%
%ADD14C,1.600000*%
%TD*%
%TA.AperFunction,ComponentPad*%
%ADD15C,2.200000*%
%TD*%
%TA.AperFunction,SMDPad,CuDef*%
%ADD16RoundRect,0.500000X-0.875000X-0.500000X0.875000X-0.500000X0.875000X0.500000X-0.875000X0.500000X0*%
%TD*%
%TA.AperFunction,SMDPad,CuDef*%
%ADD17C,1.700000*%
%TD*%
%TA.AperFunction,SMDPad,CuDef*%
%ADD18RoundRect,0.275000X0.975000X0.275000X-0.975000X0.275000X-0.975000X-0.275000X0.975000X-0.275000X0*%
%TD*%
%TA.AperFunction,ComponentPad*%
%ADD19R,2.000000X2.000000*%
%TD*%
%TA.AperFunction,ComponentPad*%
%ADD20C,2.000000*%
%TD*%
%TA.AperFunction,ViaPad*%
%ADD21C,0.600000*%
%TD*%
%TA.AperFunction,Conductor*%
%ADD22C,0.200000*%
%TD*%
G04 APERTURE END LIST*
D10*
D11*
X1182154510Y-945927114D02*
X1182368796Y-945998542D01*
X1182368796Y-945998542D02*
X1182440225Y-946069971D01*
X1182440225Y-946069971D02*
X1182511653Y-946212828D01*
X1182511653Y-946212828D02*
X1182511653Y-946427114D01*
X1182511653Y-946427114D02*
X1182440225Y-946569971D01*
X1182440225Y-946569971D02*
X1182368796Y-946641400D01*
X1182368796Y-946641400D02*
X1182225939Y-946712828D01*
X1182225939Y-946712828D02*
X1181654510Y-946712828D01*
X1181654510Y-946712828D02*
X1181654510Y-945212828D01*
X1181654510Y-945212828D02*
X1182154510Y-945212828D01*
X1182154510Y-945212828D02*
X1182297368Y-945284257D01*
X1182297368Y-945284257D02*
X1182368796Y-945355685D01*
X1182368796Y-945355685D02*
X1182440225Y-945498542D01*
X1182440225Y-945498542D02*
X1182440225Y-945641400D01*
X1182440225Y-945641400D02*
X1182368796Y-945784257D01*
X1182368796Y-945784257D02*
X1182297368Y-945855685D01*
X1182297368Y-945855685D02*
X1182154510Y-945927114D01*
X1182154510Y-945927114D02*
X1181654510Y-945927114D01*
X1183011653Y-945712828D02*
X1183368796Y-946712828D01*
X1183725939Y-945712828D02*
X1183368796Y-946712828D01*
X1183368796Y-946712828D02*
X1183225939Y-947069971D01*
X1183225939Y-947069971D02*
X1183154510Y-947141400D01*
X1183154510Y-947141400D02*
X1183011653Y-947212828D01*
X1185440224Y-945927114D02*
X1185940224Y-945927114D01*
X1186154510Y-946712828D02*
X1185440224Y-946712828D01*
X1185440224Y-946712828D02*
X1185440224Y-945212828D01*
X1185440224Y-945212828D02*
X1186154510Y-945212828D01*
X1186797367Y-946712828D02*
X1186797367Y-945712828D01*
X1186797367Y-945998542D02*
X1186868796Y-945855685D01*
X1186868796Y-945855685D02*
X1186940225Y-945784257D01*
X1186940225Y-945784257D02*
X1187083082Y-945712828D01*
X1187083082Y-945712828D02*
X1187225939Y-945712828D01*
X1187940224Y-946712828D02*
X1187797367Y-946641400D01*
X1187797367Y-946641400D02*
X1187725938Y-946569971D01*
X1187725938Y-946569971D02*
X1187654510Y-946427114D01*
X1187654510Y-946427114D02*
X1187654510Y-945998542D01*
X1187654510Y-945998542D02*
X1187725938Y-945855685D01*
X1187725938Y-945855685D02*
X1187797367Y-945784257D01*
X1187797367Y-945784257D02*
X1187940224Y-945712828D01*
X1187940224Y-945712828D02*
X1188154510Y-945712828D01*
X1188154510Y-945712828D02*
X1188297367Y-945784257D01*
X1188297367Y-945784257D02*
X1188368796Y-945855685D01*
X1188368796Y-945855685D02*
X1188440224Y-945998542D01*
X1188440224Y-945998542D02*
X1188440224Y-946427114D01*
X1188440224Y-946427114D02*
X1188368796Y-946569971D01*
X1188368796Y-946569971D02*
X1188297367Y-946641400D01*
X1188297367Y-946641400D02*
X1188154510Y-946712828D01*
X1188154510Y-946712828D02*
X1187940224Y-946712828D01*
X1188940224Y-946712828D02*
X1189725939Y-945712828D01*
X1188940224Y-945712828D02*
X1189725939Y-946712828D01*
X1190297367Y-946141400D02*
X1191440225Y-946141400D01*
X1192440225Y-945212828D02*
X1192583082Y-945212828D01*
X1192583082Y-945212828D02*
X1192725939Y-945284257D01*
X1192725939Y-945284257D02*
X1192797368Y-945355685D01*
X1192797368Y-945355685D02*
X1192868796Y-945498542D01*
X1192868796Y-945498542D02*
X1192940225Y-945784257D01*
X1192940225Y-945784257D02*
X1192940225Y-946141400D01*
X1192940225Y-946141400D02*
X1192868796Y-946427114D01*
X1192868796Y-946427114D02*
X1192797368Y-946569971D01*
X1192797368Y-946569971D02*
X1192725939Y-946641400D01*
X1192725939Y-946641400D02*
X1192583082Y-946712828D01*
X1192583082Y-946712828D02*
X1192440225Y-946712828D01*
X1192440225Y-946712828D02*
X1192297368Y-946641400D01*
X1192297368Y-946641400D02*
X1192225939Y-946569971D01*
X1192225939Y-946569971D02*
X1192154510Y-946427114D01*
X1192154510Y-946427114D02*
X1192083082Y-946141400D01*
X1192083082Y-946141400D02*
X1192083082Y-945784257D01*
X1192083082Y-945784257D02*
X1192154510Y-945498542D01*
X1192154510Y-945498542D02*
X1192225939Y-945355685D01*
X1192225939Y-945355685D02*
X1192297368Y-945284257D01*
X1192297368Y-945284257D02*
X1192440225Y-945212828D01*
X1193511653Y-945355685D02*
X1193583081Y-945284257D01*
X1193583081Y-945284257D02*
X1193725939Y-945212828D01*
X1193725939Y-945212828D02*
X1194083081Y-945212828D01*
X1194083081Y-945212828D02*
X1194225939Y-945284257D01*
X1194225939Y-945284257D02*
X1194297367Y-945355685D01*
X1194297367Y-945355685D02*
X1194368796Y-945498542D01*
X1194368796Y-945498542D02*
X1194368796Y-945641400D01*
X1194368796Y-945641400D02*
X1194297367Y-945855685D01*
X1194297367Y-945855685D02*
X1193440224Y-946712828D01*
X1193440224Y-946712828D02*
X1194368796Y-946712828D01*
D12*
%TO.P,tft_header1,1,Pin_1_1*%
%TO.N,Net-(BZ1--)*%
X1207755000Y-888255000D03*
D13*
%TO.P,tft_header1,2,Pin_2_2*%
%TO.N,Net-(U2-3V3_OUT)*%
X1207755000Y-890795000D03*
%TO.P,tft_header1,3,Pin_3_3*%
%TO.N,Net-(U2-D10)*%
X1207755000Y-893335000D03*
%TO.P,tft_header1,4,Pin_4_4*%
%TO.N,Net-(U2-D8)*%
X1207755000Y-895875000D03*
%TO.P,tft_header1,5,Pin_5_5*%
%TO.N,Net-(U2-D9{slash}BOOT)*%
X1207755000Y-898415000D03*
%TO.P,tft_header1,6,Pin_6_6*%
%TO.N,Net-(U2-D7)*%
X1207755000Y-900955000D03*
%TO.P,tft_header1,7,Pin_7_7*%
%TO.N,Net-(U2-D0)*%
X1207755000Y-903495000D03*
%TO.P,tft_header1,8,Pin_8_8*%
%TO.N,Net-(U2-3V3_OUT)*%
X1207755000Y-906035000D03*
%TD*%
D14*
%TO.P,R4,1*%
%TO.N,Net-(BZ1--)*%
X1194905000Y-923995000D03*
%TO.P,R4,2*%
%TO.N,Net-(U2-D4)*%
X1205065000Y-923995000D03*
%TD*%
D15*
%TO.P,SW7,1,1_1*%
%TO.N,Net-(U2-3V3_OUT)*%
X1225296000Y-925576000D03*
%TO.P,SW7,2,2_2*%
%TO.N,Net-(U2-D5)*%
X1218946000Y-928116000D03*
%TD*%
%TO.P,SW3,1,1_1*%
%TO.N,Net-(U2-3V3_OUT)*%
X1147064000Y-932688000D03*
%TO.P,SW3,2,2_2*%
%TO.N,Net-(U2-D1)*%
X1140714000Y-935228000D03*
%TD*%
D16*
%TO.P,U2,1,D0_1*%
%TO.N,Net-(U2-D0)*%
X1187429000Y-890950500D03*
%TO.P,U2,2,D1_2*%
%TO.N,Net-(U2-D1)*%
X1187429000Y-893490500D03*
%TO.P,U2,3,D2_3*%
%TO.N,Net-(U2-D2)*%
X1187429000Y-896030500D03*
%TO.P,U2,4,D3_4*%
%TO.N,Net-(U2-D3)*%
X1187429000Y-898570500D03*
%TO.P,U2,5,D4_5*%
%TO.N,Net-(U2-D4)*%
X1187429000Y-901110500D03*
%TO.P,U2,6,D5_6*%
%TO.N,Net-(U2-D5)*%
X1187429000Y-903650500D03*
%TO.P,U2,7,D6_7*%
%TO.N,Net-(BZ1-+)*%
X1187429000Y-906190500D03*
%TO.P,U2,8,D7_8*%
%TO.N,Net-(U2-D7)*%
X1203594000Y-906190500D03*
%TO.P,U2,9,D8_9*%
%TO.N,Net-(U2-D8)*%
X1203594000Y-903650500D03*
%TO.P,U2,10,D9/BOOT_10*%
%TO.N,Net-(U2-D9{slash}BOOT)*%
X1203594000Y-901110500D03*
%TO.P,U2,11,D10_11*%
%TO.N,Net-(U2-D10)*%
X1203594000Y-898570500D03*
%TO.P,U2,12,3V3_OUT_12*%
%TO.N,Net-(U2-3V3_OUT)*%
X1203594000Y-896030500D03*
%TO.P,U2,13,GND_13*%
%TO.N,Net-(R1-Pad2)*%
X1203594000Y-893490500D03*
%TO.P,U2,14,VBUS_14*%
%TO.N,unconnected-(U2-VBUS-Pad14)*%
X1203594000Y-890950500D03*
D17*
%TO.P,U2,15,D3/MTDI_15*%
%TO.N,unconnected-(U2-D3{slash}MTDI-Pad15)*%
X1194214000Y-889938500D03*
%TO.P,U2,16,D5/MTDO_16*%
%TO.N,unconnected-(U2-D5{slash}MTDO-Pad16)*%
X1196754000Y-889938500D03*
%TO.P,U2,17,EN_17*%
%TO.N,unconnected-(U2-EN-Pad17)*%
X1194214000Y-892478500D03*
%TO.P,U2,18,GND_18*%
%TO.N,unconnected-(U2-GND-Pad18)*%
X1196754000Y-892478500D03*
%TO.P,U2,19,D2/MTMS_19*%
%TO.N,unconnected-(U2-D2{slash}MTMS-Pad19)*%
X1194214000Y-895018500D03*
%TO.P,U2,20,D4/MTCK_20*%
%TO.N,unconnected-(U2-D4{slash}MTCK-Pad20)*%
X1196754000Y-895018500D03*
D18*
%TO.P,U2,21,VBAT_21*%
%TO.N,+3.3V*%
X1191039000Y-898188500D03*
%TO.P,U2,22,GND_22*%
%TO.N,GND*%
X1191039000Y-896283500D03*
%TD*%
D14*
%TO.P,R5,1*%
%TO.N,Net-(U2-D5)*%
X1194905000Y-928045000D03*
%TO.P,R5,2*%
%TO.N,Net-(BZ1--)*%
X1205065000Y-928045000D03*
%TD*%
D15*
%TO.P,SW1,1,1_1*%
%TO.N,Net-(U2-D1)*%
X1149604000Y-885444000D03*
%TO.P,SW1,2,2_2*%
%TO.N,Net-(U2-D2)*%
X1143254000Y-887984000D03*
%TD*%
D14*
%TO.P,R2,1*%
%TO.N,Net-(U2-D2)*%
X1194905000Y-915895000D03*
%TO.P,R2,2*%
%TO.N,Net-(R1-Pad2)*%
X1205065000Y-915895000D03*
%TD*%
D15*
%TO.P,SW6,1,1_1*%
%TO.N,Net-(U2-3V3_OUT)*%
X1165860000Y-913892000D03*
%TO.P,SW6,2,2_2*%
%TO.N,Net-(U2-D4)*%
X1159510000Y-916432000D03*
%TD*%
D19*
%TO.P,BZ1,1,+_1*%
%TO.N,Net-(BZ1-+)*%
X1178316000Y-918972000D03*
D20*
%TO.P,BZ1,2,-_2*%
%TO.N,Net-(BZ1--)*%
X1185916000Y-918972000D03*
%TD*%
D14*
%TO.P,R1,1*%
%TO.N,Net-(U2-D1)*%
X1171956000Y-889508000D03*
%TO.P,R1,2*%
%TO.N,Net-(R1-Pad2)*%
X1182116000Y-889508000D03*
%TD*%
%TO.P,R3,1*%
%TO.N,Net-(BZ1--)*%
X1194905000Y-919945000D03*
%TO.P,R3,2*%
%TO.N,Net-(U2-D3)*%
X1205065000Y-919945000D03*
%TD*%
D15*
%TO.P,SW2,1,1_1*%
%TO.N,Net-(U2-D1)*%
X1230884000Y-884936000D03*
%TO.P,SW2,2,2_2*%
%TO.N,Net-(U2-D3)*%
X1224534000Y-887476000D03*
%TD*%
%TO.P,SW4,1,1_1*%
%TO.N,Net-(U2-3V3_OUT)*%
X1165860000Y-932688000D03*
%TO.P,SW4,2,2_2*%
%TO.N,Net-(U2-D2)*%
X1159510000Y-935228000D03*
%TD*%
%TO.P,SW5,1,1_1*%
%TO.N,Net-(U2-3V3_OUT)*%
X1147064000Y-913892000D03*
%TO.P,SW5,2,2_2*%
%TO.N,Net-(U2-D3)*%
X1140714000Y-916432000D03*
%TD*%
D21*
%TO.N,*%
X1189736000Y-913892000D03*
%TO.N,Net-(U2-D3)*%
X1205065000Y-919945000D03*
%TD*%
%TO.N,*%
D22*
X1243584000Y-875792000D02*
X1243584000Y-873760000D01*
%TO.N,Net-(U2-3V3_OUT)*%
X1211072000Y-887478000D02*
X1207755000Y-890795000D01*
X1203594000Y-896030500D02*
X1201919000Y-894355500D01*
X1211072000Y-884428000D02*
X1211072000Y-887478000D01*
X1232916000Y-933196000D02*
X1225296000Y-925576000D01*
X1201919000Y-884437000D02*
X1201928000Y-884428000D01*
X1201928000Y-884428000D02*
X1211072000Y-884428000D01*
X1165860000Y-932688000D02*
X1165860000Y-913892000D01*
X1207755000Y-908035000D02*
X1207755000Y-906035000D01*
X1201919000Y-907029142D02*
X1201919000Y-897705500D01*
X1202380358Y-907490500D02*
X1201919000Y-907029142D01*
X1201919000Y-894355500D02*
X1201919000Y-884437000D01*
X1193292000Y-941324000D02*
X1232916000Y-941324000D01*
X1206299500Y-907490500D02*
X1202380358Y-907490500D01*
X1207755000Y-906035000D02*
X1206299500Y-907490500D01*
X1165860000Y-913892000D02*
X1147064000Y-913892000D01*
X1232916000Y-941324000D02*
X1232916000Y-933196000D01*
X1201919000Y-897705500D02*
X1203594000Y-896030500D01*
X1225296000Y-925576000D02*
X1207755000Y-908035000D01*
X1165860000Y-913892000D02*
X1193292000Y-941324000D01*
X1147064000Y-913892000D02*
X1147064000Y-932688000D01*
%TO.N,Net-(U2-D10)*%
X1203594000Y-898570500D02*
X1205484000Y-896680500D01*
X1205484000Y-895606000D02*
X1207755000Y-893335000D01*
X1205484000Y-896680500D02*
X1205484000Y-895606000D01*
%TO.N,Net-(U2-D8)*%
X1206605000Y-900639500D02*
X1206605000Y-897025000D01*
X1203594000Y-903650500D02*
X1206605000Y-900639500D01*
X1206605000Y-897025000D02*
X1207755000Y-895875000D01*
%TO.N,Net-(U2-D9{slash}BOOT)*%
X1208231346Y-894725000D02*
X1208905000Y-895398654D01*
X1206205000Y-898499500D02*
X1206205000Y-895798654D01*
X1206205000Y-895798654D02*
X1207278654Y-894725000D01*
X1208905000Y-897265000D02*
X1207755000Y-898415000D01*
X1208905000Y-895398654D02*
X1208905000Y-897265000D01*
X1207278654Y-894725000D02*
X1208231346Y-894725000D01*
X1203594000Y-901110500D02*
X1206205000Y-898499500D01*
%TO.N,Net-(U2-D7)*%
X1203594000Y-906190500D02*
X1205484000Y-904300500D01*
X1205484000Y-903226000D02*
X1207755000Y-900955000D01*
X1205484000Y-904300500D02*
X1205484000Y-903226000D01*
%TO.N,Net-(U2-D0)*%
X1211504899Y-903495000D02*
X1207755000Y-903495000D01*
X1187429000Y-890950500D02*
X1195151500Y-883228000D01*
X1232284000Y-884356101D02*
X1232284000Y-885515899D01*
X1232284000Y-885515899D02*
X1231463899Y-886336000D01*
X1195151500Y-883228000D02*
X1231155899Y-883228000D01*
X1231463899Y-886336000D02*
X1228663899Y-886336000D01*
X1228663899Y-886336000D02*
X1211504899Y-903495000D01*
X1231155899Y-883228000D02*
X1232284000Y-884356101D01*
%TO.N,Net-(U2-D5)*%
X1187429000Y-903650500D02*
X1177016000Y-914063500D01*
X1177016000Y-920272000D02*
X1177240000Y-920496000D01*
X1177240000Y-920496000D02*
X1178560000Y-920496000D01*
X1177016000Y-914063500D02*
X1177016000Y-920272000D01*
X1178560000Y-920496000D02*
X1186109000Y-928045000D01*
X1186109000Y-928045000D02*
X1194905000Y-928045000D01*
%TO.N,Net-(U2-D1)*%
X1157650500Y-893490500D02*
X1187429000Y-893490500D01*
X1229576000Y-883628000D02*
X1197291500Y-883628000D01*
X1149604000Y-885444000D02*
X1149604000Y-885952000D01*
X1149604000Y-885952000D02*
X1144524000Y-880872000D01*
X1137412000Y-880872000D02*
X1137412000Y-931926000D01*
X1149604000Y-885444000D02*
X1149096000Y-884936000D01*
X1144524000Y-880872000D02*
X1137412000Y-880872000D01*
X1149604000Y-885444000D02*
X1157650500Y-893490500D01*
X1197291500Y-883628000D02*
X1187429000Y-893490500D01*
X1137412000Y-931926000D02*
X1140714000Y-935228000D01*
X1230884000Y-884936000D02*
X1229576000Y-883628000D01*
%TO.N,Net-(U2-D2)*%
X1185323315Y-929145000D02*
X1176616000Y-920437685D01*
X1176616000Y-920437685D02*
X1176616000Y-906843500D01*
X1143254000Y-890037402D02*
X1149247098Y-896030500D01*
X1194905000Y-915895000D02*
X1196005000Y-916995000D01*
X1176616000Y-906843500D02*
X1187429000Y-896030500D01*
X1195360635Y-929145000D02*
X1185323315Y-929145000D01*
X1196005000Y-916995000D02*
X1196005000Y-928500635D01*
X1143254000Y-887984000D02*
X1143254000Y-890037402D01*
X1196005000Y-928500635D02*
X1195360635Y-929145000D01*
X1149247098Y-896030500D02*
X1187429000Y-896030500D01*
%TO.N,Net-(U2-D3)*%
X1201519000Y-916399000D02*
X1205065000Y-919945000D01*
X1189228000Y-904108000D02*
X1189228000Y-900369500D01*
X1201762314Y-884028000D02*
X1201519000Y-884271314D01*
X1189228000Y-900369500D02*
X1187429000Y-898570500D01*
X1221086000Y-884028000D02*
X1201762314Y-884028000D01*
X1205065000Y-919945000D02*
X1189228000Y-904108000D01*
X1201519000Y-884271314D02*
X1201519000Y-916399000D01*
X1224534000Y-887476000D02*
X1221086000Y-884028000D01*
%TO.N,Net-(BZ1-+)*%
X1187429000Y-906190500D02*
X1187429000Y-909859000D01*
X1187429000Y-909859000D02*
X1178316000Y-918972000D01*
%TO.N,unconnected-(U2-D5{slash}MTDO-Pad16)*%
X1196754000Y-889938500D02*
X1196754000Y-890110000D01*
X1196754000Y-890110000D02*
X1196340000Y-890524000D01*
%TO.N,Net-(R1-Pad2)*%
X1207991346Y-902345000D02*
X1209305000Y-901031346D01*
X1231321585Y-882828000D02*
X1232684000Y-884190416D01*
X1217038402Y-904645000D02*
X1207278654Y-904645000D01*
X1188796000Y-882828000D02*
X1231321585Y-882828000D01*
X1209305000Y-893258654D02*
X1208231346Y-892185000D01*
X1208231346Y-892185000D02*
X1204899500Y-892185000D01*
X1206605000Y-903018654D02*
X1207278654Y-902345000D01*
X1207278654Y-904645000D02*
X1206605000Y-903971346D01*
X1232684000Y-884190416D02*
X1232684000Y-888999402D01*
X1232684000Y-888999402D02*
X1217038402Y-904645000D01*
X1182116000Y-889508000D02*
X1188796000Y-882828000D01*
X1204899500Y-892185000D02*
X1203594000Y-893490500D01*
X1209305000Y-901031346D02*
X1209305000Y-893258654D01*
X1207278654Y-902345000D02*
X1207991346Y-902345000D01*
X1206605000Y-903971346D02*
X1206605000Y-903018654D01*
%TD*%
M02*
