%TF.GenerationSoftware,KiCad,Pcbnew,10.0.5-1-g226df246f3*%
%TF.CreationDate,2026-08-27T23:04:54+05:30*%
%TF.ProjectId,init_dawn.d,696e6974-5f64-4617-976e-2e642e6b6963,rev?*%
%TF.SameCoordinates,Original*%
%TF.FileFunction,OtherDrawing,Comment*%
%FSLAX46Y46*%
G04 Gerber Fmt 4.6, Leading zero omitted, Abs format (unit mm)*
G04 Created by KiCad (PCBNEW 10.0.5-1-g226df246f3) date 2026-08-27 23:04:54*
%MOMM*%
%LPD*%
G01*
G04 APERTURE LIST*
%ADD10C,0.150000*%
G04 APERTURE END LIST*
%TO.C,SW7*%
D10*
X1213231000Y-921131000D02*
X1232281000Y-921131000D01*
X1213231000Y-940181000D02*
X1213231000Y-921131000D01*
X1232281000Y-921131000D02*
X1232281000Y-940181000D01*
X1232281000Y-940181000D02*
X1213231000Y-940181000D01*
%TO.C,SW3*%
X1134999000Y-928243000D02*
X1154049000Y-928243000D01*
X1134999000Y-947293000D02*
X1134999000Y-928243000D01*
X1154049000Y-928243000D02*
X1154049000Y-947293000D01*
X1154049000Y-947293000D02*
X1134999000Y-947293000D01*
%TO.C,SW1*%
X1137539000Y-880999000D02*
X1156589000Y-880999000D01*
X1137539000Y-900049000D02*
X1137539000Y-880999000D01*
X1156589000Y-880999000D02*
X1156589000Y-900049000D01*
X1156589000Y-900049000D02*
X1137539000Y-900049000D01*
%TO.C,SW6*%
X1153795000Y-909447000D02*
X1172845000Y-909447000D01*
X1153795000Y-928497000D02*
X1153795000Y-909447000D01*
X1172845000Y-909447000D02*
X1172845000Y-928497000D01*
X1172845000Y-928497000D02*
X1153795000Y-928497000D01*
%TO.C,SW2*%
X1218819000Y-880491000D02*
X1237869000Y-880491000D01*
X1218819000Y-899541000D02*
X1218819000Y-880491000D01*
X1237869000Y-880491000D02*
X1237869000Y-899541000D01*
X1237869000Y-899541000D02*
X1218819000Y-899541000D01*
%TO.C,SW4*%
X1153795000Y-928243000D02*
X1172845000Y-928243000D01*
X1153795000Y-947293000D02*
X1153795000Y-928243000D01*
X1172845000Y-928243000D02*
X1172845000Y-947293000D01*
X1172845000Y-947293000D02*
X1153795000Y-947293000D01*
%TO.C,SW5*%
X1134999000Y-909447000D02*
X1154049000Y-909447000D01*
X1134999000Y-928497000D02*
X1134999000Y-909447000D01*
X1154049000Y-909447000D02*
X1154049000Y-928497000D01*
X1154049000Y-928497000D02*
X1134999000Y-928497000D01*
%TD*%
M02*
