%TF.GenerationSoftware,KiCad,Pcbnew,10.0.5-1-g226df246f3*%
%TF.CreationDate,2026-08-28T11:55:04+05:30*%
%TF.ProjectId,init_dawn.d,696e6974-5f64-4617-976e-2e642e6b6963,rev?*%
%TF.SameCoordinates,Original*%
%TF.FileFunction,Other,User*%
%FSLAX46Y46*%
G04 Gerber Fmt 4.6, Leading zero omitted, Abs format (unit mm)*
G04 Created by KiCad (PCBNEW 10.0.5-1-g226df246f3) date 2026-08-28 11:55:04*
%MOMM*%
%LPD*%
G01*
G04 APERTURE LIST*
%ADD10C,0.050000*%
G04 APERTURE END LIST*
%TO.C,H1*%
D10*
X1253450000Y-945500000D02*
G75*
G02*
X1246550000Y-945500000I-3450000J0D01*
G01*
X1246550000Y-945500000D02*
G75*
G02*
X1253450000Y-945500000I3450000J0D01*
G01*
%TO.C,H2*%
X1252950000Y-1015000000D02*
G75*
G02*
X1246050000Y-1015000000I-3450000J0D01*
G01*
X1246050000Y-1015000000D02*
G75*
G02*
X1252950000Y-1015000000I3450000J0D01*
G01*
%TO.C,SW5*%
X1291100000Y-992600000D02*
X1277900000Y-992600000D01*
X1291100000Y-979400000D02*
X1291100000Y-992600000D01*
X1277900000Y-992600000D02*
X1277900000Y-979400000D01*
X1277900000Y-979400000D02*
X1291100000Y-979400000D01*
%TO.C,SW3*%
X1272100000Y-992600000D02*
X1258900000Y-992600000D01*
X1272100000Y-979400000D02*
X1272100000Y-992600000D01*
X1258900000Y-992600000D02*
X1258900000Y-979400000D01*
X1258900000Y-979400000D02*
X1272100000Y-979400000D01*
%TO.C,SW6*%
X1291600000Y-1011600000D02*
X1278400000Y-1011600000D01*
X1291600000Y-998400000D02*
X1291600000Y-1011600000D01*
X1278400000Y-1011600000D02*
X1278400000Y-998400000D01*
X1278400000Y-998400000D02*
X1291600000Y-998400000D01*
%TO.C,SW4*%
X1272100000Y-1011600000D02*
X1258900000Y-1011600000D01*
X1272100000Y-998400000D02*
X1272100000Y-1011600000D01*
X1258900000Y-1011600000D02*
X1258900000Y-998400000D01*
X1258900000Y-998400000D02*
X1272100000Y-998400000D01*
%TO.C,SW1*%
X1268600000Y-963600000D02*
X1255400000Y-963600000D01*
X1268600000Y-950400000D02*
X1268600000Y-963600000D01*
X1255400000Y-963600000D02*
X1255400000Y-950400000D01*
X1255400000Y-950400000D02*
X1268600000Y-950400000D01*
%TO.C,U2*%
X1286669500Y-948180250D02*
X1304469500Y-948180250D01*
X1304469500Y-969180250D01*
X1286669500Y-969180250D01*
X1286669500Y-948180250D01*
%TO.C,tft_header1*%
X1314655000Y-948110000D02*
X1318195000Y-948110000D01*
X1318195000Y-969430000D01*
X1314655000Y-969430000D01*
X1314655000Y-948110000D01*
%TO.C,SW7*%
X1309900000Y-997900000D02*
X1323100000Y-997900000D01*
X1309900000Y-1011100000D02*
X1309900000Y-997900000D01*
X1323100000Y-997900000D02*
X1323100000Y-1011100000D01*
X1323100000Y-1011100000D02*
X1309900000Y-1011100000D01*
%TO.C,SW2*%
X1332900000Y-951400000D02*
X1346100000Y-951400000D01*
X1332900000Y-964600000D02*
X1332900000Y-951400000D01*
X1346100000Y-951400000D02*
X1346100000Y-964600000D01*
X1346100000Y-964600000D02*
X1332900000Y-964600000D01*
%TO.C,H4*%
X1355950000Y-945000000D02*
G75*
G02*
X1349050000Y-945000000I-3450000J0D01*
G01*
X1349050000Y-945000000D02*
G75*
G02*
X1355950000Y-945000000I3450000J0D01*
G01*
%TO.C,H3*%
X1355950000Y-1015000000D02*
G75*
G02*
X1349050000Y-1015000000I-3450000J0D01*
G01*
X1349050000Y-1015000000D02*
G75*
G02*
X1355950000Y-1015000000I3450000J0D01*
G01*
%TO.C,BZ1*%
X1327155000Y-980635000D02*
G75*
G02*
X1314655000Y-980635000I-6250000J0D01*
G01*
X1314655000Y-980635000D02*
G75*
G02*
X1327155000Y-980635000I6250000J0D01*
G01*
%TD*%
M02*
