%TF.GenerationSoftware,KiCad,Pcbnew,10.0.5-1-g226df246f3*%
%TF.CreationDate,2026-08-28T11:55:04+05:30*%
%TF.ProjectId,init_dawn.d,696e6974-5f64-4617-976e-2e642e6b6963,rev?*%
%TF.SameCoordinates,Original*%
%TF.FileFunction,Copper,L2,Bot*%
%TF.FilePolarity,Positive*%
%FSLAX46Y46*%
G04 Gerber Fmt 4.6, Leading zero omitted, Abs format (unit mm)*
G04 Created by KiCad (PCBNEW 10.0.5-1-g226df246f3) date 2026-08-28 11:55:04*
%MOMM*%
%LPD*%
G01*
G04 APERTURE LIST*
%TA.AperFunction,ComponentPad*%
%ADD10C,2.200000*%
%TD*%
%TA.AperFunction,ComponentPad*%
%ADD11R,1.700000X1.700000*%
%TD*%
%TA.AperFunction,ComponentPad*%
%ADD12C,1.700000*%
%TD*%
%TA.AperFunction,ComponentPad*%
%ADD13R,2.000000X2.000000*%
%TD*%
%TA.AperFunction,ComponentPad*%
%ADD14C,2.000000*%
%TD*%
%TA.AperFunction,ViaPad*%
%ADD15C,0.600000*%
%TD*%
%TA.AperFunction,Conductor*%
%ADD16C,0.200000*%
%TD*%
G04 APERTURE END LIST*
D10*
%TO.P,SW5,2,2_2*%
%TO.N,Net-(U2-D3)*%
X1280690000Y-983460000D03*
%TO.P,SW5,1,1_1*%
%TO.N,Net-(U2-3V3_OUT)*%
X1287040000Y-980920000D03*
%TD*%
%TO.P,SW3,2,2_2*%
%TO.N,Net-(U2-D1)*%
X1261690000Y-983460000D03*
%TO.P,SW3,1,1_1*%
%TO.N,Net-(U2-3V3_OUT)*%
X1268040000Y-980920000D03*
%TD*%
%TO.P,SW6,2,2_2*%
%TO.N,Net-(BZ1--)*%
X1281190000Y-1002460000D03*
%TO.P,SW6,1,1_1*%
%TO.N,Net-(U2-3V3_OUT)*%
X1287540000Y-999920000D03*
%TD*%
%TO.P,SW4,2,2_2*%
%TO.N,Net-(U2-D2)*%
X1261690000Y-1002460000D03*
%TO.P,SW4,1,1_1*%
%TO.N,Net-(U2-3V3_OUT)*%
X1268040000Y-999920000D03*
%TD*%
%TO.P,SW1,2,2_2*%
%TO.N,Net-(U2-D2)*%
X1258190000Y-954460000D03*
%TO.P,SW1,1,1_1*%
%TO.N,Net-(U2-D1)*%
X1264540000Y-951920000D03*
%TD*%
D11*
%TO.P,tft_header1,1,Pin_1_1*%
%TO.N,Net-(BZ1--)*%
X1316425000Y-949880000D03*
D12*
%TO.P,tft_header1,2,Pin_2_2*%
%TO.N,Net-(U2-3V3_OUT)*%
X1316425000Y-952420000D03*
%TO.P,tft_header1,3,Pin_3_3*%
%TO.N,Net-(U2-D10)*%
X1316425000Y-954960000D03*
%TO.P,tft_header1,4,Pin_4_4*%
%TO.N,Net-(U2-D8)*%
X1316425000Y-957500000D03*
%TO.P,tft_header1,5,Pin_5_5*%
%TO.N,Net-(U2-D9{slash}BOOT)*%
X1316425000Y-960040000D03*
%TO.P,tft_header1,6,Pin_6_6*%
%TO.N,Net-(U2-D7)*%
X1316425000Y-962580000D03*
%TO.P,tft_header1,7,Pin_7_7*%
%TO.N,Net-(U2-D0)*%
X1316425000Y-965120000D03*
%TO.P,tft_header1,8,Pin_8_8*%
%TO.N,Net-(U2-3V3_OUT)*%
X1316425000Y-967660000D03*
%TD*%
D10*
%TO.P,SW7,1,1_1*%
%TO.N,Net-(U2-3V3_OUT)*%
X1319040000Y-999420000D03*
%TO.P,SW7,2,2_2*%
%TO.N,Net-(U2-D5)*%
X1312690000Y-1001960000D03*
%TD*%
%TO.P,SW2,1,1_1*%
%TO.N,Net-(U2-D1)*%
X1342040000Y-952920000D03*
%TO.P,SW2,2,2_2*%
%TO.N,Net-(U2-D3)*%
X1335690000Y-955460000D03*
%TD*%
D13*
%TO.P,BZ1,1,+_1*%
%TO.N,Net-(BZ1-+)*%
X1317105000Y-980635000D03*
D14*
%TO.P,BZ1,2,-_2*%
%TO.N,Net-(BZ1--)*%
X1324705000Y-980635000D03*
%TD*%
D15*
%TO.N,Net-(U2-D5)*%
X1287504500Y-963760250D03*
%TO.N,Net-(U2-3V3_OUT)*%
X1165860000Y-932688000D03*
%TO.N,*%
X1189736000Y-913892000D03*
%TO.N,Net-(U2-D3)*%
X1205065000Y-919945000D03*
%TD*%
%TO.N,Net-(U2-3V3_OUT)*%
D16*
X1287540000Y-999920000D02*
X1287540000Y-981420000D01*
X1287540000Y-999920000D02*
X1287580000Y-999920000D01*
X1273580000Y-999920000D02*
X1268040000Y-999920000D01*
%TO.N,Net-(U2-D2)*%
X1261690000Y-1002460000D02*
X1258190000Y-998960000D01*
%TO.N,Net-(BZ1--)*%
X1287040000Y-1002460000D02*
X1281190000Y-1002460000D01*
%TO.N,Net-(U2-3V3_OUT)*%
X1288000000Y-999500000D02*
X1274000000Y-999500000D01*
X1287540000Y-981420000D02*
X1287040000Y-980920000D01*
X1274000000Y-999500000D02*
X1273580000Y-999920000D01*
X1287580000Y-999920000D02*
X1288000000Y-999500000D01*
%TO.N,Net-(BZ1--)*%
X1316425000Y-949880000D02*
X1315275000Y-951030000D01*
X1315275000Y-951030000D02*
X1315275000Y-974225000D01*
X1315275000Y-974225000D02*
X1287040000Y-1002460000D01*
X1324705000Y-980635000D02*
X1324705000Y-958160000D01*
X1324705000Y-958160000D02*
X1316425000Y-949880000D01*
%TO.N,Net-(U2-D2)*%
X1258190000Y-998960000D02*
X1258190000Y-954460000D01*
%TD*%
M02*
