%TF.GenerationSoftware,KiCad,Pcbnew,10.0.5-1-g226df246f3*%
%TF.CreationDate,2026-09-06T21:36:05+05:30*%
%TF.ProjectId,init_dawn.d,696e6974-5f64-4617-976e-2e642e6b6963,rev?*%
%TF.SameCoordinates,Original*%
%TF.FileFunction,AssemblyDrawing,Top*%
%FSLAX46Y46*%
G04 Gerber Fmt 4.6, Leading zero omitted, Abs format (unit mm)*
G04 Created by KiCad (PCBNEW 10.0.5-1-g226df246f3) date 2026-09-06 21:36:05*
%MOMM*%
%LPD*%
G01*
G04 APERTURE LIST*
%ADD10C,0.150000*%
%ADD11C,0.073152*%
%ADD12C,0.100000*%
%ADD13C,0.504000*%
G04 APERTURE END LIST*
D10*
X1269761904Y-1080359580D02*
X1269714285Y-1080407200D01*
X1269714285Y-1080407200D02*
X1269571428Y-1080454819D01*
X1269571428Y-1080454819D02*
X1269476190Y-1080454819D01*
X1269476190Y-1080454819D02*
X1269333333Y-1080407200D01*
X1269333333Y-1080407200D02*
X1269238095Y-1080311961D01*
X1269238095Y-1080311961D02*
X1269190476Y-1080216723D01*
X1269190476Y-1080216723D02*
X1269142857Y-1080026247D01*
X1269142857Y-1080026247D02*
X1269142857Y-1079883390D01*
X1269142857Y-1079883390D02*
X1269190476Y-1079692914D01*
X1269190476Y-1079692914D02*
X1269238095Y-1079597676D01*
X1269238095Y-1079597676D02*
X1269333333Y-1079502438D01*
X1269333333Y-1079502438D02*
X1269476190Y-1079454819D01*
X1269476190Y-1079454819D02*
X1269571428Y-1079454819D01*
X1269571428Y-1079454819D02*
X1269714285Y-1079502438D01*
X1269714285Y-1079502438D02*
X1269761904Y-1079550057D01*
X1270333333Y-1080454819D02*
X1270238095Y-1080407200D01*
X1270238095Y-1080407200D02*
X1270190476Y-1080359580D01*
X1270190476Y-1080359580D02*
X1270142857Y-1080264342D01*
X1270142857Y-1080264342D02*
X1270142857Y-1079978628D01*
X1270142857Y-1079978628D02*
X1270190476Y-1079883390D01*
X1270190476Y-1079883390D02*
X1270238095Y-1079835771D01*
X1270238095Y-1079835771D02*
X1270333333Y-1079788152D01*
X1270333333Y-1079788152D02*
X1270476190Y-1079788152D01*
X1270476190Y-1079788152D02*
X1270571428Y-1079835771D01*
X1270571428Y-1079835771D02*
X1270619047Y-1079883390D01*
X1270619047Y-1079883390D02*
X1270666666Y-1079978628D01*
X1270666666Y-1079978628D02*
X1270666666Y-1080264342D01*
X1270666666Y-1080264342D02*
X1270619047Y-1080359580D01*
X1270619047Y-1080359580D02*
X1270571428Y-1080407200D01*
X1270571428Y-1080407200D02*
X1270476190Y-1080454819D01*
X1270476190Y-1080454819D02*
X1270333333Y-1080454819D01*
X1271095238Y-1079788152D02*
X1271095238Y-1080454819D01*
X1271095238Y-1079883390D02*
X1271142857Y-1079835771D01*
X1271142857Y-1079835771D02*
X1271238095Y-1079788152D01*
X1271238095Y-1079788152D02*
X1271380952Y-1079788152D01*
X1271380952Y-1079788152D02*
X1271476190Y-1079835771D01*
X1271476190Y-1079835771D02*
X1271523809Y-1079931009D01*
X1271523809Y-1079931009D02*
X1271523809Y-1080454819D01*
X1272000000Y-1079788152D02*
X1272000000Y-1080454819D01*
X1272000000Y-1079883390D02*
X1272047619Y-1079835771D01*
X1272047619Y-1079835771D02*
X1272142857Y-1079788152D01*
X1272142857Y-1079788152D02*
X1272285714Y-1079788152D01*
X1272285714Y-1079788152D02*
X1272380952Y-1079835771D01*
X1272380952Y-1079835771D02*
X1272428571Y-1079931009D01*
X1272428571Y-1079931009D02*
X1272428571Y-1080454819D01*
X1272666667Y-1080550057D02*
X1273428571Y-1080550057D01*
X1273857143Y-1079454819D02*
X1273952381Y-1079454819D01*
X1273952381Y-1079454819D02*
X1274047619Y-1079502438D01*
X1274047619Y-1079502438D02*
X1274095238Y-1079550057D01*
X1274095238Y-1079550057D02*
X1274142857Y-1079645295D01*
X1274142857Y-1079645295D02*
X1274190476Y-1079835771D01*
X1274190476Y-1079835771D02*
X1274190476Y-1080073866D01*
X1274190476Y-1080073866D02*
X1274142857Y-1080264342D01*
X1274142857Y-1080264342D02*
X1274095238Y-1080359580D01*
X1274095238Y-1080359580D02*
X1274047619Y-1080407200D01*
X1274047619Y-1080407200D02*
X1273952381Y-1080454819D01*
X1273952381Y-1080454819D02*
X1273857143Y-1080454819D01*
X1273857143Y-1080454819D02*
X1273761905Y-1080407200D01*
X1273761905Y-1080407200D02*
X1273714286Y-1080359580D01*
X1273714286Y-1080359580D02*
X1273666667Y-1080264342D01*
X1273666667Y-1080264342D02*
X1273619048Y-1080073866D01*
X1273619048Y-1080073866D02*
X1273619048Y-1079835771D01*
X1273619048Y-1079835771D02*
X1273666667Y-1079645295D01*
X1273666667Y-1079645295D02*
X1273714286Y-1079550057D01*
X1273714286Y-1079550057D02*
X1273761905Y-1079502438D01*
X1273761905Y-1079502438D02*
X1273857143Y-1079454819D01*
X1275142857Y-1080454819D02*
X1274571429Y-1080454819D01*
X1274857143Y-1080454819D02*
X1274857143Y-1079454819D01*
X1274857143Y-1079454819D02*
X1274761905Y-1079597676D01*
X1274761905Y-1079597676D02*
X1274666667Y-1079692914D01*
X1274666667Y-1079692914D02*
X1274571429Y-1079740533D01*
X1275476191Y-1080454819D02*
X1276000000Y-1079788152D01*
X1275476191Y-1079788152D02*
X1276000000Y-1080454819D01*
X1276571429Y-1079454819D02*
X1276666667Y-1079454819D01*
X1276666667Y-1079454819D02*
X1276761905Y-1079502438D01*
X1276761905Y-1079502438D02*
X1276809524Y-1079550057D01*
X1276809524Y-1079550057D02*
X1276857143Y-1079645295D01*
X1276857143Y-1079645295D02*
X1276904762Y-1079835771D01*
X1276904762Y-1079835771D02*
X1276904762Y-1080073866D01*
X1276904762Y-1080073866D02*
X1276857143Y-1080264342D01*
X1276857143Y-1080264342D02*
X1276809524Y-1080359580D01*
X1276809524Y-1080359580D02*
X1276761905Y-1080407200D01*
X1276761905Y-1080407200D02*
X1276666667Y-1080454819D01*
X1276666667Y-1080454819D02*
X1276571429Y-1080454819D01*
X1276571429Y-1080454819D02*
X1276476191Y-1080407200D01*
X1276476191Y-1080407200D02*
X1276428572Y-1080359580D01*
X1276428572Y-1080359580D02*
X1276380953Y-1080264342D01*
X1276380953Y-1080264342D02*
X1276333334Y-1080073866D01*
X1276333334Y-1080073866D02*
X1276333334Y-1079835771D01*
X1276333334Y-1079835771D02*
X1276380953Y-1079645295D01*
X1276380953Y-1079645295D02*
X1276428572Y-1079550057D01*
X1276428572Y-1079550057D02*
X1276476191Y-1079502438D01*
X1276476191Y-1079502438D02*
X1276571429Y-1079454819D01*
X1277476191Y-1079883390D02*
X1277380953Y-1079835771D01*
X1277380953Y-1079835771D02*
X1277333334Y-1079788152D01*
X1277333334Y-1079788152D02*
X1277285715Y-1079692914D01*
X1277285715Y-1079692914D02*
X1277285715Y-1079645295D01*
X1277285715Y-1079645295D02*
X1277333334Y-1079550057D01*
X1277333334Y-1079550057D02*
X1277380953Y-1079502438D01*
X1277380953Y-1079502438D02*
X1277476191Y-1079454819D01*
X1277476191Y-1079454819D02*
X1277666667Y-1079454819D01*
X1277666667Y-1079454819D02*
X1277761905Y-1079502438D01*
X1277761905Y-1079502438D02*
X1277809524Y-1079550057D01*
X1277809524Y-1079550057D02*
X1277857143Y-1079645295D01*
X1277857143Y-1079645295D02*
X1277857143Y-1079692914D01*
X1277857143Y-1079692914D02*
X1277809524Y-1079788152D01*
X1277809524Y-1079788152D02*
X1277761905Y-1079835771D01*
X1277761905Y-1079835771D02*
X1277666667Y-1079883390D01*
X1277666667Y-1079883390D02*
X1277476191Y-1079883390D01*
X1277476191Y-1079883390D02*
X1277380953Y-1079931009D01*
X1277380953Y-1079931009D02*
X1277333334Y-1079978628D01*
X1277333334Y-1079978628D02*
X1277285715Y-1080073866D01*
X1277285715Y-1080073866D02*
X1277285715Y-1080264342D01*
X1277285715Y-1080264342D02*
X1277333334Y-1080359580D01*
X1277333334Y-1080359580D02*
X1277380953Y-1080407200D01*
X1277380953Y-1080407200D02*
X1277476191Y-1080454819D01*
X1277476191Y-1080454819D02*
X1277666667Y-1080454819D01*
X1277666667Y-1080454819D02*
X1277761905Y-1080407200D01*
X1277761905Y-1080407200D02*
X1277809524Y-1080359580D01*
X1277809524Y-1080359580D02*
X1277857143Y-1080264342D01*
X1277857143Y-1080264342D02*
X1277857143Y-1080073866D01*
X1277857143Y-1080073866D02*
X1277809524Y-1079978628D01*
X1277809524Y-1079978628D02*
X1277761905Y-1079931009D01*
X1277761905Y-1079931009D02*
X1277666667Y-1079883390D01*
D11*
X1305114644Y-1062593169D02*
X1305472276Y-1063129617D01*
X1305472276Y-1062593169D02*
X1305114644Y-1063129617D01*
X1305676637Y-1063129617D02*
X1305676637Y-1062593169D01*
X1305906543Y-1062976346D02*
X1306161995Y-1062976346D01*
X1305855453Y-1063129617D02*
X1306034269Y-1062593169D01*
X1306034269Y-1062593169D02*
X1306213085Y-1063129617D01*
X1306494082Y-1062593169D02*
X1306596262Y-1062593169D01*
X1306596262Y-1062593169D02*
X1306647353Y-1062618714D01*
X1306647353Y-1062618714D02*
X1306698443Y-1062669804D01*
X1306698443Y-1062669804D02*
X1306723988Y-1062771985D01*
X1306723988Y-1062771985D02*
X1306723988Y-1062950801D01*
X1306723988Y-1062950801D02*
X1306698443Y-1063052981D01*
X1306698443Y-1063052981D02*
X1306647353Y-1063104072D01*
X1306647353Y-1063104072D02*
X1306596262Y-1063129617D01*
X1306596262Y-1063129617D02*
X1306494082Y-1063129617D01*
X1306494082Y-1063129617D02*
X1306442992Y-1063104072D01*
X1306442992Y-1063104072D02*
X1306391901Y-1063052981D01*
X1306391901Y-1063052981D02*
X1306366356Y-1062950801D01*
X1306366356Y-1062950801D02*
X1306366356Y-1062771985D01*
X1306366356Y-1062771985D02*
X1306391901Y-1062669804D01*
X1306391901Y-1062669804D02*
X1306442992Y-1062618714D01*
X1306442992Y-1062618714D02*
X1306494082Y-1062593169D01*
X1306953894Y-1062925256D02*
X1307362617Y-1062925256D01*
X1307618068Y-1062848620D02*
X1307796884Y-1062848620D01*
X1307873520Y-1063129617D02*
X1307618068Y-1063129617D01*
X1307618068Y-1063129617D02*
X1307618068Y-1062593169D01*
X1307618068Y-1062593169D02*
X1307873520Y-1062593169D01*
X1308077881Y-1063104072D02*
X1308154517Y-1063129617D01*
X1308154517Y-1063129617D02*
X1308282242Y-1063129617D01*
X1308282242Y-1063129617D02*
X1308333333Y-1063104072D01*
X1308333333Y-1063104072D02*
X1308358878Y-1063078526D01*
X1308358878Y-1063078526D02*
X1308384423Y-1063027436D01*
X1308384423Y-1063027436D02*
X1308384423Y-1062976346D01*
X1308384423Y-1062976346D02*
X1308358878Y-1062925256D01*
X1308358878Y-1062925256D02*
X1308333333Y-1062899710D01*
X1308333333Y-1062899710D02*
X1308282242Y-1062874165D01*
X1308282242Y-1062874165D02*
X1308180062Y-1062848620D01*
X1308180062Y-1062848620D02*
X1308128971Y-1062823075D01*
X1308128971Y-1062823075D02*
X1308103426Y-1062797530D01*
X1308103426Y-1062797530D02*
X1308077881Y-1062746440D01*
X1308077881Y-1062746440D02*
X1308077881Y-1062695349D01*
X1308077881Y-1062695349D02*
X1308103426Y-1062644259D01*
X1308103426Y-1062644259D02*
X1308128971Y-1062618714D01*
X1308128971Y-1062618714D02*
X1308180062Y-1062593169D01*
X1308180062Y-1062593169D02*
X1308307787Y-1062593169D01*
X1308307787Y-1062593169D02*
X1308384423Y-1062618714D01*
X1308614329Y-1063129617D02*
X1308614329Y-1062593169D01*
X1308614329Y-1062593169D02*
X1308818690Y-1062593169D01*
X1308818690Y-1062593169D02*
X1308869781Y-1062618714D01*
X1308869781Y-1062618714D02*
X1308895326Y-1062644259D01*
X1308895326Y-1062644259D02*
X1308920871Y-1062695349D01*
X1308920871Y-1062695349D02*
X1308920871Y-1062771985D01*
X1308920871Y-1062771985D02*
X1308895326Y-1062823075D01*
X1308895326Y-1062823075D02*
X1308869781Y-1062848620D01*
X1308869781Y-1062848620D02*
X1308818690Y-1062874165D01*
X1308818690Y-1062874165D02*
X1308614329Y-1062874165D01*
X1309099687Y-1062593169D02*
X1309431774Y-1062593169D01*
X1309431774Y-1062593169D02*
X1309252958Y-1062797530D01*
X1309252958Y-1062797530D02*
X1309329593Y-1062797530D01*
X1309329593Y-1062797530D02*
X1309380684Y-1062823075D01*
X1309380684Y-1062823075D02*
X1309406229Y-1062848620D01*
X1309406229Y-1062848620D02*
X1309431774Y-1062899710D01*
X1309431774Y-1062899710D02*
X1309431774Y-1063027436D01*
X1309431774Y-1063027436D02*
X1309406229Y-1063078526D01*
X1309406229Y-1063078526D02*
X1309380684Y-1063104072D01*
X1309380684Y-1063104072D02*
X1309329593Y-1063129617D01*
X1309329593Y-1063129617D02*
X1309176322Y-1063129617D01*
X1309176322Y-1063129617D02*
X1309125232Y-1063104072D01*
X1309125232Y-1063104072D02*
X1309099687Y-1063078526D01*
X1309636135Y-1062644259D02*
X1309661680Y-1062618714D01*
X1309661680Y-1062618714D02*
X1309712771Y-1062593169D01*
X1309712771Y-1062593169D02*
X1309840496Y-1062593169D01*
X1309840496Y-1062593169D02*
X1309891587Y-1062618714D01*
X1309891587Y-1062618714D02*
X1309917132Y-1062644259D01*
X1309917132Y-1062644259D02*
X1309942677Y-1062695349D01*
X1309942677Y-1062695349D02*
X1309942677Y-1062746440D01*
X1309942677Y-1062746440D02*
X1309917132Y-1062823075D01*
X1309917132Y-1062823075D02*
X1309610590Y-1063129617D01*
X1309610590Y-1063129617D02*
X1309942677Y-1063129617D01*
X1310172583Y-1062925256D02*
X1310581306Y-1062925256D01*
X1311143299Y-1063078526D02*
X1311117754Y-1063104072D01*
X1311117754Y-1063104072D02*
X1311041118Y-1063129617D01*
X1311041118Y-1063129617D02*
X1310990028Y-1063129617D01*
X1310990028Y-1063129617D02*
X1310913393Y-1063104072D01*
X1310913393Y-1063104072D02*
X1310862302Y-1063052981D01*
X1310862302Y-1063052981D02*
X1310836757Y-1063001891D01*
X1310836757Y-1063001891D02*
X1310811212Y-1062899710D01*
X1310811212Y-1062899710D02*
X1310811212Y-1062823075D01*
X1310811212Y-1062823075D02*
X1310836757Y-1062720894D01*
X1310836757Y-1062720894D02*
X1310862302Y-1062669804D01*
X1310862302Y-1062669804D02*
X1310913393Y-1062618714D01*
X1310913393Y-1062618714D02*
X1310990028Y-1062593169D01*
X1310990028Y-1062593169D02*
X1311041118Y-1062593169D01*
X1311041118Y-1062593169D02*
X1311117754Y-1062618714D01*
X1311117754Y-1062618714D02*
X1311143299Y-1062644259D01*
X1311322115Y-1062593169D02*
X1311654202Y-1062593169D01*
X1311654202Y-1062593169D02*
X1311475386Y-1062797530D01*
X1311475386Y-1062797530D02*
X1311552021Y-1062797530D01*
X1311552021Y-1062797530D02*
X1311603112Y-1062823075D01*
X1311603112Y-1062823075D02*
X1311628657Y-1062848620D01*
X1311628657Y-1062848620D02*
X1311654202Y-1062899710D01*
X1311654202Y-1062899710D02*
X1311654202Y-1063027436D01*
X1311654202Y-1063027436D02*
X1311628657Y-1063078526D01*
X1311628657Y-1063078526D02*
X1311603112Y-1063104072D01*
X1311603112Y-1063104072D02*
X1311552021Y-1063129617D01*
X1311552021Y-1063129617D02*
X1311398750Y-1063129617D01*
X1311398750Y-1063129617D02*
X1311347660Y-1063104072D01*
X1311347660Y-1063104072D02*
X1311322115Y-1063078526D01*
X1311884108Y-1062925256D02*
X1312292831Y-1062925256D01*
X1312522737Y-1063104072D02*
X1312599373Y-1063129617D01*
X1312599373Y-1063129617D02*
X1312727098Y-1063129617D01*
X1312727098Y-1063129617D02*
X1312778189Y-1063104072D01*
X1312778189Y-1063104072D02*
X1312803734Y-1063078526D01*
X1312803734Y-1063078526D02*
X1312829279Y-1063027436D01*
X1312829279Y-1063027436D02*
X1312829279Y-1062976346D01*
X1312829279Y-1062976346D02*
X1312803734Y-1062925256D01*
X1312803734Y-1062925256D02*
X1312778189Y-1062899710D01*
X1312778189Y-1062899710D02*
X1312727098Y-1062874165D01*
X1312727098Y-1062874165D02*
X1312624918Y-1062848620D01*
X1312624918Y-1062848620D02*
X1312573827Y-1062823075D01*
X1312573827Y-1062823075D02*
X1312548282Y-1062797530D01*
X1312548282Y-1062797530D02*
X1312522737Y-1062746440D01*
X1312522737Y-1062746440D02*
X1312522737Y-1062695349D01*
X1312522737Y-1062695349D02*
X1312548282Y-1062644259D01*
X1312548282Y-1062644259D02*
X1312573827Y-1062618714D01*
X1312573827Y-1062618714D02*
X1312624918Y-1062593169D01*
X1312624918Y-1062593169D02*
X1312752643Y-1062593169D01*
X1312752643Y-1062593169D02*
X1312829279Y-1062618714D01*
X1313059185Y-1063129617D02*
X1313059185Y-1062593169D01*
X1313059185Y-1062593169D02*
X1313238001Y-1062976346D01*
X1313238001Y-1062976346D02*
X1313416817Y-1062593169D01*
X1313416817Y-1062593169D02*
X1313416817Y-1063129617D01*
X1313672268Y-1063129617D02*
X1313672268Y-1062593169D01*
X1313672268Y-1062593169D02*
X1313799994Y-1062593169D01*
X1313799994Y-1062593169D02*
X1313876629Y-1062618714D01*
X1313876629Y-1062618714D02*
X1313927720Y-1062669804D01*
X1313927720Y-1062669804D02*
X1313953265Y-1062720894D01*
X1313953265Y-1062720894D02*
X1313978810Y-1062823075D01*
X1313978810Y-1062823075D02*
X1313978810Y-1062899710D01*
X1313978810Y-1062899710D02*
X1313953265Y-1063001891D01*
X1313953265Y-1063001891D02*
X1313927720Y-1063052981D01*
X1313927720Y-1063052981D02*
X1313876629Y-1063104072D01*
X1313876629Y-1063104072D02*
X1313799994Y-1063129617D01*
X1313799994Y-1063129617D02*
X1313672268Y-1063129617D01*
D10*
X1286372381Y-1071281200D02*
X1286515238Y-1071328819D01*
X1286515238Y-1071328819D02*
X1286753333Y-1071328819D01*
X1286753333Y-1071328819D02*
X1286848571Y-1071281200D01*
X1286848571Y-1071281200D02*
X1286896190Y-1071233580D01*
X1286896190Y-1071233580D02*
X1286943809Y-1071138342D01*
X1286943809Y-1071138342D02*
X1286943809Y-1071043104D01*
X1286943809Y-1071043104D02*
X1286896190Y-1070947866D01*
X1286896190Y-1070947866D02*
X1286848571Y-1070900247D01*
X1286848571Y-1070900247D02*
X1286753333Y-1070852628D01*
X1286753333Y-1070852628D02*
X1286562857Y-1070805009D01*
X1286562857Y-1070805009D02*
X1286467619Y-1070757390D01*
X1286467619Y-1070757390D02*
X1286420000Y-1070709771D01*
X1286420000Y-1070709771D02*
X1286372381Y-1070614533D01*
X1286372381Y-1070614533D02*
X1286372381Y-1070519295D01*
X1286372381Y-1070519295D02*
X1286420000Y-1070424057D01*
X1286420000Y-1070424057D02*
X1286467619Y-1070376438D01*
X1286467619Y-1070376438D02*
X1286562857Y-1070328819D01*
X1286562857Y-1070328819D02*
X1286800952Y-1070328819D01*
X1286800952Y-1070328819D02*
X1286943809Y-1070376438D01*
X1287277143Y-1070328819D02*
X1287515238Y-1071328819D01*
X1287515238Y-1071328819D02*
X1287705714Y-1070614533D01*
X1287705714Y-1070614533D02*
X1287896190Y-1071328819D01*
X1287896190Y-1071328819D02*
X1288134286Y-1070328819D01*
X1288277143Y-1071424057D02*
X1289039047Y-1071424057D01*
X1289277143Y-1071328819D02*
X1289277143Y-1070328819D01*
X1289277143Y-1070328819D02*
X1289658095Y-1070328819D01*
X1289658095Y-1070328819D02*
X1289753333Y-1070376438D01*
X1289753333Y-1070376438D02*
X1289800952Y-1070424057D01*
X1289800952Y-1070424057D02*
X1289848571Y-1070519295D01*
X1289848571Y-1070519295D02*
X1289848571Y-1070662152D01*
X1289848571Y-1070662152D02*
X1289800952Y-1070757390D01*
X1289800952Y-1070757390D02*
X1289753333Y-1070805009D01*
X1289753333Y-1070805009D02*
X1289658095Y-1070852628D01*
X1289658095Y-1070852628D02*
X1289277143Y-1070852628D01*
X1290705714Y-1070662152D02*
X1290705714Y-1071328819D01*
X1290277143Y-1070662152D02*
X1290277143Y-1071185961D01*
X1290277143Y-1071185961D02*
X1290324762Y-1071281200D01*
X1290324762Y-1071281200D02*
X1290420000Y-1071328819D01*
X1290420000Y-1071328819D02*
X1290562857Y-1071328819D01*
X1290562857Y-1071328819D02*
X1290658095Y-1071281200D01*
X1290658095Y-1071281200D02*
X1290705714Y-1071233580D01*
X1291134286Y-1071281200D02*
X1291229524Y-1071328819D01*
X1291229524Y-1071328819D02*
X1291420000Y-1071328819D01*
X1291420000Y-1071328819D02*
X1291515238Y-1071281200D01*
X1291515238Y-1071281200D02*
X1291562857Y-1071185961D01*
X1291562857Y-1071185961D02*
X1291562857Y-1071138342D01*
X1291562857Y-1071138342D02*
X1291515238Y-1071043104D01*
X1291515238Y-1071043104D02*
X1291420000Y-1070995485D01*
X1291420000Y-1070995485D02*
X1291277143Y-1070995485D01*
X1291277143Y-1070995485D02*
X1291181905Y-1070947866D01*
X1291181905Y-1070947866D02*
X1291134286Y-1070852628D01*
X1291134286Y-1070852628D02*
X1291134286Y-1070805009D01*
X1291134286Y-1070805009D02*
X1291181905Y-1070709771D01*
X1291181905Y-1070709771D02*
X1291277143Y-1070662152D01*
X1291277143Y-1070662152D02*
X1291420000Y-1070662152D01*
X1291420000Y-1070662152D02*
X1291515238Y-1070709771D01*
X1291991429Y-1071328819D02*
X1291991429Y-1070328819D01*
X1292420000Y-1071328819D02*
X1292420000Y-1070805009D01*
X1292420000Y-1070805009D02*
X1292372381Y-1070709771D01*
X1292372381Y-1070709771D02*
X1292277143Y-1070662152D01*
X1292277143Y-1070662152D02*
X1292134286Y-1070662152D01*
X1292134286Y-1070662152D02*
X1292039048Y-1070709771D01*
X1292039048Y-1070709771D02*
X1291991429Y-1070757390D01*
X1288086667Y-1055533200D02*
X1288229524Y-1055580819D01*
X1288229524Y-1055580819D02*
X1288467619Y-1055580819D01*
X1288467619Y-1055580819D02*
X1288562857Y-1055533200D01*
X1288562857Y-1055533200D02*
X1288610476Y-1055485580D01*
X1288610476Y-1055485580D02*
X1288658095Y-1055390342D01*
X1288658095Y-1055390342D02*
X1288658095Y-1055295104D01*
X1288658095Y-1055295104D02*
X1288610476Y-1055199866D01*
X1288610476Y-1055199866D02*
X1288562857Y-1055152247D01*
X1288562857Y-1055152247D02*
X1288467619Y-1055104628D01*
X1288467619Y-1055104628D02*
X1288277143Y-1055057009D01*
X1288277143Y-1055057009D02*
X1288181905Y-1055009390D01*
X1288181905Y-1055009390D02*
X1288134286Y-1054961771D01*
X1288134286Y-1054961771D02*
X1288086667Y-1054866533D01*
X1288086667Y-1054866533D02*
X1288086667Y-1054771295D01*
X1288086667Y-1054771295D02*
X1288134286Y-1054676057D01*
X1288134286Y-1054676057D02*
X1288181905Y-1054628438D01*
X1288181905Y-1054628438D02*
X1288277143Y-1054580819D01*
X1288277143Y-1054580819D02*
X1288515238Y-1054580819D01*
X1288515238Y-1054580819D02*
X1288658095Y-1054628438D01*
X1288991429Y-1054580819D02*
X1289229524Y-1055580819D01*
X1289229524Y-1055580819D02*
X1289420000Y-1054866533D01*
X1289420000Y-1054866533D02*
X1289610476Y-1055580819D01*
X1289610476Y-1055580819D02*
X1289848572Y-1054580819D01*
X1290134286Y-1054580819D02*
X1290800952Y-1054580819D01*
X1290800952Y-1054580819D02*
X1290372381Y-1055580819D01*
X1340714285Y-1062104819D02*
X1340714285Y-1061104819D01*
X1340714285Y-1061104819D02*
X1341047618Y-1061819104D01*
X1341047618Y-1061819104D02*
X1341380951Y-1061104819D01*
X1341380951Y-1061104819D02*
X1341380951Y-1062104819D01*
X1341999999Y-1062104819D02*
X1341904761Y-1062057200D01*
X1341904761Y-1062057200D02*
X1341857142Y-1062009580D01*
X1341857142Y-1062009580D02*
X1341809523Y-1061914342D01*
X1341809523Y-1061914342D02*
X1341809523Y-1061628628D01*
X1341809523Y-1061628628D02*
X1341857142Y-1061533390D01*
X1341857142Y-1061533390D02*
X1341904761Y-1061485771D01*
X1341904761Y-1061485771D02*
X1341999999Y-1061438152D01*
X1341999999Y-1061438152D02*
X1342142856Y-1061438152D01*
X1342142856Y-1061438152D02*
X1342238094Y-1061485771D01*
X1342238094Y-1061485771D02*
X1342285713Y-1061533390D01*
X1342285713Y-1061533390D02*
X1342333332Y-1061628628D01*
X1342333332Y-1061628628D02*
X1342333332Y-1061914342D01*
X1342333332Y-1061914342D02*
X1342285713Y-1062009580D01*
X1342285713Y-1062009580D02*
X1342238094Y-1062057200D01*
X1342238094Y-1062057200D02*
X1342142856Y-1062104819D01*
X1342142856Y-1062104819D02*
X1341999999Y-1062104819D01*
X1343190475Y-1061438152D02*
X1343190475Y-1062104819D01*
X1342761904Y-1061438152D02*
X1342761904Y-1061961961D01*
X1342761904Y-1061961961D02*
X1342809523Y-1062057200D01*
X1342809523Y-1062057200D02*
X1342904761Y-1062104819D01*
X1342904761Y-1062104819D02*
X1343047618Y-1062104819D01*
X1343047618Y-1062104819D02*
X1343142856Y-1062057200D01*
X1343142856Y-1062057200D02*
X1343190475Y-1062009580D01*
X1343666666Y-1061438152D02*
X1343666666Y-1062104819D01*
X1343666666Y-1061533390D02*
X1343714285Y-1061485771D01*
X1343714285Y-1061485771D02*
X1343809523Y-1061438152D01*
X1343809523Y-1061438152D02*
X1343952380Y-1061438152D01*
X1343952380Y-1061438152D02*
X1344047618Y-1061485771D01*
X1344047618Y-1061485771D02*
X1344095237Y-1061581009D01*
X1344095237Y-1061581009D02*
X1344095237Y-1062104819D01*
X1344428571Y-1061438152D02*
X1344809523Y-1061438152D01*
X1344571428Y-1061104819D02*
X1344571428Y-1061961961D01*
X1344571428Y-1061961961D02*
X1344619047Y-1062057200D01*
X1344619047Y-1062057200D02*
X1344714285Y-1062104819D01*
X1344714285Y-1062104819D02*
X1344809523Y-1062104819D01*
X1345142857Y-1062104819D02*
X1345142857Y-1061438152D01*
X1345142857Y-1061104819D02*
X1345095238Y-1061152438D01*
X1345095238Y-1061152438D02*
X1345142857Y-1061200057D01*
X1345142857Y-1061200057D02*
X1345190476Y-1061152438D01*
X1345190476Y-1061152438D02*
X1345142857Y-1061104819D01*
X1345142857Y-1061104819D02*
X1345142857Y-1061200057D01*
X1345619047Y-1061438152D02*
X1345619047Y-1062104819D01*
X1345619047Y-1061533390D02*
X1345666666Y-1061485771D01*
X1345666666Y-1061485771D02*
X1345761904Y-1061438152D01*
X1345761904Y-1061438152D02*
X1345904761Y-1061438152D01*
X1345904761Y-1061438152D02*
X1345999999Y-1061485771D01*
X1345999999Y-1061485771D02*
X1346047618Y-1061581009D01*
X1346047618Y-1061581009D02*
X1346047618Y-1062104819D01*
X1346952380Y-1061438152D02*
X1346952380Y-1062247676D01*
X1346952380Y-1062247676D02*
X1346904761Y-1062342914D01*
X1346904761Y-1062342914D02*
X1346857142Y-1062390533D01*
X1346857142Y-1062390533D02*
X1346761904Y-1062438152D01*
X1346761904Y-1062438152D02*
X1346619047Y-1062438152D01*
X1346619047Y-1062438152D02*
X1346523809Y-1062390533D01*
X1346952380Y-1062057200D02*
X1346857142Y-1062104819D01*
X1346857142Y-1062104819D02*
X1346666666Y-1062104819D01*
X1346666666Y-1062104819D02*
X1346571428Y-1062057200D01*
X1346571428Y-1062057200D02*
X1346523809Y-1062009580D01*
X1346523809Y-1062009580D02*
X1346476190Y-1061914342D01*
X1346476190Y-1061914342D02*
X1346476190Y-1061628628D01*
X1346476190Y-1061628628D02*
X1346523809Y-1061533390D01*
X1346523809Y-1061533390D02*
X1346571428Y-1061485771D01*
X1346571428Y-1061485771D02*
X1346666666Y-1061438152D01*
X1346666666Y-1061438152D02*
X1346857142Y-1061438152D01*
X1346857142Y-1061438152D02*
X1346952380Y-1061485771D01*
X1347428571Y-1062104819D02*
X1347428571Y-1061104819D01*
X1347428571Y-1061581009D02*
X1347999999Y-1061581009D01*
X1347999999Y-1062104819D02*
X1347999999Y-1061104819D01*
X1348619047Y-1062104819D02*
X1348523809Y-1062057200D01*
X1348523809Y-1062057200D02*
X1348476190Y-1062009580D01*
X1348476190Y-1062009580D02*
X1348428571Y-1061914342D01*
X1348428571Y-1061914342D02*
X1348428571Y-1061628628D01*
X1348428571Y-1061628628D02*
X1348476190Y-1061533390D01*
X1348476190Y-1061533390D02*
X1348523809Y-1061485771D01*
X1348523809Y-1061485771D02*
X1348619047Y-1061438152D01*
X1348619047Y-1061438152D02*
X1348761904Y-1061438152D01*
X1348761904Y-1061438152D02*
X1348857142Y-1061485771D01*
X1348857142Y-1061485771D02*
X1348904761Y-1061533390D01*
X1348904761Y-1061533390D02*
X1348952380Y-1061628628D01*
X1348952380Y-1061628628D02*
X1348952380Y-1061914342D01*
X1348952380Y-1061914342D02*
X1348904761Y-1062009580D01*
X1348904761Y-1062009580D02*
X1348857142Y-1062057200D01*
X1348857142Y-1062057200D02*
X1348761904Y-1062104819D01*
X1348761904Y-1062104819D02*
X1348619047Y-1062104819D01*
X1349523809Y-1062104819D02*
X1349428571Y-1062057200D01*
X1349428571Y-1062057200D02*
X1349380952Y-1061961961D01*
X1349380952Y-1061961961D02*
X1349380952Y-1061104819D01*
X1350285714Y-1062057200D02*
X1350190476Y-1062104819D01*
X1350190476Y-1062104819D02*
X1350000000Y-1062104819D01*
X1350000000Y-1062104819D02*
X1349904762Y-1062057200D01*
X1349904762Y-1062057200D02*
X1349857143Y-1061961961D01*
X1349857143Y-1061961961D02*
X1349857143Y-1061581009D01*
X1349857143Y-1061581009D02*
X1349904762Y-1061485771D01*
X1349904762Y-1061485771D02*
X1350000000Y-1061438152D01*
X1350000000Y-1061438152D02*
X1350190476Y-1061438152D01*
X1350190476Y-1061438152D02*
X1350285714Y-1061485771D01*
X1350285714Y-1061485771D02*
X1350333333Y-1061581009D01*
X1350333333Y-1061581009D02*
X1350333333Y-1061676247D01*
X1350333333Y-1061676247D02*
X1349857143Y-1061771485D01*
X1344738095Y-1057954819D02*
X1344738095Y-1056954819D01*
X1344738095Y-1057431009D02*
X1345309523Y-1057431009D01*
X1345309523Y-1057954819D02*
X1345309523Y-1056954819D01*
X1346309523Y-1057954819D02*
X1345738095Y-1057954819D01*
X1346023809Y-1057954819D02*
X1346023809Y-1056954819D01*
X1346023809Y-1056954819D02*
X1345928571Y-1057097676D01*
X1345928571Y-1057097676D02*
X1345833333Y-1057192914D01*
X1345833333Y-1057192914D02*
X1345738095Y-1057240533D01*
X1285952381Y-1093281200D02*
X1286095238Y-1093328819D01*
X1286095238Y-1093328819D02*
X1286333333Y-1093328819D01*
X1286333333Y-1093328819D02*
X1286428571Y-1093281200D01*
X1286428571Y-1093281200D02*
X1286476190Y-1093233580D01*
X1286476190Y-1093233580D02*
X1286523809Y-1093138342D01*
X1286523809Y-1093138342D02*
X1286523809Y-1093043104D01*
X1286523809Y-1093043104D02*
X1286476190Y-1092947866D01*
X1286476190Y-1092947866D02*
X1286428571Y-1092900247D01*
X1286428571Y-1092900247D02*
X1286333333Y-1092852628D01*
X1286333333Y-1092852628D02*
X1286142857Y-1092805009D01*
X1286142857Y-1092805009D02*
X1286047619Y-1092757390D01*
X1286047619Y-1092757390D02*
X1286000000Y-1092709771D01*
X1286000000Y-1092709771D02*
X1285952381Y-1092614533D01*
X1285952381Y-1092614533D02*
X1285952381Y-1092519295D01*
X1285952381Y-1092519295D02*
X1286000000Y-1092424057D01*
X1286000000Y-1092424057D02*
X1286047619Y-1092376438D01*
X1286047619Y-1092376438D02*
X1286142857Y-1092328819D01*
X1286142857Y-1092328819D02*
X1286380952Y-1092328819D01*
X1286380952Y-1092328819D02*
X1286523809Y-1092376438D01*
X1286857143Y-1092328819D02*
X1287095238Y-1093328819D01*
X1287095238Y-1093328819D02*
X1287285714Y-1092614533D01*
X1287285714Y-1092614533D02*
X1287476190Y-1093328819D01*
X1287476190Y-1093328819D02*
X1287714286Y-1092328819D01*
X1287857143Y-1093424057D02*
X1288619047Y-1093424057D01*
X1288857143Y-1093328819D02*
X1288857143Y-1092328819D01*
X1288857143Y-1092328819D02*
X1289238095Y-1092328819D01*
X1289238095Y-1092328819D02*
X1289333333Y-1092376438D01*
X1289333333Y-1092376438D02*
X1289380952Y-1092424057D01*
X1289380952Y-1092424057D02*
X1289428571Y-1092519295D01*
X1289428571Y-1092519295D02*
X1289428571Y-1092662152D01*
X1289428571Y-1092662152D02*
X1289380952Y-1092757390D01*
X1289380952Y-1092757390D02*
X1289333333Y-1092805009D01*
X1289333333Y-1092805009D02*
X1289238095Y-1092852628D01*
X1289238095Y-1092852628D02*
X1288857143Y-1092852628D01*
X1290285714Y-1092662152D02*
X1290285714Y-1093328819D01*
X1289857143Y-1092662152D02*
X1289857143Y-1093185961D01*
X1289857143Y-1093185961D02*
X1289904762Y-1093281200D01*
X1289904762Y-1093281200D02*
X1290000000Y-1093328819D01*
X1290000000Y-1093328819D02*
X1290142857Y-1093328819D01*
X1290142857Y-1093328819D02*
X1290238095Y-1093281200D01*
X1290238095Y-1093281200D02*
X1290285714Y-1093233580D01*
X1290714286Y-1093281200D02*
X1290809524Y-1093328819D01*
X1290809524Y-1093328819D02*
X1291000000Y-1093328819D01*
X1291000000Y-1093328819D02*
X1291095238Y-1093281200D01*
X1291095238Y-1093281200D02*
X1291142857Y-1093185961D01*
X1291142857Y-1093185961D02*
X1291142857Y-1093138342D01*
X1291142857Y-1093138342D02*
X1291095238Y-1093043104D01*
X1291095238Y-1093043104D02*
X1291000000Y-1092995485D01*
X1291000000Y-1092995485D02*
X1290857143Y-1092995485D01*
X1290857143Y-1092995485D02*
X1290761905Y-1092947866D01*
X1290761905Y-1092947866D02*
X1290714286Y-1092852628D01*
X1290714286Y-1092852628D02*
X1290714286Y-1092805009D01*
X1290714286Y-1092805009D02*
X1290761905Y-1092709771D01*
X1290761905Y-1092709771D02*
X1290857143Y-1092662152D01*
X1290857143Y-1092662152D02*
X1291000000Y-1092662152D01*
X1291000000Y-1092662152D02*
X1291095238Y-1092709771D01*
X1291571429Y-1093328819D02*
X1291571429Y-1092328819D01*
X1292000000Y-1093328819D02*
X1292000000Y-1092805009D01*
X1292000000Y-1092805009D02*
X1291952381Y-1092709771D01*
X1291952381Y-1092709771D02*
X1291857143Y-1092662152D01*
X1291857143Y-1092662152D02*
X1291714286Y-1092662152D01*
X1291714286Y-1092662152D02*
X1291619048Y-1092709771D01*
X1291619048Y-1092709771D02*
X1291571429Y-1092757390D01*
X1287666667Y-1077533200D02*
X1287809524Y-1077580819D01*
X1287809524Y-1077580819D02*
X1288047619Y-1077580819D01*
X1288047619Y-1077580819D02*
X1288142857Y-1077533200D01*
X1288142857Y-1077533200D02*
X1288190476Y-1077485580D01*
X1288190476Y-1077485580D02*
X1288238095Y-1077390342D01*
X1288238095Y-1077390342D02*
X1288238095Y-1077295104D01*
X1288238095Y-1077295104D02*
X1288190476Y-1077199866D01*
X1288190476Y-1077199866D02*
X1288142857Y-1077152247D01*
X1288142857Y-1077152247D02*
X1288047619Y-1077104628D01*
X1288047619Y-1077104628D02*
X1287857143Y-1077057009D01*
X1287857143Y-1077057009D02*
X1287761905Y-1077009390D01*
X1287761905Y-1077009390D02*
X1287714286Y-1076961771D01*
X1287714286Y-1076961771D02*
X1287666667Y-1076866533D01*
X1287666667Y-1076866533D02*
X1287666667Y-1076771295D01*
X1287666667Y-1076771295D02*
X1287714286Y-1076676057D01*
X1287714286Y-1076676057D02*
X1287761905Y-1076628438D01*
X1287761905Y-1076628438D02*
X1287857143Y-1076580819D01*
X1287857143Y-1076580819D02*
X1288095238Y-1076580819D01*
X1288095238Y-1076580819D02*
X1288238095Y-1076628438D01*
X1288571429Y-1076580819D02*
X1288809524Y-1077580819D01*
X1288809524Y-1077580819D02*
X1289000000Y-1076866533D01*
X1289000000Y-1076866533D02*
X1289190476Y-1077580819D01*
X1289190476Y-1077580819D02*
X1289428572Y-1076580819D01*
X1290238095Y-1076580819D02*
X1290047619Y-1076580819D01*
X1290047619Y-1076580819D02*
X1289952381Y-1076628438D01*
X1289952381Y-1076628438D02*
X1289904762Y-1076676057D01*
X1289904762Y-1076676057D02*
X1289809524Y-1076818914D01*
X1289809524Y-1076818914D02*
X1289761905Y-1077009390D01*
X1289761905Y-1077009390D02*
X1289761905Y-1077390342D01*
X1289761905Y-1077390342D02*
X1289809524Y-1077485580D01*
X1289809524Y-1077485580D02*
X1289857143Y-1077533200D01*
X1289857143Y-1077533200D02*
X1289952381Y-1077580819D01*
X1289952381Y-1077580819D02*
X1290142857Y-1077580819D01*
X1290142857Y-1077580819D02*
X1290238095Y-1077533200D01*
X1290238095Y-1077533200D02*
X1290285714Y-1077485580D01*
X1290285714Y-1077485580D02*
X1290333333Y-1077390342D01*
X1290333333Y-1077390342D02*
X1290333333Y-1077152247D01*
X1290333333Y-1077152247D02*
X1290285714Y-1077057009D01*
X1290285714Y-1077057009D02*
X1290238095Y-1077009390D01*
X1290238095Y-1077009390D02*
X1290142857Y-1076961771D01*
X1290142857Y-1076961771D02*
X1289952381Y-1076961771D01*
X1289952381Y-1076961771D02*
X1289857143Y-1077009390D01*
X1289857143Y-1077009390D02*
X1289809524Y-1077057009D01*
X1289809524Y-1077057009D02*
X1289761905Y-1077152247D01*
X1346071428Y-1080331009D02*
X1346214285Y-1080378628D01*
X1346214285Y-1080378628D02*
X1346261904Y-1080426247D01*
X1346261904Y-1080426247D02*
X1346309523Y-1080521485D01*
X1346309523Y-1080521485D02*
X1346309523Y-1080664342D01*
X1346309523Y-1080664342D02*
X1346261904Y-1080759580D01*
X1346261904Y-1080759580D02*
X1346214285Y-1080807200D01*
X1346214285Y-1080807200D02*
X1346119047Y-1080854819D01*
X1346119047Y-1080854819D02*
X1345738095Y-1080854819D01*
X1345738095Y-1080854819D02*
X1345738095Y-1079854819D01*
X1345738095Y-1079854819D02*
X1346071428Y-1079854819D01*
X1346071428Y-1079854819D02*
X1346166666Y-1079902438D01*
X1346166666Y-1079902438D02*
X1346214285Y-1079950057D01*
X1346214285Y-1079950057D02*
X1346261904Y-1080045295D01*
X1346261904Y-1080045295D02*
X1346261904Y-1080140533D01*
X1346261904Y-1080140533D02*
X1346214285Y-1080235771D01*
X1346214285Y-1080235771D02*
X1346166666Y-1080283390D01*
X1346166666Y-1080283390D02*
X1346071428Y-1080331009D01*
X1346071428Y-1080331009D02*
X1345738095Y-1080331009D01*
X1347166666Y-1080188152D02*
X1347166666Y-1080854819D01*
X1346738095Y-1080188152D02*
X1346738095Y-1080711961D01*
X1346738095Y-1080711961D02*
X1346785714Y-1080807200D01*
X1346785714Y-1080807200D02*
X1346880952Y-1080854819D01*
X1346880952Y-1080854819D02*
X1347023809Y-1080854819D01*
X1347023809Y-1080854819D02*
X1347119047Y-1080807200D01*
X1347119047Y-1080807200D02*
X1347166666Y-1080759580D01*
X1347547619Y-1080188152D02*
X1348071428Y-1080188152D01*
X1348071428Y-1080188152D02*
X1347547619Y-1080854819D01*
X1347547619Y-1080854819D02*
X1348071428Y-1080854819D01*
X1348357143Y-1080188152D02*
X1348880952Y-1080188152D01*
X1348880952Y-1080188152D02*
X1348357143Y-1080854819D01*
X1348357143Y-1080854819D02*
X1348880952Y-1080854819D01*
X1349642857Y-1080807200D02*
X1349547619Y-1080854819D01*
X1349547619Y-1080854819D02*
X1349357143Y-1080854819D01*
X1349357143Y-1080854819D02*
X1349261905Y-1080807200D01*
X1349261905Y-1080807200D02*
X1349214286Y-1080711961D01*
X1349214286Y-1080711961D02*
X1349214286Y-1080331009D01*
X1349214286Y-1080331009D02*
X1349261905Y-1080235771D01*
X1349261905Y-1080235771D02*
X1349357143Y-1080188152D01*
X1349357143Y-1080188152D02*
X1349547619Y-1080188152D01*
X1349547619Y-1080188152D02*
X1349642857Y-1080235771D01*
X1349642857Y-1080235771D02*
X1349690476Y-1080331009D01*
X1349690476Y-1080331009D02*
X1349690476Y-1080426247D01*
X1349690476Y-1080426247D02*
X1349214286Y-1080521485D01*
X1350119048Y-1080854819D02*
X1350119048Y-1080188152D01*
X1350119048Y-1080378628D02*
X1350166667Y-1080283390D01*
X1350166667Y-1080283390D02*
X1350214286Y-1080235771D01*
X1350214286Y-1080235771D02*
X1350309524Y-1080188152D01*
X1350309524Y-1080188152D02*
X1350404762Y-1080188152D01*
X1343809048Y-1070533866D02*
X1344570953Y-1070533866D01*
X1344190000Y-1070914819D02*
X1344190000Y-1070152914D01*
X1347119047Y-1068931009D02*
X1347261904Y-1068978628D01*
X1347261904Y-1068978628D02*
X1347309523Y-1069026247D01*
X1347309523Y-1069026247D02*
X1347357142Y-1069121485D01*
X1347357142Y-1069121485D02*
X1347357142Y-1069264342D01*
X1347357142Y-1069264342D02*
X1347309523Y-1069359580D01*
X1347309523Y-1069359580D02*
X1347261904Y-1069407200D01*
X1347261904Y-1069407200D02*
X1347166666Y-1069454819D01*
X1347166666Y-1069454819D02*
X1346785714Y-1069454819D01*
X1346785714Y-1069454819D02*
X1346785714Y-1068454819D01*
X1346785714Y-1068454819D02*
X1347119047Y-1068454819D01*
X1347119047Y-1068454819D02*
X1347214285Y-1068502438D01*
X1347214285Y-1068502438D02*
X1347261904Y-1068550057D01*
X1347261904Y-1068550057D02*
X1347309523Y-1068645295D01*
X1347309523Y-1068645295D02*
X1347309523Y-1068740533D01*
X1347309523Y-1068740533D02*
X1347261904Y-1068835771D01*
X1347261904Y-1068835771D02*
X1347214285Y-1068883390D01*
X1347214285Y-1068883390D02*
X1347119047Y-1068931009D01*
X1347119047Y-1068931009D02*
X1346785714Y-1068931009D01*
X1347690476Y-1068454819D02*
X1348357142Y-1068454819D01*
X1348357142Y-1068454819D02*
X1347690476Y-1069454819D01*
X1347690476Y-1069454819D02*
X1348357142Y-1069454819D01*
X1349261904Y-1069454819D02*
X1348690476Y-1069454819D01*
X1348976190Y-1069454819D02*
X1348976190Y-1068454819D01*
X1348976190Y-1068454819D02*
X1348880952Y-1068597676D01*
X1348880952Y-1068597676D02*
X1348785714Y-1068692914D01*
X1348785714Y-1068692914D02*
X1348690476Y-1068740533D01*
X1269214285Y-1093104819D02*
X1269214285Y-1092104819D01*
X1269214285Y-1092104819D02*
X1269547618Y-1092819104D01*
X1269547618Y-1092819104D02*
X1269880951Y-1092104819D01*
X1269880951Y-1092104819D02*
X1269880951Y-1093104819D01*
X1270499999Y-1093104819D02*
X1270404761Y-1093057200D01*
X1270404761Y-1093057200D02*
X1270357142Y-1093009580D01*
X1270357142Y-1093009580D02*
X1270309523Y-1092914342D01*
X1270309523Y-1092914342D02*
X1270309523Y-1092628628D01*
X1270309523Y-1092628628D02*
X1270357142Y-1092533390D01*
X1270357142Y-1092533390D02*
X1270404761Y-1092485771D01*
X1270404761Y-1092485771D02*
X1270499999Y-1092438152D01*
X1270499999Y-1092438152D02*
X1270642856Y-1092438152D01*
X1270642856Y-1092438152D02*
X1270738094Y-1092485771D01*
X1270738094Y-1092485771D02*
X1270785713Y-1092533390D01*
X1270785713Y-1092533390D02*
X1270833332Y-1092628628D01*
X1270833332Y-1092628628D02*
X1270833332Y-1092914342D01*
X1270833332Y-1092914342D02*
X1270785713Y-1093009580D01*
X1270785713Y-1093009580D02*
X1270738094Y-1093057200D01*
X1270738094Y-1093057200D02*
X1270642856Y-1093104819D01*
X1270642856Y-1093104819D02*
X1270499999Y-1093104819D01*
X1271690475Y-1092438152D02*
X1271690475Y-1093104819D01*
X1271261904Y-1092438152D02*
X1271261904Y-1092961961D01*
X1271261904Y-1092961961D02*
X1271309523Y-1093057200D01*
X1271309523Y-1093057200D02*
X1271404761Y-1093104819D01*
X1271404761Y-1093104819D02*
X1271547618Y-1093104819D01*
X1271547618Y-1093104819D02*
X1271642856Y-1093057200D01*
X1271642856Y-1093057200D02*
X1271690475Y-1093009580D01*
X1272166666Y-1092438152D02*
X1272166666Y-1093104819D01*
X1272166666Y-1092533390D02*
X1272214285Y-1092485771D01*
X1272214285Y-1092485771D02*
X1272309523Y-1092438152D01*
X1272309523Y-1092438152D02*
X1272452380Y-1092438152D01*
X1272452380Y-1092438152D02*
X1272547618Y-1092485771D01*
X1272547618Y-1092485771D02*
X1272595237Y-1092581009D01*
X1272595237Y-1092581009D02*
X1272595237Y-1093104819D01*
X1272928571Y-1092438152D02*
X1273309523Y-1092438152D01*
X1273071428Y-1092104819D02*
X1273071428Y-1092961961D01*
X1273071428Y-1092961961D02*
X1273119047Y-1093057200D01*
X1273119047Y-1093057200D02*
X1273214285Y-1093104819D01*
X1273214285Y-1093104819D02*
X1273309523Y-1093104819D01*
X1273642857Y-1093104819D02*
X1273642857Y-1092438152D01*
X1273642857Y-1092104819D02*
X1273595238Y-1092152438D01*
X1273595238Y-1092152438D02*
X1273642857Y-1092200057D01*
X1273642857Y-1092200057D02*
X1273690476Y-1092152438D01*
X1273690476Y-1092152438D02*
X1273642857Y-1092104819D01*
X1273642857Y-1092104819D02*
X1273642857Y-1092200057D01*
X1274119047Y-1092438152D02*
X1274119047Y-1093104819D01*
X1274119047Y-1092533390D02*
X1274166666Y-1092485771D01*
X1274166666Y-1092485771D02*
X1274261904Y-1092438152D01*
X1274261904Y-1092438152D02*
X1274404761Y-1092438152D01*
X1274404761Y-1092438152D02*
X1274499999Y-1092485771D01*
X1274499999Y-1092485771D02*
X1274547618Y-1092581009D01*
X1274547618Y-1092581009D02*
X1274547618Y-1093104819D01*
X1275452380Y-1092438152D02*
X1275452380Y-1093247676D01*
X1275452380Y-1093247676D02*
X1275404761Y-1093342914D01*
X1275404761Y-1093342914D02*
X1275357142Y-1093390533D01*
X1275357142Y-1093390533D02*
X1275261904Y-1093438152D01*
X1275261904Y-1093438152D02*
X1275119047Y-1093438152D01*
X1275119047Y-1093438152D02*
X1275023809Y-1093390533D01*
X1275452380Y-1093057200D02*
X1275357142Y-1093104819D01*
X1275357142Y-1093104819D02*
X1275166666Y-1093104819D01*
X1275166666Y-1093104819D02*
X1275071428Y-1093057200D01*
X1275071428Y-1093057200D02*
X1275023809Y-1093009580D01*
X1275023809Y-1093009580D02*
X1274976190Y-1092914342D01*
X1274976190Y-1092914342D02*
X1274976190Y-1092628628D01*
X1274976190Y-1092628628D02*
X1275023809Y-1092533390D01*
X1275023809Y-1092533390D02*
X1275071428Y-1092485771D01*
X1275071428Y-1092485771D02*
X1275166666Y-1092438152D01*
X1275166666Y-1092438152D02*
X1275357142Y-1092438152D01*
X1275357142Y-1092438152D02*
X1275452380Y-1092485771D01*
X1275928571Y-1093104819D02*
X1275928571Y-1092104819D01*
X1275928571Y-1092581009D02*
X1276499999Y-1092581009D01*
X1276499999Y-1093104819D02*
X1276499999Y-1092104819D01*
X1277119047Y-1093104819D02*
X1277023809Y-1093057200D01*
X1277023809Y-1093057200D02*
X1276976190Y-1093009580D01*
X1276976190Y-1093009580D02*
X1276928571Y-1092914342D01*
X1276928571Y-1092914342D02*
X1276928571Y-1092628628D01*
X1276928571Y-1092628628D02*
X1276976190Y-1092533390D01*
X1276976190Y-1092533390D02*
X1277023809Y-1092485771D01*
X1277023809Y-1092485771D02*
X1277119047Y-1092438152D01*
X1277119047Y-1092438152D02*
X1277261904Y-1092438152D01*
X1277261904Y-1092438152D02*
X1277357142Y-1092485771D01*
X1277357142Y-1092485771D02*
X1277404761Y-1092533390D01*
X1277404761Y-1092533390D02*
X1277452380Y-1092628628D01*
X1277452380Y-1092628628D02*
X1277452380Y-1092914342D01*
X1277452380Y-1092914342D02*
X1277404761Y-1093009580D01*
X1277404761Y-1093009580D02*
X1277357142Y-1093057200D01*
X1277357142Y-1093057200D02*
X1277261904Y-1093104819D01*
X1277261904Y-1093104819D02*
X1277119047Y-1093104819D01*
X1278023809Y-1093104819D02*
X1277928571Y-1093057200D01*
X1277928571Y-1093057200D02*
X1277880952Y-1092961961D01*
X1277880952Y-1092961961D02*
X1277880952Y-1092104819D01*
X1278785714Y-1093057200D02*
X1278690476Y-1093104819D01*
X1278690476Y-1093104819D02*
X1278500000Y-1093104819D01*
X1278500000Y-1093104819D02*
X1278404762Y-1093057200D01*
X1278404762Y-1093057200D02*
X1278357143Y-1092961961D01*
X1278357143Y-1092961961D02*
X1278357143Y-1092581009D01*
X1278357143Y-1092581009D02*
X1278404762Y-1092485771D01*
X1278404762Y-1092485771D02*
X1278500000Y-1092438152D01*
X1278500000Y-1092438152D02*
X1278690476Y-1092438152D01*
X1278690476Y-1092438152D02*
X1278785714Y-1092485771D01*
X1278785714Y-1092485771D02*
X1278833333Y-1092581009D01*
X1278833333Y-1092581009D02*
X1278833333Y-1092676247D01*
X1278833333Y-1092676247D02*
X1278357143Y-1092771485D01*
X1277238095Y-1096454819D02*
X1277238095Y-1095454819D01*
X1277238095Y-1095931009D02*
X1277809523Y-1095931009D01*
X1277809523Y-1096454819D02*
X1277809523Y-1095454819D01*
X1278238095Y-1095550057D02*
X1278285714Y-1095502438D01*
X1278285714Y-1095502438D02*
X1278380952Y-1095454819D01*
X1278380952Y-1095454819D02*
X1278619047Y-1095454819D01*
X1278619047Y-1095454819D02*
X1278714285Y-1095502438D01*
X1278714285Y-1095502438D02*
X1278761904Y-1095550057D01*
X1278761904Y-1095550057D02*
X1278809523Y-1095645295D01*
X1278809523Y-1095645295D02*
X1278809523Y-1095740533D01*
X1278809523Y-1095740533D02*
X1278761904Y-1095883390D01*
X1278761904Y-1095883390D02*
X1278190476Y-1096454819D01*
X1278190476Y-1096454819D02*
X1278809523Y-1096454819D01*
X1327952381Y-1093281200D02*
X1328095238Y-1093328819D01*
X1328095238Y-1093328819D02*
X1328333333Y-1093328819D01*
X1328333333Y-1093328819D02*
X1328428571Y-1093281200D01*
X1328428571Y-1093281200D02*
X1328476190Y-1093233580D01*
X1328476190Y-1093233580D02*
X1328523809Y-1093138342D01*
X1328523809Y-1093138342D02*
X1328523809Y-1093043104D01*
X1328523809Y-1093043104D02*
X1328476190Y-1092947866D01*
X1328476190Y-1092947866D02*
X1328428571Y-1092900247D01*
X1328428571Y-1092900247D02*
X1328333333Y-1092852628D01*
X1328333333Y-1092852628D02*
X1328142857Y-1092805009D01*
X1328142857Y-1092805009D02*
X1328047619Y-1092757390D01*
X1328047619Y-1092757390D02*
X1328000000Y-1092709771D01*
X1328000000Y-1092709771D02*
X1327952381Y-1092614533D01*
X1327952381Y-1092614533D02*
X1327952381Y-1092519295D01*
X1327952381Y-1092519295D02*
X1328000000Y-1092424057D01*
X1328000000Y-1092424057D02*
X1328047619Y-1092376438D01*
X1328047619Y-1092376438D02*
X1328142857Y-1092328819D01*
X1328142857Y-1092328819D02*
X1328380952Y-1092328819D01*
X1328380952Y-1092328819D02*
X1328523809Y-1092376438D01*
X1328857143Y-1092328819D02*
X1329095238Y-1093328819D01*
X1329095238Y-1093328819D02*
X1329285714Y-1092614533D01*
X1329285714Y-1092614533D02*
X1329476190Y-1093328819D01*
X1329476190Y-1093328819D02*
X1329714286Y-1092328819D01*
X1329857143Y-1093424057D02*
X1330619047Y-1093424057D01*
X1330857143Y-1093328819D02*
X1330857143Y-1092328819D01*
X1330857143Y-1092328819D02*
X1331238095Y-1092328819D01*
X1331238095Y-1092328819D02*
X1331333333Y-1092376438D01*
X1331333333Y-1092376438D02*
X1331380952Y-1092424057D01*
X1331380952Y-1092424057D02*
X1331428571Y-1092519295D01*
X1331428571Y-1092519295D02*
X1331428571Y-1092662152D01*
X1331428571Y-1092662152D02*
X1331380952Y-1092757390D01*
X1331380952Y-1092757390D02*
X1331333333Y-1092805009D01*
X1331333333Y-1092805009D02*
X1331238095Y-1092852628D01*
X1331238095Y-1092852628D02*
X1330857143Y-1092852628D01*
X1332285714Y-1092662152D02*
X1332285714Y-1093328819D01*
X1331857143Y-1092662152D02*
X1331857143Y-1093185961D01*
X1331857143Y-1093185961D02*
X1331904762Y-1093281200D01*
X1331904762Y-1093281200D02*
X1332000000Y-1093328819D01*
X1332000000Y-1093328819D02*
X1332142857Y-1093328819D01*
X1332142857Y-1093328819D02*
X1332238095Y-1093281200D01*
X1332238095Y-1093281200D02*
X1332285714Y-1093233580D01*
X1332714286Y-1093281200D02*
X1332809524Y-1093328819D01*
X1332809524Y-1093328819D02*
X1333000000Y-1093328819D01*
X1333000000Y-1093328819D02*
X1333095238Y-1093281200D01*
X1333095238Y-1093281200D02*
X1333142857Y-1093185961D01*
X1333142857Y-1093185961D02*
X1333142857Y-1093138342D01*
X1333142857Y-1093138342D02*
X1333095238Y-1093043104D01*
X1333095238Y-1093043104D02*
X1333000000Y-1092995485D01*
X1333000000Y-1092995485D02*
X1332857143Y-1092995485D01*
X1332857143Y-1092995485D02*
X1332761905Y-1092947866D01*
X1332761905Y-1092947866D02*
X1332714286Y-1092852628D01*
X1332714286Y-1092852628D02*
X1332714286Y-1092805009D01*
X1332714286Y-1092805009D02*
X1332761905Y-1092709771D01*
X1332761905Y-1092709771D02*
X1332857143Y-1092662152D01*
X1332857143Y-1092662152D02*
X1333000000Y-1092662152D01*
X1333000000Y-1092662152D02*
X1333095238Y-1092709771D01*
X1333571429Y-1093328819D02*
X1333571429Y-1092328819D01*
X1334000000Y-1093328819D02*
X1334000000Y-1092805009D01*
X1334000000Y-1092805009D02*
X1333952381Y-1092709771D01*
X1333952381Y-1092709771D02*
X1333857143Y-1092662152D01*
X1333857143Y-1092662152D02*
X1333714286Y-1092662152D01*
X1333714286Y-1092662152D02*
X1333619048Y-1092709771D01*
X1333619048Y-1092709771D02*
X1333571429Y-1092757390D01*
X1329666667Y-1077533200D02*
X1329809524Y-1077580819D01*
X1329809524Y-1077580819D02*
X1330047619Y-1077580819D01*
X1330047619Y-1077580819D02*
X1330142857Y-1077533200D01*
X1330142857Y-1077533200D02*
X1330190476Y-1077485580D01*
X1330190476Y-1077485580D02*
X1330238095Y-1077390342D01*
X1330238095Y-1077390342D02*
X1330238095Y-1077295104D01*
X1330238095Y-1077295104D02*
X1330190476Y-1077199866D01*
X1330190476Y-1077199866D02*
X1330142857Y-1077152247D01*
X1330142857Y-1077152247D02*
X1330047619Y-1077104628D01*
X1330047619Y-1077104628D02*
X1329857143Y-1077057009D01*
X1329857143Y-1077057009D02*
X1329761905Y-1077009390D01*
X1329761905Y-1077009390D02*
X1329714286Y-1076961771D01*
X1329714286Y-1076961771D02*
X1329666667Y-1076866533D01*
X1329666667Y-1076866533D02*
X1329666667Y-1076771295D01*
X1329666667Y-1076771295D02*
X1329714286Y-1076676057D01*
X1329714286Y-1076676057D02*
X1329761905Y-1076628438D01*
X1329761905Y-1076628438D02*
X1329857143Y-1076580819D01*
X1329857143Y-1076580819D02*
X1330095238Y-1076580819D01*
X1330095238Y-1076580819D02*
X1330238095Y-1076628438D01*
X1330571429Y-1076580819D02*
X1330809524Y-1077580819D01*
X1330809524Y-1077580819D02*
X1331000000Y-1076866533D01*
X1331000000Y-1076866533D02*
X1331190476Y-1077580819D01*
X1331190476Y-1077580819D02*
X1331428572Y-1076580819D01*
X1332238095Y-1076914152D02*
X1332238095Y-1077580819D01*
X1332000000Y-1076533200D02*
X1331761905Y-1077247485D01*
X1331761905Y-1077247485D02*
X1332380952Y-1077247485D01*
X1330658095Y-1071447866D02*
X1330705714Y-1071400247D01*
X1330705714Y-1071400247D02*
X1330800952Y-1071352628D01*
X1330800952Y-1071352628D02*
X1330991428Y-1071447866D01*
X1330991428Y-1071447866D02*
X1331086666Y-1071400247D01*
X1331086666Y-1071400247D02*
X1331134285Y-1071352628D01*
X1329586667Y-1056033200D02*
X1329729524Y-1056080819D01*
X1329729524Y-1056080819D02*
X1329967619Y-1056080819D01*
X1329967619Y-1056080819D02*
X1330062857Y-1056033200D01*
X1330062857Y-1056033200D02*
X1330110476Y-1055985580D01*
X1330110476Y-1055985580D02*
X1330158095Y-1055890342D01*
X1330158095Y-1055890342D02*
X1330158095Y-1055795104D01*
X1330158095Y-1055795104D02*
X1330110476Y-1055699866D01*
X1330110476Y-1055699866D02*
X1330062857Y-1055652247D01*
X1330062857Y-1055652247D02*
X1329967619Y-1055604628D01*
X1329967619Y-1055604628D02*
X1329777143Y-1055557009D01*
X1329777143Y-1055557009D02*
X1329681905Y-1055509390D01*
X1329681905Y-1055509390D02*
X1329634286Y-1055461771D01*
X1329634286Y-1055461771D02*
X1329586667Y-1055366533D01*
X1329586667Y-1055366533D02*
X1329586667Y-1055271295D01*
X1329586667Y-1055271295D02*
X1329634286Y-1055176057D01*
X1329634286Y-1055176057D02*
X1329681905Y-1055128438D01*
X1329681905Y-1055128438D02*
X1329777143Y-1055080819D01*
X1329777143Y-1055080819D02*
X1330015238Y-1055080819D01*
X1330015238Y-1055080819D02*
X1330158095Y-1055128438D01*
X1330491429Y-1055080819D02*
X1330729524Y-1056080819D01*
X1330729524Y-1056080819D02*
X1330920000Y-1055366533D01*
X1330920000Y-1055366533D02*
X1331110476Y-1056080819D01*
X1331110476Y-1056080819D02*
X1331348572Y-1055080819D01*
X1331634286Y-1055080819D02*
X1332253333Y-1055080819D01*
X1332253333Y-1055080819D02*
X1331920000Y-1055461771D01*
X1331920000Y-1055461771D02*
X1332062857Y-1055461771D01*
X1332062857Y-1055461771D02*
X1332158095Y-1055509390D01*
X1332158095Y-1055509390D02*
X1332205714Y-1055557009D01*
X1332205714Y-1055557009D02*
X1332253333Y-1055652247D01*
X1332253333Y-1055652247D02*
X1332253333Y-1055890342D01*
X1332253333Y-1055890342D02*
X1332205714Y-1055985580D01*
X1332205714Y-1055985580D02*
X1332158095Y-1056033200D01*
X1332158095Y-1056033200D02*
X1332062857Y-1056080819D01*
X1332062857Y-1056080819D02*
X1331777143Y-1056080819D01*
X1331777143Y-1056080819D02*
X1331681905Y-1056033200D01*
X1331681905Y-1056033200D02*
X1331634286Y-1055985580D01*
X1310048095Y-1092947866D02*
X1310095714Y-1092900247D01*
X1310095714Y-1092900247D02*
X1310190952Y-1092852628D01*
X1310190952Y-1092852628D02*
X1310381428Y-1092947866D01*
X1310381428Y-1092947866D02*
X1310476666Y-1092900247D01*
X1310476666Y-1092900247D02*
X1310524285Y-1092852628D01*
X1308976667Y-1077533200D02*
X1309119524Y-1077580819D01*
X1309119524Y-1077580819D02*
X1309357619Y-1077580819D01*
X1309357619Y-1077580819D02*
X1309452857Y-1077533200D01*
X1309452857Y-1077533200D02*
X1309500476Y-1077485580D01*
X1309500476Y-1077485580D02*
X1309548095Y-1077390342D01*
X1309548095Y-1077390342D02*
X1309548095Y-1077295104D01*
X1309548095Y-1077295104D02*
X1309500476Y-1077199866D01*
X1309500476Y-1077199866D02*
X1309452857Y-1077152247D01*
X1309452857Y-1077152247D02*
X1309357619Y-1077104628D01*
X1309357619Y-1077104628D02*
X1309167143Y-1077057009D01*
X1309167143Y-1077057009D02*
X1309071905Y-1077009390D01*
X1309071905Y-1077009390D02*
X1309024286Y-1076961771D01*
X1309024286Y-1076961771D02*
X1308976667Y-1076866533D01*
X1308976667Y-1076866533D02*
X1308976667Y-1076771295D01*
X1308976667Y-1076771295D02*
X1309024286Y-1076676057D01*
X1309024286Y-1076676057D02*
X1309071905Y-1076628438D01*
X1309071905Y-1076628438D02*
X1309167143Y-1076580819D01*
X1309167143Y-1076580819D02*
X1309405238Y-1076580819D01*
X1309405238Y-1076580819D02*
X1309548095Y-1076628438D01*
X1309881429Y-1076580819D02*
X1310119524Y-1077580819D01*
X1310119524Y-1077580819D02*
X1310310000Y-1076866533D01*
X1310310000Y-1076866533D02*
X1310500476Y-1077580819D01*
X1310500476Y-1077580819D02*
X1310738572Y-1076580819D01*
X1311595714Y-1076580819D02*
X1311119524Y-1076580819D01*
X1311119524Y-1076580819D02*
X1311071905Y-1077057009D01*
X1311071905Y-1077057009D02*
X1311119524Y-1077009390D01*
X1311119524Y-1077009390D02*
X1311214762Y-1076961771D01*
X1311214762Y-1076961771D02*
X1311452857Y-1076961771D01*
X1311452857Y-1076961771D02*
X1311548095Y-1077009390D01*
X1311548095Y-1077009390D02*
X1311595714Y-1077057009D01*
X1311595714Y-1077057009D02*
X1311643333Y-1077152247D01*
X1311643333Y-1077152247D02*
X1311643333Y-1077390342D01*
X1311643333Y-1077390342D02*
X1311595714Y-1077485580D01*
X1311595714Y-1077485580D02*
X1311548095Y-1077533200D01*
X1311548095Y-1077533200D02*
X1311452857Y-1077580819D01*
X1311452857Y-1077580819D02*
X1311214762Y-1077580819D01*
X1311214762Y-1077580819D02*
X1311119524Y-1077533200D01*
X1311119524Y-1077533200D02*
X1311071905Y-1077485580D01*
%TO.C,tft_header1*%
D12*
X1272230000Y-1059205000D02*
X1272865000Y-1058570000D01*
X1272230000Y-1078890000D02*
X1272230000Y-1059205000D01*
X1272865000Y-1058570000D02*
X1274770000Y-1058570000D01*
X1274770000Y-1058570000D02*
X1274770000Y-1078890000D01*
X1274770000Y-1078890000D02*
X1272230000Y-1078890000D01*
%TO.C,U2*%
X1300669500Y-1052680250D02*
X1318469500Y-1052680250D01*
X1318469500Y-1073680250D01*
X1300669500Y-1073680250D01*
X1300669500Y-1052680250D01*
D13*
X1301857500Y-1053933250D02*
G75*
G02*
X1301353500Y-1053933250I-252000J0D01*
G01*
X1301353500Y-1053933250D02*
G75*
G02*
X1301857500Y-1053933250I252000J0D01*
G01*
%TO.C,SW7*%
D12*
X1283070000Y-1056650000D02*
X1295770000Y-1056650000D01*
X1283070000Y-1069350000D02*
X1283070000Y-1056650000D01*
X1295770000Y-1056650000D02*
X1295770000Y-1069350000D01*
X1295770000Y-1069350000D02*
X1283070000Y-1069350000D01*
%TO.C,SW6*%
X1282650000Y-1078650000D02*
X1295350000Y-1078650000D01*
X1282650000Y-1091350000D02*
X1282650000Y-1078650000D01*
X1295350000Y-1078650000D02*
X1295350000Y-1091350000D01*
X1295350000Y-1091350000D02*
X1282650000Y-1091350000D01*
%TO.C,BZ1*%
X1349000000Y-1073000000D02*
G75*
G02*
X1347000000Y-1073000000I-1000000J0D01*
G01*
X1347000000Y-1073000000D02*
G75*
G02*
X1349000000Y-1073000000I1000000J0D01*
G01*
X1354000000Y-1073000000D02*
G75*
G02*
X1342000000Y-1073000000I-6000000J0D01*
G01*
X1342000000Y-1073000000D02*
G75*
G02*
X1354000000Y-1073000000I6000000J0D01*
G01*
%TO.C,SW4*%
X1324650000Y-1078650000D02*
X1337350000Y-1078650000D01*
X1324650000Y-1091350000D02*
X1324650000Y-1078650000D01*
X1337350000Y-1078650000D02*
X1337350000Y-1091350000D01*
X1337350000Y-1091350000D02*
X1324650000Y-1091350000D01*
%TO.C,SW3*%
X1324570000Y-1057150000D02*
X1337270000Y-1057150000D01*
X1324570000Y-1069850000D02*
X1324570000Y-1057150000D01*
X1337270000Y-1057150000D02*
X1337270000Y-1069850000D01*
X1337270000Y-1069850000D02*
X1324570000Y-1069850000D01*
%TO.C,SW5*%
X1303960000Y-1078650000D02*
X1316660000Y-1078650000D01*
X1303960000Y-1091350000D02*
X1303960000Y-1078650000D01*
X1316660000Y-1078650000D02*
X1316660000Y-1091350000D01*
X1316660000Y-1091350000D02*
X1303960000Y-1091350000D01*
%TD*%
M02*
