%TF.GenerationSoftware,KiCad,Pcbnew,10.0.5-1-g226df246f3*%
%TF.CreationDate,2026-08-28T11:55:04+05:30*%
%TF.ProjectId,init_dawn.d,696e6974-5f64-4617-976e-2e642e6b6963,rev?*%
%TF.SameCoordinates,Original*%
%TF.FileFunction,AssemblyDrawing,Top*%
%FSLAX46Y46*%
G04 Gerber Fmt 4.6, Leading zero omitted, Abs format (unit mm)*
G04 Created by KiCad (PCBNEW 10.0.5-1-g226df246f3) date 2026-08-28 11:55:04*
%MOMM*%
%LPD*%
G01*
G04 APERTURE LIST*
%ADD10C,0.150000*%
%ADD11C,0.073152*%
%ADD12C,0.100000*%
%ADD13C,0.504000*%
G04 APERTURE END LIST*
D10*
X1245214285Y-950104819D02*
X1245214285Y-949104819D01*
X1245214285Y-949104819D02*
X1245547618Y-949819104D01*
X1245547618Y-949819104D02*
X1245880951Y-949104819D01*
X1245880951Y-949104819D02*
X1245880951Y-950104819D01*
X1246499999Y-950104819D02*
X1246404761Y-950057200D01*
X1246404761Y-950057200D02*
X1246357142Y-950009580D01*
X1246357142Y-950009580D02*
X1246309523Y-949914342D01*
X1246309523Y-949914342D02*
X1246309523Y-949628628D01*
X1246309523Y-949628628D02*
X1246357142Y-949533390D01*
X1246357142Y-949533390D02*
X1246404761Y-949485771D01*
X1246404761Y-949485771D02*
X1246499999Y-949438152D01*
X1246499999Y-949438152D02*
X1246642856Y-949438152D01*
X1246642856Y-949438152D02*
X1246738094Y-949485771D01*
X1246738094Y-949485771D02*
X1246785713Y-949533390D01*
X1246785713Y-949533390D02*
X1246833332Y-949628628D01*
X1246833332Y-949628628D02*
X1246833332Y-949914342D01*
X1246833332Y-949914342D02*
X1246785713Y-950009580D01*
X1246785713Y-950009580D02*
X1246738094Y-950057200D01*
X1246738094Y-950057200D02*
X1246642856Y-950104819D01*
X1246642856Y-950104819D02*
X1246499999Y-950104819D01*
X1247690475Y-949438152D02*
X1247690475Y-950104819D01*
X1247261904Y-949438152D02*
X1247261904Y-949961961D01*
X1247261904Y-949961961D02*
X1247309523Y-950057200D01*
X1247309523Y-950057200D02*
X1247404761Y-950104819D01*
X1247404761Y-950104819D02*
X1247547618Y-950104819D01*
X1247547618Y-950104819D02*
X1247642856Y-950057200D01*
X1247642856Y-950057200D02*
X1247690475Y-950009580D01*
X1248166666Y-949438152D02*
X1248166666Y-950104819D01*
X1248166666Y-949533390D02*
X1248214285Y-949485771D01*
X1248214285Y-949485771D02*
X1248309523Y-949438152D01*
X1248309523Y-949438152D02*
X1248452380Y-949438152D01*
X1248452380Y-949438152D02*
X1248547618Y-949485771D01*
X1248547618Y-949485771D02*
X1248595237Y-949581009D01*
X1248595237Y-949581009D02*
X1248595237Y-950104819D01*
X1248928571Y-949438152D02*
X1249309523Y-949438152D01*
X1249071428Y-949104819D02*
X1249071428Y-949961961D01*
X1249071428Y-949961961D02*
X1249119047Y-950057200D01*
X1249119047Y-950057200D02*
X1249214285Y-950104819D01*
X1249214285Y-950104819D02*
X1249309523Y-950104819D01*
X1249642857Y-950104819D02*
X1249642857Y-949438152D01*
X1249642857Y-949104819D02*
X1249595238Y-949152438D01*
X1249595238Y-949152438D02*
X1249642857Y-949200057D01*
X1249642857Y-949200057D02*
X1249690476Y-949152438D01*
X1249690476Y-949152438D02*
X1249642857Y-949104819D01*
X1249642857Y-949104819D02*
X1249642857Y-949200057D01*
X1250119047Y-949438152D02*
X1250119047Y-950104819D01*
X1250119047Y-949533390D02*
X1250166666Y-949485771D01*
X1250166666Y-949485771D02*
X1250261904Y-949438152D01*
X1250261904Y-949438152D02*
X1250404761Y-949438152D01*
X1250404761Y-949438152D02*
X1250499999Y-949485771D01*
X1250499999Y-949485771D02*
X1250547618Y-949581009D01*
X1250547618Y-949581009D02*
X1250547618Y-950104819D01*
X1251452380Y-949438152D02*
X1251452380Y-950247676D01*
X1251452380Y-950247676D02*
X1251404761Y-950342914D01*
X1251404761Y-950342914D02*
X1251357142Y-950390533D01*
X1251357142Y-950390533D02*
X1251261904Y-950438152D01*
X1251261904Y-950438152D02*
X1251119047Y-950438152D01*
X1251119047Y-950438152D02*
X1251023809Y-950390533D01*
X1251452380Y-950057200D02*
X1251357142Y-950104819D01*
X1251357142Y-950104819D02*
X1251166666Y-950104819D01*
X1251166666Y-950104819D02*
X1251071428Y-950057200D01*
X1251071428Y-950057200D02*
X1251023809Y-950009580D01*
X1251023809Y-950009580D02*
X1250976190Y-949914342D01*
X1250976190Y-949914342D02*
X1250976190Y-949628628D01*
X1250976190Y-949628628D02*
X1251023809Y-949533390D01*
X1251023809Y-949533390D02*
X1251071428Y-949485771D01*
X1251071428Y-949485771D02*
X1251166666Y-949438152D01*
X1251166666Y-949438152D02*
X1251357142Y-949438152D01*
X1251357142Y-949438152D02*
X1251452380Y-949485771D01*
X1251928571Y-950104819D02*
X1251928571Y-949104819D01*
X1251928571Y-949581009D02*
X1252499999Y-949581009D01*
X1252499999Y-950104819D02*
X1252499999Y-949104819D01*
X1253119047Y-950104819D02*
X1253023809Y-950057200D01*
X1253023809Y-950057200D02*
X1252976190Y-950009580D01*
X1252976190Y-950009580D02*
X1252928571Y-949914342D01*
X1252928571Y-949914342D02*
X1252928571Y-949628628D01*
X1252928571Y-949628628D02*
X1252976190Y-949533390D01*
X1252976190Y-949533390D02*
X1253023809Y-949485771D01*
X1253023809Y-949485771D02*
X1253119047Y-949438152D01*
X1253119047Y-949438152D02*
X1253261904Y-949438152D01*
X1253261904Y-949438152D02*
X1253357142Y-949485771D01*
X1253357142Y-949485771D02*
X1253404761Y-949533390D01*
X1253404761Y-949533390D02*
X1253452380Y-949628628D01*
X1253452380Y-949628628D02*
X1253452380Y-949914342D01*
X1253452380Y-949914342D02*
X1253404761Y-950009580D01*
X1253404761Y-950009580D02*
X1253357142Y-950057200D01*
X1253357142Y-950057200D02*
X1253261904Y-950104819D01*
X1253261904Y-950104819D02*
X1253119047Y-950104819D01*
X1254023809Y-950104819D02*
X1253928571Y-950057200D01*
X1253928571Y-950057200D02*
X1253880952Y-949961961D01*
X1253880952Y-949961961D02*
X1253880952Y-949104819D01*
X1254785714Y-950057200D02*
X1254690476Y-950104819D01*
X1254690476Y-950104819D02*
X1254500000Y-950104819D01*
X1254500000Y-950104819D02*
X1254404762Y-950057200D01*
X1254404762Y-950057200D02*
X1254357143Y-949961961D01*
X1254357143Y-949961961D02*
X1254357143Y-949581009D01*
X1254357143Y-949581009D02*
X1254404762Y-949485771D01*
X1254404762Y-949485771D02*
X1254500000Y-949438152D01*
X1254500000Y-949438152D02*
X1254690476Y-949438152D01*
X1254690476Y-949438152D02*
X1254785714Y-949485771D01*
X1254785714Y-949485771D02*
X1254833333Y-949581009D01*
X1254833333Y-949581009D02*
X1254833333Y-949676247D01*
X1254833333Y-949676247D02*
X1254357143Y-949771485D01*
X1249238095Y-945954819D02*
X1249238095Y-944954819D01*
X1249238095Y-945431009D02*
X1249809523Y-945431009D01*
X1249809523Y-945954819D02*
X1249809523Y-944954819D01*
X1250809523Y-945954819D02*
X1250238095Y-945954819D01*
X1250523809Y-945954819D02*
X1250523809Y-944954819D01*
X1250523809Y-944954819D02*
X1250428571Y-945097676D01*
X1250428571Y-945097676D02*
X1250333333Y-945192914D01*
X1250333333Y-945192914D02*
X1250238095Y-945240533D01*
X1244714285Y-1019604819D02*
X1244714285Y-1018604819D01*
X1244714285Y-1018604819D02*
X1245047618Y-1019319104D01*
X1245047618Y-1019319104D02*
X1245380951Y-1018604819D01*
X1245380951Y-1018604819D02*
X1245380951Y-1019604819D01*
X1245999999Y-1019604819D02*
X1245904761Y-1019557200D01*
X1245904761Y-1019557200D02*
X1245857142Y-1019509580D01*
X1245857142Y-1019509580D02*
X1245809523Y-1019414342D01*
X1245809523Y-1019414342D02*
X1245809523Y-1019128628D01*
X1245809523Y-1019128628D02*
X1245857142Y-1019033390D01*
X1245857142Y-1019033390D02*
X1245904761Y-1018985771D01*
X1245904761Y-1018985771D02*
X1245999999Y-1018938152D01*
X1245999999Y-1018938152D02*
X1246142856Y-1018938152D01*
X1246142856Y-1018938152D02*
X1246238094Y-1018985771D01*
X1246238094Y-1018985771D02*
X1246285713Y-1019033390D01*
X1246285713Y-1019033390D02*
X1246333332Y-1019128628D01*
X1246333332Y-1019128628D02*
X1246333332Y-1019414342D01*
X1246333332Y-1019414342D02*
X1246285713Y-1019509580D01*
X1246285713Y-1019509580D02*
X1246238094Y-1019557200D01*
X1246238094Y-1019557200D02*
X1246142856Y-1019604819D01*
X1246142856Y-1019604819D02*
X1245999999Y-1019604819D01*
X1247190475Y-1018938152D02*
X1247190475Y-1019604819D01*
X1246761904Y-1018938152D02*
X1246761904Y-1019461961D01*
X1246761904Y-1019461961D02*
X1246809523Y-1019557200D01*
X1246809523Y-1019557200D02*
X1246904761Y-1019604819D01*
X1246904761Y-1019604819D02*
X1247047618Y-1019604819D01*
X1247047618Y-1019604819D02*
X1247142856Y-1019557200D01*
X1247142856Y-1019557200D02*
X1247190475Y-1019509580D01*
X1247666666Y-1018938152D02*
X1247666666Y-1019604819D01*
X1247666666Y-1019033390D02*
X1247714285Y-1018985771D01*
X1247714285Y-1018985771D02*
X1247809523Y-1018938152D01*
X1247809523Y-1018938152D02*
X1247952380Y-1018938152D01*
X1247952380Y-1018938152D02*
X1248047618Y-1018985771D01*
X1248047618Y-1018985771D02*
X1248095237Y-1019081009D01*
X1248095237Y-1019081009D02*
X1248095237Y-1019604819D01*
X1248428571Y-1018938152D02*
X1248809523Y-1018938152D01*
X1248571428Y-1018604819D02*
X1248571428Y-1019461961D01*
X1248571428Y-1019461961D02*
X1248619047Y-1019557200D01*
X1248619047Y-1019557200D02*
X1248714285Y-1019604819D01*
X1248714285Y-1019604819D02*
X1248809523Y-1019604819D01*
X1249142857Y-1019604819D02*
X1249142857Y-1018938152D01*
X1249142857Y-1018604819D02*
X1249095238Y-1018652438D01*
X1249095238Y-1018652438D02*
X1249142857Y-1018700057D01*
X1249142857Y-1018700057D02*
X1249190476Y-1018652438D01*
X1249190476Y-1018652438D02*
X1249142857Y-1018604819D01*
X1249142857Y-1018604819D02*
X1249142857Y-1018700057D01*
X1249619047Y-1018938152D02*
X1249619047Y-1019604819D01*
X1249619047Y-1019033390D02*
X1249666666Y-1018985771D01*
X1249666666Y-1018985771D02*
X1249761904Y-1018938152D01*
X1249761904Y-1018938152D02*
X1249904761Y-1018938152D01*
X1249904761Y-1018938152D02*
X1249999999Y-1018985771D01*
X1249999999Y-1018985771D02*
X1250047618Y-1019081009D01*
X1250047618Y-1019081009D02*
X1250047618Y-1019604819D01*
X1250952380Y-1018938152D02*
X1250952380Y-1019747676D01*
X1250952380Y-1019747676D02*
X1250904761Y-1019842914D01*
X1250904761Y-1019842914D02*
X1250857142Y-1019890533D01*
X1250857142Y-1019890533D02*
X1250761904Y-1019938152D01*
X1250761904Y-1019938152D02*
X1250619047Y-1019938152D01*
X1250619047Y-1019938152D02*
X1250523809Y-1019890533D01*
X1250952380Y-1019557200D02*
X1250857142Y-1019604819D01*
X1250857142Y-1019604819D02*
X1250666666Y-1019604819D01*
X1250666666Y-1019604819D02*
X1250571428Y-1019557200D01*
X1250571428Y-1019557200D02*
X1250523809Y-1019509580D01*
X1250523809Y-1019509580D02*
X1250476190Y-1019414342D01*
X1250476190Y-1019414342D02*
X1250476190Y-1019128628D01*
X1250476190Y-1019128628D02*
X1250523809Y-1019033390D01*
X1250523809Y-1019033390D02*
X1250571428Y-1018985771D01*
X1250571428Y-1018985771D02*
X1250666666Y-1018938152D01*
X1250666666Y-1018938152D02*
X1250857142Y-1018938152D01*
X1250857142Y-1018938152D02*
X1250952380Y-1018985771D01*
X1251428571Y-1019604819D02*
X1251428571Y-1018604819D01*
X1251428571Y-1019081009D02*
X1251999999Y-1019081009D01*
X1251999999Y-1019604819D02*
X1251999999Y-1018604819D01*
X1252619047Y-1019604819D02*
X1252523809Y-1019557200D01*
X1252523809Y-1019557200D02*
X1252476190Y-1019509580D01*
X1252476190Y-1019509580D02*
X1252428571Y-1019414342D01*
X1252428571Y-1019414342D02*
X1252428571Y-1019128628D01*
X1252428571Y-1019128628D02*
X1252476190Y-1019033390D01*
X1252476190Y-1019033390D02*
X1252523809Y-1018985771D01*
X1252523809Y-1018985771D02*
X1252619047Y-1018938152D01*
X1252619047Y-1018938152D02*
X1252761904Y-1018938152D01*
X1252761904Y-1018938152D02*
X1252857142Y-1018985771D01*
X1252857142Y-1018985771D02*
X1252904761Y-1019033390D01*
X1252904761Y-1019033390D02*
X1252952380Y-1019128628D01*
X1252952380Y-1019128628D02*
X1252952380Y-1019414342D01*
X1252952380Y-1019414342D02*
X1252904761Y-1019509580D01*
X1252904761Y-1019509580D02*
X1252857142Y-1019557200D01*
X1252857142Y-1019557200D02*
X1252761904Y-1019604819D01*
X1252761904Y-1019604819D02*
X1252619047Y-1019604819D01*
X1253523809Y-1019604819D02*
X1253428571Y-1019557200D01*
X1253428571Y-1019557200D02*
X1253380952Y-1019461961D01*
X1253380952Y-1019461961D02*
X1253380952Y-1018604819D01*
X1254285714Y-1019557200D02*
X1254190476Y-1019604819D01*
X1254190476Y-1019604819D02*
X1254000000Y-1019604819D01*
X1254000000Y-1019604819D02*
X1253904762Y-1019557200D01*
X1253904762Y-1019557200D02*
X1253857143Y-1019461961D01*
X1253857143Y-1019461961D02*
X1253857143Y-1019081009D01*
X1253857143Y-1019081009D02*
X1253904762Y-1018985771D01*
X1253904762Y-1018985771D02*
X1254000000Y-1018938152D01*
X1254000000Y-1018938152D02*
X1254190476Y-1018938152D01*
X1254190476Y-1018938152D02*
X1254285714Y-1018985771D01*
X1254285714Y-1018985771D02*
X1254333333Y-1019081009D01*
X1254333333Y-1019081009D02*
X1254333333Y-1019176247D01*
X1254333333Y-1019176247D02*
X1253857143Y-1019271485D01*
X1248738095Y-1015454819D02*
X1248738095Y-1014454819D01*
X1248738095Y-1014931009D02*
X1249309523Y-1014931009D01*
X1249309523Y-1015454819D02*
X1249309523Y-1014454819D01*
X1249738095Y-1014550057D02*
X1249785714Y-1014502438D01*
X1249785714Y-1014502438D02*
X1249880952Y-1014454819D01*
X1249880952Y-1014454819D02*
X1250119047Y-1014454819D01*
X1250119047Y-1014454819D02*
X1250214285Y-1014502438D01*
X1250214285Y-1014502438D02*
X1250261904Y-1014550057D01*
X1250261904Y-1014550057D02*
X1250309523Y-1014645295D01*
X1250309523Y-1014645295D02*
X1250309523Y-1014740533D01*
X1250309523Y-1014740533D02*
X1250261904Y-1014883390D01*
X1250261904Y-1014883390D02*
X1249690476Y-1015454819D01*
X1249690476Y-1015454819D02*
X1250309523Y-1015454819D01*
X1284238095Y-993947866D02*
X1284285714Y-993900247D01*
X1284285714Y-993900247D02*
X1284380952Y-993852628D01*
X1284380952Y-993852628D02*
X1284571428Y-993947866D01*
X1284571428Y-993947866D02*
X1284666666Y-993900247D01*
X1284666666Y-993900247D02*
X1284714285Y-993852628D01*
X1283166667Y-978533200D02*
X1283309524Y-978580819D01*
X1283309524Y-978580819D02*
X1283547619Y-978580819D01*
X1283547619Y-978580819D02*
X1283642857Y-978533200D01*
X1283642857Y-978533200D02*
X1283690476Y-978485580D01*
X1283690476Y-978485580D02*
X1283738095Y-978390342D01*
X1283738095Y-978390342D02*
X1283738095Y-978295104D01*
X1283738095Y-978295104D02*
X1283690476Y-978199866D01*
X1283690476Y-978199866D02*
X1283642857Y-978152247D01*
X1283642857Y-978152247D02*
X1283547619Y-978104628D01*
X1283547619Y-978104628D02*
X1283357143Y-978057009D01*
X1283357143Y-978057009D02*
X1283261905Y-978009390D01*
X1283261905Y-978009390D02*
X1283214286Y-977961771D01*
X1283214286Y-977961771D02*
X1283166667Y-977866533D01*
X1283166667Y-977866533D02*
X1283166667Y-977771295D01*
X1283166667Y-977771295D02*
X1283214286Y-977676057D01*
X1283214286Y-977676057D02*
X1283261905Y-977628438D01*
X1283261905Y-977628438D02*
X1283357143Y-977580819D01*
X1283357143Y-977580819D02*
X1283595238Y-977580819D01*
X1283595238Y-977580819D02*
X1283738095Y-977628438D01*
X1284071429Y-977580819D02*
X1284309524Y-978580819D01*
X1284309524Y-978580819D02*
X1284500000Y-977866533D01*
X1284500000Y-977866533D02*
X1284690476Y-978580819D01*
X1284690476Y-978580819D02*
X1284928572Y-977580819D01*
X1285785714Y-977580819D02*
X1285309524Y-977580819D01*
X1285309524Y-977580819D02*
X1285261905Y-978057009D01*
X1285261905Y-978057009D02*
X1285309524Y-978009390D01*
X1285309524Y-978009390D02*
X1285404762Y-977961771D01*
X1285404762Y-977961771D02*
X1285642857Y-977961771D01*
X1285642857Y-977961771D02*
X1285738095Y-978009390D01*
X1285738095Y-978009390D02*
X1285785714Y-978057009D01*
X1285785714Y-978057009D02*
X1285833333Y-978152247D01*
X1285833333Y-978152247D02*
X1285833333Y-978390342D01*
X1285833333Y-978390342D02*
X1285785714Y-978485580D01*
X1285785714Y-978485580D02*
X1285738095Y-978533200D01*
X1285738095Y-978533200D02*
X1285642857Y-978580819D01*
X1285642857Y-978580819D02*
X1285404762Y-978580819D01*
X1285404762Y-978580819D02*
X1285309524Y-978533200D01*
X1285309524Y-978533200D02*
X1285261905Y-978485580D01*
X1265238095Y-993947866D02*
X1265285714Y-993900247D01*
X1265285714Y-993900247D02*
X1265380952Y-993852628D01*
X1265380952Y-993852628D02*
X1265571428Y-993947866D01*
X1265571428Y-993947866D02*
X1265666666Y-993900247D01*
X1265666666Y-993900247D02*
X1265714285Y-993852628D01*
X1264166667Y-978533200D02*
X1264309524Y-978580819D01*
X1264309524Y-978580819D02*
X1264547619Y-978580819D01*
X1264547619Y-978580819D02*
X1264642857Y-978533200D01*
X1264642857Y-978533200D02*
X1264690476Y-978485580D01*
X1264690476Y-978485580D02*
X1264738095Y-978390342D01*
X1264738095Y-978390342D02*
X1264738095Y-978295104D01*
X1264738095Y-978295104D02*
X1264690476Y-978199866D01*
X1264690476Y-978199866D02*
X1264642857Y-978152247D01*
X1264642857Y-978152247D02*
X1264547619Y-978104628D01*
X1264547619Y-978104628D02*
X1264357143Y-978057009D01*
X1264357143Y-978057009D02*
X1264261905Y-978009390D01*
X1264261905Y-978009390D02*
X1264214286Y-977961771D01*
X1264214286Y-977961771D02*
X1264166667Y-977866533D01*
X1264166667Y-977866533D02*
X1264166667Y-977771295D01*
X1264166667Y-977771295D02*
X1264214286Y-977676057D01*
X1264214286Y-977676057D02*
X1264261905Y-977628438D01*
X1264261905Y-977628438D02*
X1264357143Y-977580819D01*
X1264357143Y-977580819D02*
X1264595238Y-977580819D01*
X1264595238Y-977580819D02*
X1264738095Y-977628438D01*
X1265071429Y-977580819D02*
X1265309524Y-978580819D01*
X1265309524Y-978580819D02*
X1265500000Y-977866533D01*
X1265500000Y-977866533D02*
X1265690476Y-978580819D01*
X1265690476Y-978580819D02*
X1265928572Y-977580819D01*
X1266214286Y-977580819D02*
X1266833333Y-977580819D01*
X1266833333Y-977580819D02*
X1266500000Y-977961771D01*
X1266500000Y-977961771D02*
X1266642857Y-977961771D01*
X1266642857Y-977961771D02*
X1266738095Y-978009390D01*
X1266738095Y-978009390D02*
X1266785714Y-978057009D01*
X1266785714Y-978057009D02*
X1266833333Y-978152247D01*
X1266833333Y-978152247D02*
X1266833333Y-978390342D01*
X1266833333Y-978390342D02*
X1266785714Y-978485580D01*
X1266785714Y-978485580D02*
X1266738095Y-978533200D01*
X1266738095Y-978533200D02*
X1266642857Y-978580819D01*
X1266642857Y-978580819D02*
X1266357143Y-978580819D01*
X1266357143Y-978580819D02*
X1266261905Y-978533200D01*
X1266261905Y-978533200D02*
X1266214286Y-978485580D01*
X1281952381Y-1013281200D02*
X1282095238Y-1013328819D01*
X1282095238Y-1013328819D02*
X1282333333Y-1013328819D01*
X1282333333Y-1013328819D02*
X1282428571Y-1013281200D01*
X1282428571Y-1013281200D02*
X1282476190Y-1013233580D01*
X1282476190Y-1013233580D02*
X1282523809Y-1013138342D01*
X1282523809Y-1013138342D02*
X1282523809Y-1013043104D01*
X1282523809Y-1013043104D02*
X1282476190Y-1012947866D01*
X1282476190Y-1012947866D02*
X1282428571Y-1012900247D01*
X1282428571Y-1012900247D02*
X1282333333Y-1012852628D01*
X1282333333Y-1012852628D02*
X1282142857Y-1012805009D01*
X1282142857Y-1012805009D02*
X1282047619Y-1012757390D01*
X1282047619Y-1012757390D02*
X1282000000Y-1012709771D01*
X1282000000Y-1012709771D02*
X1281952381Y-1012614533D01*
X1281952381Y-1012614533D02*
X1281952381Y-1012519295D01*
X1281952381Y-1012519295D02*
X1282000000Y-1012424057D01*
X1282000000Y-1012424057D02*
X1282047619Y-1012376438D01*
X1282047619Y-1012376438D02*
X1282142857Y-1012328819D01*
X1282142857Y-1012328819D02*
X1282380952Y-1012328819D01*
X1282380952Y-1012328819D02*
X1282523809Y-1012376438D01*
X1282857143Y-1012328819D02*
X1283095238Y-1013328819D01*
X1283095238Y-1013328819D02*
X1283285714Y-1012614533D01*
X1283285714Y-1012614533D02*
X1283476190Y-1013328819D01*
X1283476190Y-1013328819D02*
X1283714286Y-1012328819D01*
X1283857143Y-1013424057D02*
X1284619047Y-1013424057D01*
X1284857143Y-1013328819D02*
X1284857143Y-1012328819D01*
X1284857143Y-1012328819D02*
X1285238095Y-1012328819D01*
X1285238095Y-1012328819D02*
X1285333333Y-1012376438D01*
X1285333333Y-1012376438D02*
X1285380952Y-1012424057D01*
X1285380952Y-1012424057D02*
X1285428571Y-1012519295D01*
X1285428571Y-1012519295D02*
X1285428571Y-1012662152D01*
X1285428571Y-1012662152D02*
X1285380952Y-1012757390D01*
X1285380952Y-1012757390D02*
X1285333333Y-1012805009D01*
X1285333333Y-1012805009D02*
X1285238095Y-1012852628D01*
X1285238095Y-1012852628D02*
X1284857143Y-1012852628D01*
X1286285714Y-1012662152D02*
X1286285714Y-1013328819D01*
X1285857143Y-1012662152D02*
X1285857143Y-1013185961D01*
X1285857143Y-1013185961D02*
X1285904762Y-1013281200D01*
X1285904762Y-1013281200D02*
X1286000000Y-1013328819D01*
X1286000000Y-1013328819D02*
X1286142857Y-1013328819D01*
X1286142857Y-1013328819D02*
X1286238095Y-1013281200D01*
X1286238095Y-1013281200D02*
X1286285714Y-1013233580D01*
X1286714286Y-1013281200D02*
X1286809524Y-1013328819D01*
X1286809524Y-1013328819D02*
X1287000000Y-1013328819D01*
X1287000000Y-1013328819D02*
X1287095238Y-1013281200D01*
X1287095238Y-1013281200D02*
X1287142857Y-1013185961D01*
X1287142857Y-1013185961D02*
X1287142857Y-1013138342D01*
X1287142857Y-1013138342D02*
X1287095238Y-1013043104D01*
X1287095238Y-1013043104D02*
X1287000000Y-1012995485D01*
X1287000000Y-1012995485D02*
X1286857143Y-1012995485D01*
X1286857143Y-1012995485D02*
X1286761905Y-1012947866D01*
X1286761905Y-1012947866D02*
X1286714286Y-1012852628D01*
X1286714286Y-1012852628D02*
X1286714286Y-1012805009D01*
X1286714286Y-1012805009D02*
X1286761905Y-1012709771D01*
X1286761905Y-1012709771D02*
X1286857143Y-1012662152D01*
X1286857143Y-1012662152D02*
X1287000000Y-1012662152D01*
X1287000000Y-1012662152D02*
X1287095238Y-1012709771D01*
X1287571429Y-1013328819D02*
X1287571429Y-1012328819D01*
X1288000000Y-1013328819D02*
X1288000000Y-1012805009D01*
X1288000000Y-1012805009D02*
X1287952381Y-1012709771D01*
X1287952381Y-1012709771D02*
X1287857143Y-1012662152D01*
X1287857143Y-1012662152D02*
X1287714286Y-1012662152D01*
X1287714286Y-1012662152D02*
X1287619048Y-1012709771D01*
X1287619048Y-1012709771D02*
X1287571429Y-1012757390D01*
X1283666667Y-997533200D02*
X1283809524Y-997580819D01*
X1283809524Y-997580819D02*
X1284047619Y-997580819D01*
X1284047619Y-997580819D02*
X1284142857Y-997533200D01*
X1284142857Y-997533200D02*
X1284190476Y-997485580D01*
X1284190476Y-997485580D02*
X1284238095Y-997390342D01*
X1284238095Y-997390342D02*
X1284238095Y-997295104D01*
X1284238095Y-997295104D02*
X1284190476Y-997199866D01*
X1284190476Y-997199866D02*
X1284142857Y-997152247D01*
X1284142857Y-997152247D02*
X1284047619Y-997104628D01*
X1284047619Y-997104628D02*
X1283857143Y-997057009D01*
X1283857143Y-997057009D02*
X1283761905Y-997009390D01*
X1283761905Y-997009390D02*
X1283714286Y-996961771D01*
X1283714286Y-996961771D02*
X1283666667Y-996866533D01*
X1283666667Y-996866533D02*
X1283666667Y-996771295D01*
X1283666667Y-996771295D02*
X1283714286Y-996676057D01*
X1283714286Y-996676057D02*
X1283761905Y-996628438D01*
X1283761905Y-996628438D02*
X1283857143Y-996580819D01*
X1283857143Y-996580819D02*
X1284095238Y-996580819D01*
X1284095238Y-996580819D02*
X1284238095Y-996628438D01*
X1284571429Y-996580819D02*
X1284809524Y-997580819D01*
X1284809524Y-997580819D02*
X1285000000Y-996866533D01*
X1285000000Y-996866533D02*
X1285190476Y-997580819D01*
X1285190476Y-997580819D02*
X1285428572Y-996580819D01*
X1286238095Y-996580819D02*
X1286047619Y-996580819D01*
X1286047619Y-996580819D02*
X1285952381Y-996628438D01*
X1285952381Y-996628438D02*
X1285904762Y-996676057D01*
X1285904762Y-996676057D02*
X1285809524Y-996818914D01*
X1285809524Y-996818914D02*
X1285761905Y-997009390D01*
X1285761905Y-997009390D02*
X1285761905Y-997390342D01*
X1285761905Y-997390342D02*
X1285809524Y-997485580D01*
X1285809524Y-997485580D02*
X1285857143Y-997533200D01*
X1285857143Y-997533200D02*
X1285952381Y-997580819D01*
X1285952381Y-997580819D02*
X1286142857Y-997580819D01*
X1286142857Y-997580819D02*
X1286238095Y-997533200D01*
X1286238095Y-997533200D02*
X1286285714Y-997485580D01*
X1286285714Y-997485580D02*
X1286333333Y-997390342D01*
X1286333333Y-997390342D02*
X1286333333Y-997152247D01*
X1286333333Y-997152247D02*
X1286285714Y-997057009D01*
X1286285714Y-997057009D02*
X1286238095Y-997009390D01*
X1286238095Y-997009390D02*
X1286142857Y-996961771D01*
X1286142857Y-996961771D02*
X1285952381Y-996961771D01*
X1285952381Y-996961771D02*
X1285857143Y-997009390D01*
X1285857143Y-997009390D02*
X1285809524Y-997057009D01*
X1285809524Y-997057009D02*
X1285761905Y-997152247D01*
X1262452381Y-1013281200D02*
X1262595238Y-1013328819D01*
X1262595238Y-1013328819D02*
X1262833333Y-1013328819D01*
X1262833333Y-1013328819D02*
X1262928571Y-1013281200D01*
X1262928571Y-1013281200D02*
X1262976190Y-1013233580D01*
X1262976190Y-1013233580D02*
X1263023809Y-1013138342D01*
X1263023809Y-1013138342D02*
X1263023809Y-1013043104D01*
X1263023809Y-1013043104D02*
X1262976190Y-1012947866D01*
X1262976190Y-1012947866D02*
X1262928571Y-1012900247D01*
X1262928571Y-1012900247D02*
X1262833333Y-1012852628D01*
X1262833333Y-1012852628D02*
X1262642857Y-1012805009D01*
X1262642857Y-1012805009D02*
X1262547619Y-1012757390D01*
X1262547619Y-1012757390D02*
X1262500000Y-1012709771D01*
X1262500000Y-1012709771D02*
X1262452381Y-1012614533D01*
X1262452381Y-1012614533D02*
X1262452381Y-1012519295D01*
X1262452381Y-1012519295D02*
X1262500000Y-1012424057D01*
X1262500000Y-1012424057D02*
X1262547619Y-1012376438D01*
X1262547619Y-1012376438D02*
X1262642857Y-1012328819D01*
X1262642857Y-1012328819D02*
X1262880952Y-1012328819D01*
X1262880952Y-1012328819D02*
X1263023809Y-1012376438D01*
X1263357143Y-1012328819D02*
X1263595238Y-1013328819D01*
X1263595238Y-1013328819D02*
X1263785714Y-1012614533D01*
X1263785714Y-1012614533D02*
X1263976190Y-1013328819D01*
X1263976190Y-1013328819D02*
X1264214286Y-1012328819D01*
X1264357143Y-1013424057D02*
X1265119047Y-1013424057D01*
X1265357143Y-1013328819D02*
X1265357143Y-1012328819D01*
X1265357143Y-1012328819D02*
X1265738095Y-1012328819D01*
X1265738095Y-1012328819D02*
X1265833333Y-1012376438D01*
X1265833333Y-1012376438D02*
X1265880952Y-1012424057D01*
X1265880952Y-1012424057D02*
X1265928571Y-1012519295D01*
X1265928571Y-1012519295D02*
X1265928571Y-1012662152D01*
X1265928571Y-1012662152D02*
X1265880952Y-1012757390D01*
X1265880952Y-1012757390D02*
X1265833333Y-1012805009D01*
X1265833333Y-1012805009D02*
X1265738095Y-1012852628D01*
X1265738095Y-1012852628D02*
X1265357143Y-1012852628D01*
X1266785714Y-1012662152D02*
X1266785714Y-1013328819D01*
X1266357143Y-1012662152D02*
X1266357143Y-1013185961D01*
X1266357143Y-1013185961D02*
X1266404762Y-1013281200D01*
X1266404762Y-1013281200D02*
X1266500000Y-1013328819D01*
X1266500000Y-1013328819D02*
X1266642857Y-1013328819D01*
X1266642857Y-1013328819D02*
X1266738095Y-1013281200D01*
X1266738095Y-1013281200D02*
X1266785714Y-1013233580D01*
X1267214286Y-1013281200D02*
X1267309524Y-1013328819D01*
X1267309524Y-1013328819D02*
X1267500000Y-1013328819D01*
X1267500000Y-1013328819D02*
X1267595238Y-1013281200D01*
X1267595238Y-1013281200D02*
X1267642857Y-1013185961D01*
X1267642857Y-1013185961D02*
X1267642857Y-1013138342D01*
X1267642857Y-1013138342D02*
X1267595238Y-1013043104D01*
X1267595238Y-1013043104D02*
X1267500000Y-1012995485D01*
X1267500000Y-1012995485D02*
X1267357143Y-1012995485D01*
X1267357143Y-1012995485D02*
X1267261905Y-1012947866D01*
X1267261905Y-1012947866D02*
X1267214286Y-1012852628D01*
X1267214286Y-1012852628D02*
X1267214286Y-1012805009D01*
X1267214286Y-1012805009D02*
X1267261905Y-1012709771D01*
X1267261905Y-1012709771D02*
X1267357143Y-1012662152D01*
X1267357143Y-1012662152D02*
X1267500000Y-1012662152D01*
X1267500000Y-1012662152D02*
X1267595238Y-1012709771D01*
X1268071429Y-1013328819D02*
X1268071429Y-1012328819D01*
X1268500000Y-1013328819D02*
X1268500000Y-1012805009D01*
X1268500000Y-1012805009D02*
X1268452381Y-1012709771D01*
X1268452381Y-1012709771D02*
X1268357143Y-1012662152D01*
X1268357143Y-1012662152D02*
X1268214286Y-1012662152D01*
X1268214286Y-1012662152D02*
X1268119048Y-1012709771D01*
X1268119048Y-1012709771D02*
X1268071429Y-1012757390D01*
X1264166667Y-997533200D02*
X1264309524Y-997580819D01*
X1264309524Y-997580819D02*
X1264547619Y-997580819D01*
X1264547619Y-997580819D02*
X1264642857Y-997533200D01*
X1264642857Y-997533200D02*
X1264690476Y-997485580D01*
X1264690476Y-997485580D02*
X1264738095Y-997390342D01*
X1264738095Y-997390342D02*
X1264738095Y-997295104D01*
X1264738095Y-997295104D02*
X1264690476Y-997199866D01*
X1264690476Y-997199866D02*
X1264642857Y-997152247D01*
X1264642857Y-997152247D02*
X1264547619Y-997104628D01*
X1264547619Y-997104628D02*
X1264357143Y-997057009D01*
X1264357143Y-997057009D02*
X1264261905Y-997009390D01*
X1264261905Y-997009390D02*
X1264214286Y-996961771D01*
X1264214286Y-996961771D02*
X1264166667Y-996866533D01*
X1264166667Y-996866533D02*
X1264166667Y-996771295D01*
X1264166667Y-996771295D02*
X1264214286Y-996676057D01*
X1264214286Y-996676057D02*
X1264261905Y-996628438D01*
X1264261905Y-996628438D02*
X1264357143Y-996580819D01*
X1264357143Y-996580819D02*
X1264595238Y-996580819D01*
X1264595238Y-996580819D02*
X1264738095Y-996628438D01*
X1265071429Y-996580819D02*
X1265309524Y-997580819D01*
X1265309524Y-997580819D02*
X1265500000Y-996866533D01*
X1265500000Y-996866533D02*
X1265690476Y-997580819D01*
X1265690476Y-997580819D02*
X1265928572Y-996580819D01*
X1266738095Y-996914152D02*
X1266738095Y-997580819D01*
X1266500000Y-996533200D02*
X1266261905Y-997247485D01*
X1266261905Y-997247485D02*
X1266880952Y-997247485D01*
X1261738095Y-964947866D02*
X1261785714Y-964900247D01*
X1261785714Y-964900247D02*
X1261880952Y-964852628D01*
X1261880952Y-964852628D02*
X1262071428Y-964947866D01*
X1262071428Y-964947866D02*
X1262166666Y-964900247D01*
X1262166666Y-964900247D02*
X1262214285Y-964852628D01*
X1260666667Y-949533200D02*
X1260809524Y-949580819D01*
X1260809524Y-949580819D02*
X1261047619Y-949580819D01*
X1261047619Y-949580819D02*
X1261142857Y-949533200D01*
X1261142857Y-949533200D02*
X1261190476Y-949485580D01*
X1261190476Y-949485580D02*
X1261238095Y-949390342D01*
X1261238095Y-949390342D02*
X1261238095Y-949295104D01*
X1261238095Y-949295104D02*
X1261190476Y-949199866D01*
X1261190476Y-949199866D02*
X1261142857Y-949152247D01*
X1261142857Y-949152247D02*
X1261047619Y-949104628D01*
X1261047619Y-949104628D02*
X1260857143Y-949057009D01*
X1260857143Y-949057009D02*
X1260761905Y-949009390D01*
X1260761905Y-949009390D02*
X1260714286Y-948961771D01*
X1260714286Y-948961771D02*
X1260666667Y-948866533D01*
X1260666667Y-948866533D02*
X1260666667Y-948771295D01*
X1260666667Y-948771295D02*
X1260714286Y-948676057D01*
X1260714286Y-948676057D02*
X1260761905Y-948628438D01*
X1260761905Y-948628438D02*
X1260857143Y-948580819D01*
X1260857143Y-948580819D02*
X1261095238Y-948580819D01*
X1261095238Y-948580819D02*
X1261238095Y-948628438D01*
X1261571429Y-948580819D02*
X1261809524Y-949580819D01*
X1261809524Y-949580819D02*
X1262000000Y-948866533D01*
X1262000000Y-948866533D02*
X1262190476Y-949580819D01*
X1262190476Y-949580819D02*
X1262428572Y-948580819D01*
X1263333333Y-949580819D02*
X1262761905Y-949580819D01*
X1263047619Y-949580819D02*
X1263047619Y-948580819D01*
X1263047619Y-948580819D02*
X1262952381Y-948723676D01*
X1262952381Y-948723676D02*
X1262857143Y-948818914D01*
X1262857143Y-948818914D02*
X1262761905Y-948866533D01*
D11*
X1291114644Y-958093169D02*
X1291472276Y-958629617D01*
X1291472276Y-958093169D02*
X1291114644Y-958629617D01*
X1291676637Y-958629617D02*
X1291676637Y-958093169D01*
X1291906543Y-958476346D02*
X1292161995Y-958476346D01*
X1291855453Y-958629617D02*
X1292034269Y-958093169D01*
X1292034269Y-958093169D02*
X1292213085Y-958629617D01*
X1292494082Y-958093169D02*
X1292596262Y-958093169D01*
X1292596262Y-958093169D02*
X1292647353Y-958118714D01*
X1292647353Y-958118714D02*
X1292698443Y-958169804D01*
X1292698443Y-958169804D02*
X1292723988Y-958271985D01*
X1292723988Y-958271985D02*
X1292723988Y-958450801D01*
X1292723988Y-958450801D02*
X1292698443Y-958552981D01*
X1292698443Y-958552981D02*
X1292647353Y-958604072D01*
X1292647353Y-958604072D02*
X1292596262Y-958629617D01*
X1292596262Y-958629617D02*
X1292494082Y-958629617D01*
X1292494082Y-958629617D02*
X1292442992Y-958604072D01*
X1292442992Y-958604072D02*
X1292391901Y-958552981D01*
X1292391901Y-958552981D02*
X1292366356Y-958450801D01*
X1292366356Y-958450801D02*
X1292366356Y-958271985D01*
X1292366356Y-958271985D02*
X1292391901Y-958169804D01*
X1292391901Y-958169804D02*
X1292442992Y-958118714D01*
X1292442992Y-958118714D02*
X1292494082Y-958093169D01*
X1292953894Y-958425256D02*
X1293362617Y-958425256D01*
X1293618068Y-958348620D02*
X1293796884Y-958348620D01*
X1293873520Y-958629617D02*
X1293618068Y-958629617D01*
X1293618068Y-958629617D02*
X1293618068Y-958093169D01*
X1293618068Y-958093169D02*
X1293873520Y-958093169D01*
X1294077881Y-958604072D02*
X1294154517Y-958629617D01*
X1294154517Y-958629617D02*
X1294282242Y-958629617D01*
X1294282242Y-958629617D02*
X1294333333Y-958604072D01*
X1294333333Y-958604072D02*
X1294358878Y-958578526D01*
X1294358878Y-958578526D02*
X1294384423Y-958527436D01*
X1294384423Y-958527436D02*
X1294384423Y-958476346D01*
X1294384423Y-958476346D02*
X1294358878Y-958425256D01*
X1294358878Y-958425256D02*
X1294333333Y-958399710D01*
X1294333333Y-958399710D02*
X1294282242Y-958374165D01*
X1294282242Y-958374165D02*
X1294180062Y-958348620D01*
X1294180062Y-958348620D02*
X1294128971Y-958323075D01*
X1294128971Y-958323075D02*
X1294103426Y-958297530D01*
X1294103426Y-958297530D02*
X1294077881Y-958246440D01*
X1294077881Y-958246440D02*
X1294077881Y-958195349D01*
X1294077881Y-958195349D02*
X1294103426Y-958144259D01*
X1294103426Y-958144259D02*
X1294128971Y-958118714D01*
X1294128971Y-958118714D02*
X1294180062Y-958093169D01*
X1294180062Y-958093169D02*
X1294307787Y-958093169D01*
X1294307787Y-958093169D02*
X1294384423Y-958118714D01*
X1294614329Y-958629617D02*
X1294614329Y-958093169D01*
X1294614329Y-958093169D02*
X1294818690Y-958093169D01*
X1294818690Y-958093169D02*
X1294869781Y-958118714D01*
X1294869781Y-958118714D02*
X1294895326Y-958144259D01*
X1294895326Y-958144259D02*
X1294920871Y-958195349D01*
X1294920871Y-958195349D02*
X1294920871Y-958271985D01*
X1294920871Y-958271985D02*
X1294895326Y-958323075D01*
X1294895326Y-958323075D02*
X1294869781Y-958348620D01*
X1294869781Y-958348620D02*
X1294818690Y-958374165D01*
X1294818690Y-958374165D02*
X1294614329Y-958374165D01*
X1295099687Y-958093169D02*
X1295431774Y-958093169D01*
X1295431774Y-958093169D02*
X1295252958Y-958297530D01*
X1295252958Y-958297530D02*
X1295329593Y-958297530D01*
X1295329593Y-958297530D02*
X1295380684Y-958323075D01*
X1295380684Y-958323075D02*
X1295406229Y-958348620D01*
X1295406229Y-958348620D02*
X1295431774Y-958399710D01*
X1295431774Y-958399710D02*
X1295431774Y-958527436D01*
X1295431774Y-958527436D02*
X1295406229Y-958578526D01*
X1295406229Y-958578526D02*
X1295380684Y-958604072D01*
X1295380684Y-958604072D02*
X1295329593Y-958629617D01*
X1295329593Y-958629617D02*
X1295176322Y-958629617D01*
X1295176322Y-958629617D02*
X1295125232Y-958604072D01*
X1295125232Y-958604072D02*
X1295099687Y-958578526D01*
X1295636135Y-958144259D02*
X1295661680Y-958118714D01*
X1295661680Y-958118714D02*
X1295712771Y-958093169D01*
X1295712771Y-958093169D02*
X1295840496Y-958093169D01*
X1295840496Y-958093169D02*
X1295891587Y-958118714D01*
X1295891587Y-958118714D02*
X1295917132Y-958144259D01*
X1295917132Y-958144259D02*
X1295942677Y-958195349D01*
X1295942677Y-958195349D02*
X1295942677Y-958246440D01*
X1295942677Y-958246440D02*
X1295917132Y-958323075D01*
X1295917132Y-958323075D02*
X1295610590Y-958629617D01*
X1295610590Y-958629617D02*
X1295942677Y-958629617D01*
X1296172583Y-958425256D02*
X1296581306Y-958425256D01*
X1297143299Y-958578526D02*
X1297117754Y-958604072D01*
X1297117754Y-958604072D02*
X1297041118Y-958629617D01*
X1297041118Y-958629617D02*
X1296990028Y-958629617D01*
X1296990028Y-958629617D02*
X1296913393Y-958604072D01*
X1296913393Y-958604072D02*
X1296862302Y-958552981D01*
X1296862302Y-958552981D02*
X1296836757Y-958501891D01*
X1296836757Y-958501891D02*
X1296811212Y-958399710D01*
X1296811212Y-958399710D02*
X1296811212Y-958323075D01*
X1296811212Y-958323075D02*
X1296836757Y-958220894D01*
X1296836757Y-958220894D02*
X1296862302Y-958169804D01*
X1296862302Y-958169804D02*
X1296913393Y-958118714D01*
X1296913393Y-958118714D02*
X1296990028Y-958093169D01*
X1296990028Y-958093169D02*
X1297041118Y-958093169D01*
X1297041118Y-958093169D02*
X1297117754Y-958118714D01*
X1297117754Y-958118714D02*
X1297143299Y-958144259D01*
X1297322115Y-958093169D02*
X1297654202Y-958093169D01*
X1297654202Y-958093169D02*
X1297475386Y-958297530D01*
X1297475386Y-958297530D02*
X1297552021Y-958297530D01*
X1297552021Y-958297530D02*
X1297603112Y-958323075D01*
X1297603112Y-958323075D02*
X1297628657Y-958348620D01*
X1297628657Y-958348620D02*
X1297654202Y-958399710D01*
X1297654202Y-958399710D02*
X1297654202Y-958527436D01*
X1297654202Y-958527436D02*
X1297628657Y-958578526D01*
X1297628657Y-958578526D02*
X1297603112Y-958604072D01*
X1297603112Y-958604072D02*
X1297552021Y-958629617D01*
X1297552021Y-958629617D02*
X1297398750Y-958629617D01*
X1297398750Y-958629617D02*
X1297347660Y-958604072D01*
X1297347660Y-958604072D02*
X1297322115Y-958578526D01*
X1297884108Y-958425256D02*
X1298292831Y-958425256D01*
X1298522737Y-958604072D02*
X1298599373Y-958629617D01*
X1298599373Y-958629617D02*
X1298727098Y-958629617D01*
X1298727098Y-958629617D02*
X1298778189Y-958604072D01*
X1298778189Y-958604072D02*
X1298803734Y-958578526D01*
X1298803734Y-958578526D02*
X1298829279Y-958527436D01*
X1298829279Y-958527436D02*
X1298829279Y-958476346D01*
X1298829279Y-958476346D02*
X1298803734Y-958425256D01*
X1298803734Y-958425256D02*
X1298778189Y-958399710D01*
X1298778189Y-958399710D02*
X1298727098Y-958374165D01*
X1298727098Y-958374165D02*
X1298624918Y-958348620D01*
X1298624918Y-958348620D02*
X1298573827Y-958323075D01*
X1298573827Y-958323075D02*
X1298548282Y-958297530D01*
X1298548282Y-958297530D02*
X1298522737Y-958246440D01*
X1298522737Y-958246440D02*
X1298522737Y-958195349D01*
X1298522737Y-958195349D02*
X1298548282Y-958144259D01*
X1298548282Y-958144259D02*
X1298573827Y-958118714D01*
X1298573827Y-958118714D02*
X1298624918Y-958093169D01*
X1298624918Y-958093169D02*
X1298752643Y-958093169D01*
X1298752643Y-958093169D02*
X1298829279Y-958118714D01*
X1299059185Y-958629617D02*
X1299059185Y-958093169D01*
X1299059185Y-958093169D02*
X1299238001Y-958476346D01*
X1299238001Y-958476346D02*
X1299416817Y-958093169D01*
X1299416817Y-958093169D02*
X1299416817Y-958629617D01*
X1299672268Y-958629617D02*
X1299672268Y-958093169D01*
X1299672268Y-958093169D02*
X1299799994Y-958093169D01*
X1299799994Y-958093169D02*
X1299876629Y-958118714D01*
X1299876629Y-958118714D02*
X1299927720Y-958169804D01*
X1299927720Y-958169804D02*
X1299953265Y-958220894D01*
X1299953265Y-958220894D02*
X1299978810Y-958323075D01*
X1299978810Y-958323075D02*
X1299978810Y-958399710D01*
X1299978810Y-958399710D02*
X1299953265Y-958501891D01*
X1299953265Y-958501891D02*
X1299927720Y-958552981D01*
X1299927720Y-958552981D02*
X1299876629Y-958604072D01*
X1299876629Y-958604072D02*
X1299799994Y-958629617D01*
X1299799994Y-958629617D02*
X1299672268Y-958629617D01*
D10*
X1316213152Y-962912857D02*
X1316213152Y-962531905D01*
X1315879819Y-962770000D02*
X1316736961Y-962770000D01*
X1316736961Y-962770000D02*
X1316832200Y-962722381D01*
X1316832200Y-962722381D02*
X1316879819Y-962627143D01*
X1316879819Y-962627143D02*
X1316879819Y-962531905D01*
X1316213152Y-962341428D02*
X1316213152Y-961960476D01*
X1316879819Y-962198571D02*
X1316022676Y-962198571D01*
X1316022676Y-962198571D02*
X1315927438Y-962150952D01*
X1315927438Y-962150952D02*
X1315879819Y-962055714D01*
X1315879819Y-962055714D02*
X1315879819Y-961960476D01*
X1316213152Y-961769999D02*
X1316213152Y-961389047D01*
X1315879819Y-961627142D02*
X1316736961Y-961627142D01*
X1316736961Y-961627142D02*
X1316832200Y-961579523D01*
X1316832200Y-961579523D02*
X1316879819Y-961484285D01*
X1316879819Y-961484285D02*
X1316879819Y-961389047D01*
X1316975057Y-961293809D02*
X1316975057Y-960531904D01*
X1316879819Y-960293808D02*
X1315879819Y-960293808D01*
X1316879819Y-959865237D02*
X1316356009Y-959865237D01*
X1316356009Y-959865237D02*
X1316260771Y-959912856D01*
X1316260771Y-959912856D02*
X1316213152Y-960008094D01*
X1316213152Y-960008094D02*
X1316213152Y-960150951D01*
X1316213152Y-960150951D02*
X1316260771Y-960246189D01*
X1316260771Y-960246189D02*
X1316308390Y-960293808D01*
X1316832200Y-959008094D02*
X1316879819Y-959103332D01*
X1316879819Y-959103332D02*
X1316879819Y-959293808D01*
X1316879819Y-959293808D02*
X1316832200Y-959389046D01*
X1316832200Y-959389046D02*
X1316736961Y-959436665D01*
X1316736961Y-959436665D02*
X1316356009Y-959436665D01*
X1316356009Y-959436665D02*
X1316260771Y-959389046D01*
X1316260771Y-959389046D02*
X1316213152Y-959293808D01*
X1316213152Y-959293808D02*
X1316213152Y-959103332D01*
X1316213152Y-959103332D02*
X1316260771Y-959008094D01*
X1316260771Y-959008094D02*
X1316356009Y-958960475D01*
X1316356009Y-958960475D02*
X1316451247Y-958960475D01*
X1316451247Y-958960475D02*
X1316546485Y-959436665D01*
X1316879819Y-958103332D02*
X1316356009Y-958103332D01*
X1316356009Y-958103332D02*
X1316260771Y-958150951D01*
X1316260771Y-958150951D02*
X1316213152Y-958246189D01*
X1316213152Y-958246189D02*
X1316213152Y-958436665D01*
X1316213152Y-958436665D02*
X1316260771Y-958531903D01*
X1316832200Y-958103332D02*
X1316879819Y-958198570D01*
X1316879819Y-958198570D02*
X1316879819Y-958436665D01*
X1316879819Y-958436665D02*
X1316832200Y-958531903D01*
X1316832200Y-958531903D02*
X1316736961Y-958579522D01*
X1316736961Y-958579522D02*
X1316641723Y-958579522D01*
X1316641723Y-958579522D02*
X1316546485Y-958531903D01*
X1316546485Y-958531903D02*
X1316498866Y-958436665D01*
X1316498866Y-958436665D02*
X1316498866Y-958198570D01*
X1316498866Y-958198570D02*
X1316451247Y-958103332D01*
X1316879819Y-957198570D02*
X1315879819Y-957198570D01*
X1316832200Y-957198570D02*
X1316879819Y-957293808D01*
X1316879819Y-957293808D02*
X1316879819Y-957484284D01*
X1316879819Y-957484284D02*
X1316832200Y-957579522D01*
X1316832200Y-957579522D02*
X1316784580Y-957627141D01*
X1316784580Y-957627141D02*
X1316689342Y-957674760D01*
X1316689342Y-957674760D02*
X1316403628Y-957674760D01*
X1316403628Y-957674760D02*
X1316308390Y-957627141D01*
X1316308390Y-957627141D02*
X1316260771Y-957579522D01*
X1316260771Y-957579522D02*
X1316213152Y-957484284D01*
X1316213152Y-957484284D02*
X1316213152Y-957293808D01*
X1316213152Y-957293808D02*
X1316260771Y-957198570D01*
X1316832200Y-956341427D02*
X1316879819Y-956436665D01*
X1316879819Y-956436665D02*
X1316879819Y-956627141D01*
X1316879819Y-956627141D02*
X1316832200Y-956722379D01*
X1316832200Y-956722379D02*
X1316736961Y-956769998D01*
X1316736961Y-956769998D02*
X1316356009Y-956769998D01*
X1316356009Y-956769998D02*
X1316260771Y-956722379D01*
X1316260771Y-956722379D02*
X1316213152Y-956627141D01*
X1316213152Y-956627141D02*
X1316213152Y-956436665D01*
X1316213152Y-956436665D02*
X1316260771Y-956341427D01*
X1316260771Y-956341427D02*
X1316356009Y-956293808D01*
X1316356009Y-956293808D02*
X1316451247Y-956293808D01*
X1316451247Y-956293808D02*
X1316546485Y-956769998D01*
X1316879819Y-955865236D02*
X1316213152Y-955865236D01*
X1316403628Y-955865236D02*
X1316308390Y-955817617D01*
X1316308390Y-955817617D02*
X1316260771Y-955769998D01*
X1316260771Y-955769998D02*
X1316213152Y-955674760D01*
X1316213152Y-955674760D02*
X1316213152Y-955579522D01*
X1316879819Y-954722379D02*
X1316879819Y-955293807D01*
X1316879819Y-955008093D02*
X1315879819Y-955008093D01*
X1315879819Y-955008093D02*
X1316022676Y-955103331D01*
X1316022676Y-955103331D02*
X1316117914Y-955198569D01*
X1316117914Y-955198569D02*
X1316165533Y-955293807D01*
X1313452381Y-1012781200D02*
X1313595238Y-1012828819D01*
X1313595238Y-1012828819D02*
X1313833333Y-1012828819D01*
X1313833333Y-1012828819D02*
X1313928571Y-1012781200D01*
X1313928571Y-1012781200D02*
X1313976190Y-1012733580D01*
X1313976190Y-1012733580D02*
X1314023809Y-1012638342D01*
X1314023809Y-1012638342D02*
X1314023809Y-1012543104D01*
X1314023809Y-1012543104D02*
X1313976190Y-1012447866D01*
X1313976190Y-1012447866D02*
X1313928571Y-1012400247D01*
X1313928571Y-1012400247D02*
X1313833333Y-1012352628D01*
X1313833333Y-1012352628D02*
X1313642857Y-1012305009D01*
X1313642857Y-1012305009D02*
X1313547619Y-1012257390D01*
X1313547619Y-1012257390D02*
X1313500000Y-1012209771D01*
X1313500000Y-1012209771D02*
X1313452381Y-1012114533D01*
X1313452381Y-1012114533D02*
X1313452381Y-1012019295D01*
X1313452381Y-1012019295D02*
X1313500000Y-1011924057D01*
X1313500000Y-1011924057D02*
X1313547619Y-1011876438D01*
X1313547619Y-1011876438D02*
X1313642857Y-1011828819D01*
X1313642857Y-1011828819D02*
X1313880952Y-1011828819D01*
X1313880952Y-1011828819D02*
X1314023809Y-1011876438D01*
X1314357143Y-1011828819D02*
X1314595238Y-1012828819D01*
X1314595238Y-1012828819D02*
X1314785714Y-1012114533D01*
X1314785714Y-1012114533D02*
X1314976190Y-1012828819D01*
X1314976190Y-1012828819D02*
X1315214286Y-1011828819D01*
X1315357143Y-1012924057D02*
X1316119047Y-1012924057D01*
X1316357143Y-1012828819D02*
X1316357143Y-1011828819D01*
X1316357143Y-1011828819D02*
X1316738095Y-1011828819D01*
X1316738095Y-1011828819D02*
X1316833333Y-1011876438D01*
X1316833333Y-1011876438D02*
X1316880952Y-1011924057D01*
X1316880952Y-1011924057D02*
X1316928571Y-1012019295D01*
X1316928571Y-1012019295D02*
X1316928571Y-1012162152D01*
X1316928571Y-1012162152D02*
X1316880952Y-1012257390D01*
X1316880952Y-1012257390D02*
X1316833333Y-1012305009D01*
X1316833333Y-1012305009D02*
X1316738095Y-1012352628D01*
X1316738095Y-1012352628D02*
X1316357143Y-1012352628D01*
X1317785714Y-1012162152D02*
X1317785714Y-1012828819D01*
X1317357143Y-1012162152D02*
X1317357143Y-1012685961D01*
X1317357143Y-1012685961D02*
X1317404762Y-1012781200D01*
X1317404762Y-1012781200D02*
X1317500000Y-1012828819D01*
X1317500000Y-1012828819D02*
X1317642857Y-1012828819D01*
X1317642857Y-1012828819D02*
X1317738095Y-1012781200D01*
X1317738095Y-1012781200D02*
X1317785714Y-1012733580D01*
X1318214286Y-1012781200D02*
X1318309524Y-1012828819D01*
X1318309524Y-1012828819D02*
X1318500000Y-1012828819D01*
X1318500000Y-1012828819D02*
X1318595238Y-1012781200D01*
X1318595238Y-1012781200D02*
X1318642857Y-1012685961D01*
X1318642857Y-1012685961D02*
X1318642857Y-1012638342D01*
X1318642857Y-1012638342D02*
X1318595238Y-1012543104D01*
X1318595238Y-1012543104D02*
X1318500000Y-1012495485D01*
X1318500000Y-1012495485D02*
X1318357143Y-1012495485D01*
X1318357143Y-1012495485D02*
X1318261905Y-1012447866D01*
X1318261905Y-1012447866D02*
X1318214286Y-1012352628D01*
X1318214286Y-1012352628D02*
X1318214286Y-1012305009D01*
X1318214286Y-1012305009D02*
X1318261905Y-1012209771D01*
X1318261905Y-1012209771D02*
X1318357143Y-1012162152D01*
X1318357143Y-1012162152D02*
X1318500000Y-1012162152D01*
X1318500000Y-1012162152D02*
X1318595238Y-1012209771D01*
X1319071429Y-1012828819D02*
X1319071429Y-1011828819D01*
X1319500000Y-1012828819D02*
X1319500000Y-1012305009D01*
X1319500000Y-1012305009D02*
X1319452381Y-1012209771D01*
X1319452381Y-1012209771D02*
X1319357143Y-1012162152D01*
X1319357143Y-1012162152D02*
X1319214286Y-1012162152D01*
X1319214286Y-1012162152D02*
X1319119048Y-1012209771D01*
X1319119048Y-1012209771D02*
X1319071429Y-1012257390D01*
X1315166667Y-997033200D02*
X1315309524Y-997080819D01*
X1315309524Y-997080819D02*
X1315547619Y-997080819D01*
X1315547619Y-997080819D02*
X1315642857Y-997033200D01*
X1315642857Y-997033200D02*
X1315690476Y-996985580D01*
X1315690476Y-996985580D02*
X1315738095Y-996890342D01*
X1315738095Y-996890342D02*
X1315738095Y-996795104D01*
X1315738095Y-996795104D02*
X1315690476Y-996699866D01*
X1315690476Y-996699866D02*
X1315642857Y-996652247D01*
X1315642857Y-996652247D02*
X1315547619Y-996604628D01*
X1315547619Y-996604628D02*
X1315357143Y-996557009D01*
X1315357143Y-996557009D02*
X1315261905Y-996509390D01*
X1315261905Y-996509390D02*
X1315214286Y-996461771D01*
X1315214286Y-996461771D02*
X1315166667Y-996366533D01*
X1315166667Y-996366533D02*
X1315166667Y-996271295D01*
X1315166667Y-996271295D02*
X1315214286Y-996176057D01*
X1315214286Y-996176057D02*
X1315261905Y-996128438D01*
X1315261905Y-996128438D02*
X1315357143Y-996080819D01*
X1315357143Y-996080819D02*
X1315595238Y-996080819D01*
X1315595238Y-996080819D02*
X1315738095Y-996128438D01*
X1316071429Y-996080819D02*
X1316309524Y-997080819D01*
X1316309524Y-997080819D02*
X1316500000Y-996366533D01*
X1316500000Y-996366533D02*
X1316690476Y-997080819D01*
X1316690476Y-997080819D02*
X1316928572Y-996080819D01*
X1317214286Y-996080819D02*
X1317880952Y-996080819D01*
X1317880952Y-996080819D02*
X1317452381Y-997080819D01*
X1339238095Y-965947866D02*
X1339285714Y-965900247D01*
X1339285714Y-965900247D02*
X1339380952Y-965852628D01*
X1339380952Y-965852628D02*
X1339571428Y-965947866D01*
X1339571428Y-965947866D02*
X1339666666Y-965900247D01*
X1339666666Y-965900247D02*
X1339714285Y-965852628D01*
X1338166667Y-950533200D02*
X1338309524Y-950580819D01*
X1338309524Y-950580819D02*
X1338547619Y-950580819D01*
X1338547619Y-950580819D02*
X1338642857Y-950533200D01*
X1338642857Y-950533200D02*
X1338690476Y-950485580D01*
X1338690476Y-950485580D02*
X1338738095Y-950390342D01*
X1338738095Y-950390342D02*
X1338738095Y-950295104D01*
X1338738095Y-950295104D02*
X1338690476Y-950199866D01*
X1338690476Y-950199866D02*
X1338642857Y-950152247D01*
X1338642857Y-950152247D02*
X1338547619Y-950104628D01*
X1338547619Y-950104628D02*
X1338357143Y-950057009D01*
X1338357143Y-950057009D02*
X1338261905Y-950009390D01*
X1338261905Y-950009390D02*
X1338214286Y-949961771D01*
X1338214286Y-949961771D02*
X1338166667Y-949866533D01*
X1338166667Y-949866533D02*
X1338166667Y-949771295D01*
X1338166667Y-949771295D02*
X1338214286Y-949676057D01*
X1338214286Y-949676057D02*
X1338261905Y-949628438D01*
X1338261905Y-949628438D02*
X1338357143Y-949580819D01*
X1338357143Y-949580819D02*
X1338595238Y-949580819D01*
X1338595238Y-949580819D02*
X1338738095Y-949628438D01*
X1339071429Y-949580819D02*
X1339309524Y-950580819D01*
X1339309524Y-950580819D02*
X1339500000Y-949866533D01*
X1339500000Y-949866533D02*
X1339690476Y-950580819D01*
X1339690476Y-950580819D02*
X1339928572Y-949580819D01*
X1340261905Y-949676057D02*
X1340309524Y-949628438D01*
X1340309524Y-949628438D02*
X1340404762Y-949580819D01*
X1340404762Y-949580819D02*
X1340642857Y-949580819D01*
X1340642857Y-949580819D02*
X1340738095Y-949628438D01*
X1340738095Y-949628438D02*
X1340785714Y-949676057D01*
X1340785714Y-949676057D02*
X1340833333Y-949771295D01*
X1340833333Y-949771295D02*
X1340833333Y-949866533D01*
X1340833333Y-949866533D02*
X1340785714Y-950009390D01*
X1340785714Y-950009390D02*
X1340214286Y-950580819D01*
X1340214286Y-950580819D02*
X1340833333Y-950580819D01*
X1347714285Y-949604819D02*
X1347714285Y-948604819D01*
X1347714285Y-948604819D02*
X1348047618Y-949319104D01*
X1348047618Y-949319104D02*
X1348380951Y-948604819D01*
X1348380951Y-948604819D02*
X1348380951Y-949604819D01*
X1348999999Y-949604819D02*
X1348904761Y-949557200D01*
X1348904761Y-949557200D02*
X1348857142Y-949509580D01*
X1348857142Y-949509580D02*
X1348809523Y-949414342D01*
X1348809523Y-949414342D02*
X1348809523Y-949128628D01*
X1348809523Y-949128628D02*
X1348857142Y-949033390D01*
X1348857142Y-949033390D02*
X1348904761Y-948985771D01*
X1348904761Y-948985771D02*
X1348999999Y-948938152D01*
X1348999999Y-948938152D02*
X1349142856Y-948938152D01*
X1349142856Y-948938152D02*
X1349238094Y-948985771D01*
X1349238094Y-948985771D02*
X1349285713Y-949033390D01*
X1349285713Y-949033390D02*
X1349333332Y-949128628D01*
X1349333332Y-949128628D02*
X1349333332Y-949414342D01*
X1349333332Y-949414342D02*
X1349285713Y-949509580D01*
X1349285713Y-949509580D02*
X1349238094Y-949557200D01*
X1349238094Y-949557200D02*
X1349142856Y-949604819D01*
X1349142856Y-949604819D02*
X1348999999Y-949604819D01*
X1350190475Y-948938152D02*
X1350190475Y-949604819D01*
X1349761904Y-948938152D02*
X1349761904Y-949461961D01*
X1349761904Y-949461961D02*
X1349809523Y-949557200D01*
X1349809523Y-949557200D02*
X1349904761Y-949604819D01*
X1349904761Y-949604819D02*
X1350047618Y-949604819D01*
X1350047618Y-949604819D02*
X1350142856Y-949557200D01*
X1350142856Y-949557200D02*
X1350190475Y-949509580D01*
X1350666666Y-948938152D02*
X1350666666Y-949604819D01*
X1350666666Y-949033390D02*
X1350714285Y-948985771D01*
X1350714285Y-948985771D02*
X1350809523Y-948938152D01*
X1350809523Y-948938152D02*
X1350952380Y-948938152D01*
X1350952380Y-948938152D02*
X1351047618Y-948985771D01*
X1351047618Y-948985771D02*
X1351095237Y-949081009D01*
X1351095237Y-949081009D02*
X1351095237Y-949604819D01*
X1351428571Y-948938152D02*
X1351809523Y-948938152D01*
X1351571428Y-948604819D02*
X1351571428Y-949461961D01*
X1351571428Y-949461961D02*
X1351619047Y-949557200D01*
X1351619047Y-949557200D02*
X1351714285Y-949604819D01*
X1351714285Y-949604819D02*
X1351809523Y-949604819D01*
X1352142857Y-949604819D02*
X1352142857Y-948938152D01*
X1352142857Y-948604819D02*
X1352095238Y-948652438D01*
X1352095238Y-948652438D02*
X1352142857Y-948700057D01*
X1352142857Y-948700057D02*
X1352190476Y-948652438D01*
X1352190476Y-948652438D02*
X1352142857Y-948604819D01*
X1352142857Y-948604819D02*
X1352142857Y-948700057D01*
X1352619047Y-948938152D02*
X1352619047Y-949604819D01*
X1352619047Y-949033390D02*
X1352666666Y-948985771D01*
X1352666666Y-948985771D02*
X1352761904Y-948938152D01*
X1352761904Y-948938152D02*
X1352904761Y-948938152D01*
X1352904761Y-948938152D02*
X1352999999Y-948985771D01*
X1352999999Y-948985771D02*
X1353047618Y-949081009D01*
X1353047618Y-949081009D02*
X1353047618Y-949604819D01*
X1353952380Y-948938152D02*
X1353952380Y-949747676D01*
X1353952380Y-949747676D02*
X1353904761Y-949842914D01*
X1353904761Y-949842914D02*
X1353857142Y-949890533D01*
X1353857142Y-949890533D02*
X1353761904Y-949938152D01*
X1353761904Y-949938152D02*
X1353619047Y-949938152D01*
X1353619047Y-949938152D02*
X1353523809Y-949890533D01*
X1353952380Y-949557200D02*
X1353857142Y-949604819D01*
X1353857142Y-949604819D02*
X1353666666Y-949604819D01*
X1353666666Y-949604819D02*
X1353571428Y-949557200D01*
X1353571428Y-949557200D02*
X1353523809Y-949509580D01*
X1353523809Y-949509580D02*
X1353476190Y-949414342D01*
X1353476190Y-949414342D02*
X1353476190Y-949128628D01*
X1353476190Y-949128628D02*
X1353523809Y-949033390D01*
X1353523809Y-949033390D02*
X1353571428Y-948985771D01*
X1353571428Y-948985771D02*
X1353666666Y-948938152D01*
X1353666666Y-948938152D02*
X1353857142Y-948938152D01*
X1353857142Y-948938152D02*
X1353952380Y-948985771D01*
X1354428571Y-949604819D02*
X1354428571Y-948604819D01*
X1354428571Y-949081009D02*
X1354999999Y-949081009D01*
X1354999999Y-949604819D02*
X1354999999Y-948604819D01*
X1355619047Y-949604819D02*
X1355523809Y-949557200D01*
X1355523809Y-949557200D02*
X1355476190Y-949509580D01*
X1355476190Y-949509580D02*
X1355428571Y-949414342D01*
X1355428571Y-949414342D02*
X1355428571Y-949128628D01*
X1355428571Y-949128628D02*
X1355476190Y-949033390D01*
X1355476190Y-949033390D02*
X1355523809Y-948985771D01*
X1355523809Y-948985771D02*
X1355619047Y-948938152D01*
X1355619047Y-948938152D02*
X1355761904Y-948938152D01*
X1355761904Y-948938152D02*
X1355857142Y-948985771D01*
X1355857142Y-948985771D02*
X1355904761Y-949033390D01*
X1355904761Y-949033390D02*
X1355952380Y-949128628D01*
X1355952380Y-949128628D02*
X1355952380Y-949414342D01*
X1355952380Y-949414342D02*
X1355904761Y-949509580D01*
X1355904761Y-949509580D02*
X1355857142Y-949557200D01*
X1355857142Y-949557200D02*
X1355761904Y-949604819D01*
X1355761904Y-949604819D02*
X1355619047Y-949604819D01*
X1356523809Y-949604819D02*
X1356428571Y-949557200D01*
X1356428571Y-949557200D02*
X1356380952Y-949461961D01*
X1356380952Y-949461961D02*
X1356380952Y-948604819D01*
X1357285714Y-949557200D02*
X1357190476Y-949604819D01*
X1357190476Y-949604819D02*
X1357000000Y-949604819D01*
X1357000000Y-949604819D02*
X1356904762Y-949557200D01*
X1356904762Y-949557200D02*
X1356857143Y-949461961D01*
X1356857143Y-949461961D02*
X1356857143Y-949081009D01*
X1356857143Y-949081009D02*
X1356904762Y-948985771D01*
X1356904762Y-948985771D02*
X1357000000Y-948938152D01*
X1357000000Y-948938152D02*
X1357190476Y-948938152D01*
X1357190476Y-948938152D02*
X1357285714Y-948985771D01*
X1357285714Y-948985771D02*
X1357333333Y-949081009D01*
X1357333333Y-949081009D02*
X1357333333Y-949176247D01*
X1357333333Y-949176247D02*
X1356857143Y-949271485D01*
X1351738095Y-945454819D02*
X1351738095Y-944454819D01*
X1351738095Y-944931009D02*
X1352309523Y-944931009D01*
X1352309523Y-945454819D02*
X1352309523Y-944454819D01*
X1353214285Y-944788152D02*
X1353214285Y-945454819D01*
X1352976190Y-944407200D02*
X1352738095Y-945121485D01*
X1352738095Y-945121485D02*
X1353357142Y-945121485D01*
X1347714285Y-1019604819D02*
X1347714285Y-1018604819D01*
X1347714285Y-1018604819D02*
X1348047618Y-1019319104D01*
X1348047618Y-1019319104D02*
X1348380951Y-1018604819D01*
X1348380951Y-1018604819D02*
X1348380951Y-1019604819D01*
X1348999999Y-1019604819D02*
X1348904761Y-1019557200D01*
X1348904761Y-1019557200D02*
X1348857142Y-1019509580D01*
X1348857142Y-1019509580D02*
X1348809523Y-1019414342D01*
X1348809523Y-1019414342D02*
X1348809523Y-1019128628D01*
X1348809523Y-1019128628D02*
X1348857142Y-1019033390D01*
X1348857142Y-1019033390D02*
X1348904761Y-1018985771D01*
X1348904761Y-1018985771D02*
X1348999999Y-1018938152D01*
X1348999999Y-1018938152D02*
X1349142856Y-1018938152D01*
X1349142856Y-1018938152D02*
X1349238094Y-1018985771D01*
X1349238094Y-1018985771D02*
X1349285713Y-1019033390D01*
X1349285713Y-1019033390D02*
X1349333332Y-1019128628D01*
X1349333332Y-1019128628D02*
X1349333332Y-1019414342D01*
X1349333332Y-1019414342D02*
X1349285713Y-1019509580D01*
X1349285713Y-1019509580D02*
X1349238094Y-1019557200D01*
X1349238094Y-1019557200D02*
X1349142856Y-1019604819D01*
X1349142856Y-1019604819D02*
X1348999999Y-1019604819D01*
X1350190475Y-1018938152D02*
X1350190475Y-1019604819D01*
X1349761904Y-1018938152D02*
X1349761904Y-1019461961D01*
X1349761904Y-1019461961D02*
X1349809523Y-1019557200D01*
X1349809523Y-1019557200D02*
X1349904761Y-1019604819D01*
X1349904761Y-1019604819D02*
X1350047618Y-1019604819D01*
X1350047618Y-1019604819D02*
X1350142856Y-1019557200D01*
X1350142856Y-1019557200D02*
X1350190475Y-1019509580D01*
X1350666666Y-1018938152D02*
X1350666666Y-1019604819D01*
X1350666666Y-1019033390D02*
X1350714285Y-1018985771D01*
X1350714285Y-1018985771D02*
X1350809523Y-1018938152D01*
X1350809523Y-1018938152D02*
X1350952380Y-1018938152D01*
X1350952380Y-1018938152D02*
X1351047618Y-1018985771D01*
X1351047618Y-1018985771D02*
X1351095237Y-1019081009D01*
X1351095237Y-1019081009D02*
X1351095237Y-1019604819D01*
X1351428571Y-1018938152D02*
X1351809523Y-1018938152D01*
X1351571428Y-1018604819D02*
X1351571428Y-1019461961D01*
X1351571428Y-1019461961D02*
X1351619047Y-1019557200D01*
X1351619047Y-1019557200D02*
X1351714285Y-1019604819D01*
X1351714285Y-1019604819D02*
X1351809523Y-1019604819D01*
X1352142857Y-1019604819D02*
X1352142857Y-1018938152D01*
X1352142857Y-1018604819D02*
X1352095238Y-1018652438D01*
X1352095238Y-1018652438D02*
X1352142857Y-1018700057D01*
X1352142857Y-1018700057D02*
X1352190476Y-1018652438D01*
X1352190476Y-1018652438D02*
X1352142857Y-1018604819D01*
X1352142857Y-1018604819D02*
X1352142857Y-1018700057D01*
X1352619047Y-1018938152D02*
X1352619047Y-1019604819D01*
X1352619047Y-1019033390D02*
X1352666666Y-1018985771D01*
X1352666666Y-1018985771D02*
X1352761904Y-1018938152D01*
X1352761904Y-1018938152D02*
X1352904761Y-1018938152D01*
X1352904761Y-1018938152D02*
X1352999999Y-1018985771D01*
X1352999999Y-1018985771D02*
X1353047618Y-1019081009D01*
X1353047618Y-1019081009D02*
X1353047618Y-1019604819D01*
X1353952380Y-1018938152D02*
X1353952380Y-1019747676D01*
X1353952380Y-1019747676D02*
X1353904761Y-1019842914D01*
X1353904761Y-1019842914D02*
X1353857142Y-1019890533D01*
X1353857142Y-1019890533D02*
X1353761904Y-1019938152D01*
X1353761904Y-1019938152D02*
X1353619047Y-1019938152D01*
X1353619047Y-1019938152D02*
X1353523809Y-1019890533D01*
X1353952380Y-1019557200D02*
X1353857142Y-1019604819D01*
X1353857142Y-1019604819D02*
X1353666666Y-1019604819D01*
X1353666666Y-1019604819D02*
X1353571428Y-1019557200D01*
X1353571428Y-1019557200D02*
X1353523809Y-1019509580D01*
X1353523809Y-1019509580D02*
X1353476190Y-1019414342D01*
X1353476190Y-1019414342D02*
X1353476190Y-1019128628D01*
X1353476190Y-1019128628D02*
X1353523809Y-1019033390D01*
X1353523809Y-1019033390D02*
X1353571428Y-1018985771D01*
X1353571428Y-1018985771D02*
X1353666666Y-1018938152D01*
X1353666666Y-1018938152D02*
X1353857142Y-1018938152D01*
X1353857142Y-1018938152D02*
X1353952380Y-1018985771D01*
X1354428571Y-1019604819D02*
X1354428571Y-1018604819D01*
X1354428571Y-1019081009D02*
X1354999999Y-1019081009D01*
X1354999999Y-1019604819D02*
X1354999999Y-1018604819D01*
X1355619047Y-1019604819D02*
X1355523809Y-1019557200D01*
X1355523809Y-1019557200D02*
X1355476190Y-1019509580D01*
X1355476190Y-1019509580D02*
X1355428571Y-1019414342D01*
X1355428571Y-1019414342D02*
X1355428571Y-1019128628D01*
X1355428571Y-1019128628D02*
X1355476190Y-1019033390D01*
X1355476190Y-1019033390D02*
X1355523809Y-1018985771D01*
X1355523809Y-1018985771D02*
X1355619047Y-1018938152D01*
X1355619047Y-1018938152D02*
X1355761904Y-1018938152D01*
X1355761904Y-1018938152D02*
X1355857142Y-1018985771D01*
X1355857142Y-1018985771D02*
X1355904761Y-1019033390D01*
X1355904761Y-1019033390D02*
X1355952380Y-1019128628D01*
X1355952380Y-1019128628D02*
X1355952380Y-1019414342D01*
X1355952380Y-1019414342D02*
X1355904761Y-1019509580D01*
X1355904761Y-1019509580D02*
X1355857142Y-1019557200D01*
X1355857142Y-1019557200D02*
X1355761904Y-1019604819D01*
X1355761904Y-1019604819D02*
X1355619047Y-1019604819D01*
X1356523809Y-1019604819D02*
X1356428571Y-1019557200D01*
X1356428571Y-1019557200D02*
X1356380952Y-1019461961D01*
X1356380952Y-1019461961D02*
X1356380952Y-1018604819D01*
X1357285714Y-1019557200D02*
X1357190476Y-1019604819D01*
X1357190476Y-1019604819D02*
X1357000000Y-1019604819D01*
X1357000000Y-1019604819D02*
X1356904762Y-1019557200D01*
X1356904762Y-1019557200D02*
X1356857143Y-1019461961D01*
X1356857143Y-1019461961D02*
X1356857143Y-1019081009D01*
X1356857143Y-1019081009D02*
X1356904762Y-1018985771D01*
X1356904762Y-1018985771D02*
X1357000000Y-1018938152D01*
X1357000000Y-1018938152D02*
X1357190476Y-1018938152D01*
X1357190476Y-1018938152D02*
X1357285714Y-1018985771D01*
X1357285714Y-1018985771D02*
X1357333333Y-1019081009D01*
X1357333333Y-1019081009D02*
X1357333333Y-1019176247D01*
X1357333333Y-1019176247D02*
X1356857143Y-1019271485D01*
X1351738095Y-1015454819D02*
X1351738095Y-1014454819D01*
X1351738095Y-1014931009D02*
X1352309523Y-1014931009D01*
X1352309523Y-1015454819D02*
X1352309523Y-1014454819D01*
X1352690476Y-1014454819D02*
X1353309523Y-1014454819D01*
X1353309523Y-1014454819D02*
X1352976190Y-1014835771D01*
X1352976190Y-1014835771D02*
X1353119047Y-1014835771D01*
X1353119047Y-1014835771D02*
X1353214285Y-1014883390D01*
X1353214285Y-1014883390D02*
X1353261904Y-1014931009D01*
X1353261904Y-1014931009D02*
X1353309523Y-1015026247D01*
X1353309523Y-1015026247D02*
X1353309523Y-1015264342D01*
X1353309523Y-1015264342D02*
X1353261904Y-1015359580D01*
X1353261904Y-1015359580D02*
X1353214285Y-1015407200D01*
X1353214285Y-1015407200D02*
X1353119047Y-1015454819D01*
X1353119047Y-1015454819D02*
X1352833333Y-1015454819D01*
X1352833333Y-1015454819D02*
X1352738095Y-1015407200D01*
X1352738095Y-1015407200D02*
X1352690476Y-1015359580D01*
X1318976428Y-987966009D02*
X1319119285Y-988013628D01*
X1319119285Y-988013628D02*
X1319166904Y-988061247D01*
X1319166904Y-988061247D02*
X1319214523Y-988156485D01*
X1319214523Y-988156485D02*
X1319214523Y-988299342D01*
X1319214523Y-988299342D02*
X1319166904Y-988394580D01*
X1319166904Y-988394580D02*
X1319119285Y-988442200D01*
X1319119285Y-988442200D02*
X1319024047Y-988489819D01*
X1319024047Y-988489819D02*
X1318643095Y-988489819D01*
X1318643095Y-988489819D02*
X1318643095Y-987489819D01*
X1318643095Y-987489819D02*
X1318976428Y-987489819D01*
X1318976428Y-987489819D02*
X1319071666Y-987537438D01*
X1319071666Y-987537438D02*
X1319119285Y-987585057D01*
X1319119285Y-987585057D02*
X1319166904Y-987680295D01*
X1319166904Y-987680295D02*
X1319166904Y-987775533D01*
X1319166904Y-987775533D02*
X1319119285Y-987870771D01*
X1319119285Y-987870771D02*
X1319071666Y-987918390D01*
X1319071666Y-987918390D02*
X1318976428Y-987966009D01*
X1318976428Y-987966009D02*
X1318643095Y-987966009D01*
X1320071666Y-987823152D02*
X1320071666Y-988489819D01*
X1319643095Y-987823152D02*
X1319643095Y-988346961D01*
X1319643095Y-988346961D02*
X1319690714Y-988442200D01*
X1319690714Y-988442200D02*
X1319785952Y-988489819D01*
X1319785952Y-988489819D02*
X1319928809Y-988489819D01*
X1319928809Y-988489819D02*
X1320024047Y-988442200D01*
X1320024047Y-988442200D02*
X1320071666Y-988394580D01*
X1320452619Y-987823152D02*
X1320976428Y-987823152D01*
X1320976428Y-987823152D02*
X1320452619Y-988489819D01*
X1320452619Y-988489819D02*
X1320976428Y-988489819D01*
X1321262143Y-987823152D02*
X1321785952Y-987823152D01*
X1321785952Y-987823152D02*
X1321262143Y-988489819D01*
X1321262143Y-988489819D02*
X1321785952Y-988489819D01*
X1322547857Y-988442200D02*
X1322452619Y-988489819D01*
X1322452619Y-988489819D02*
X1322262143Y-988489819D01*
X1322262143Y-988489819D02*
X1322166905Y-988442200D01*
X1322166905Y-988442200D02*
X1322119286Y-988346961D01*
X1322119286Y-988346961D02*
X1322119286Y-987966009D01*
X1322119286Y-987966009D02*
X1322166905Y-987870771D01*
X1322166905Y-987870771D02*
X1322262143Y-987823152D01*
X1322262143Y-987823152D02*
X1322452619Y-987823152D01*
X1322452619Y-987823152D02*
X1322547857Y-987870771D01*
X1322547857Y-987870771D02*
X1322595476Y-987966009D01*
X1322595476Y-987966009D02*
X1322595476Y-988061247D01*
X1322595476Y-988061247D02*
X1322119286Y-988156485D01*
X1323024048Y-988489819D02*
X1323024048Y-987823152D01*
X1323024048Y-988013628D02*
X1323071667Y-987918390D01*
X1323071667Y-987918390D02*
X1323119286Y-987870771D01*
X1323119286Y-987870771D02*
X1323214524Y-987823152D01*
X1323214524Y-987823152D02*
X1323309762Y-987823152D01*
X1316714048Y-978168866D02*
X1317475953Y-978168866D01*
X1317095000Y-978549819D02*
X1317095000Y-977787914D01*
X1320024047Y-976566009D02*
X1320166904Y-976613628D01*
X1320166904Y-976613628D02*
X1320214523Y-976661247D01*
X1320214523Y-976661247D02*
X1320262142Y-976756485D01*
X1320262142Y-976756485D02*
X1320262142Y-976899342D01*
X1320262142Y-976899342D02*
X1320214523Y-976994580D01*
X1320214523Y-976994580D02*
X1320166904Y-977042200D01*
X1320166904Y-977042200D02*
X1320071666Y-977089819D01*
X1320071666Y-977089819D02*
X1319690714Y-977089819D01*
X1319690714Y-977089819D02*
X1319690714Y-976089819D01*
X1319690714Y-976089819D02*
X1320024047Y-976089819D01*
X1320024047Y-976089819D02*
X1320119285Y-976137438D01*
X1320119285Y-976137438D02*
X1320166904Y-976185057D01*
X1320166904Y-976185057D02*
X1320214523Y-976280295D01*
X1320214523Y-976280295D02*
X1320214523Y-976375533D01*
X1320214523Y-976375533D02*
X1320166904Y-976470771D01*
X1320166904Y-976470771D02*
X1320119285Y-976518390D01*
X1320119285Y-976518390D02*
X1320024047Y-976566009D01*
X1320024047Y-976566009D02*
X1319690714Y-976566009D01*
X1320595476Y-976089819D02*
X1321262142Y-976089819D01*
X1321262142Y-976089819D02*
X1320595476Y-977089819D01*
X1320595476Y-977089819D02*
X1321262142Y-977089819D01*
X1322166904Y-977089819D02*
X1321595476Y-977089819D01*
X1321881190Y-977089819D02*
X1321881190Y-976089819D01*
X1321881190Y-976089819D02*
X1321785952Y-976232676D01*
X1321785952Y-976232676D02*
X1321690714Y-976327914D01*
X1321690714Y-976327914D02*
X1321595476Y-976375533D01*
%TO.C,SW5*%
D12*
X1290850000Y-992350000D02*
X1278150000Y-992350000D01*
X1290850000Y-979650000D02*
X1290850000Y-992350000D01*
X1278150000Y-992350000D02*
X1278150000Y-979650000D01*
X1278150000Y-979650000D02*
X1290850000Y-979650000D01*
%TO.C,SW3*%
X1271850000Y-992350000D02*
X1259150000Y-992350000D01*
X1271850000Y-979650000D02*
X1271850000Y-992350000D01*
X1259150000Y-992350000D02*
X1259150000Y-979650000D01*
X1259150000Y-979650000D02*
X1271850000Y-979650000D01*
%TO.C,SW6*%
X1291350000Y-1011350000D02*
X1278650000Y-1011350000D01*
X1291350000Y-998650000D02*
X1291350000Y-1011350000D01*
X1278650000Y-1011350000D02*
X1278650000Y-998650000D01*
X1278650000Y-998650000D02*
X1291350000Y-998650000D01*
%TO.C,SW4*%
X1271850000Y-1011350000D02*
X1259150000Y-1011350000D01*
X1271850000Y-998650000D02*
X1271850000Y-1011350000D01*
X1259150000Y-1011350000D02*
X1259150000Y-998650000D01*
X1259150000Y-998650000D02*
X1271850000Y-998650000D01*
%TO.C,SW1*%
X1268350000Y-963350000D02*
X1255650000Y-963350000D01*
X1268350000Y-950650000D02*
X1268350000Y-963350000D01*
X1255650000Y-963350000D02*
X1255650000Y-950650000D01*
X1255650000Y-950650000D02*
X1268350000Y-950650000D01*
%TO.C,U2*%
X1286669500Y-948180250D02*
X1304469500Y-948180250D01*
X1304469500Y-969180250D01*
X1286669500Y-969180250D01*
X1286669500Y-948180250D01*
D13*
X1287857500Y-949433250D02*
G75*
G02*
X1287353500Y-949433250I-252000J0D01*
G01*
X1287353500Y-949433250D02*
G75*
G02*
X1287857500Y-949433250I252000J0D01*
G01*
%TO.C,tft_header1*%
D12*
X1315155000Y-949245000D02*
X1315790000Y-948610000D01*
X1315155000Y-968930000D02*
X1315155000Y-949245000D01*
X1315790000Y-948610000D02*
X1317695000Y-948610000D01*
X1317695000Y-948610000D02*
X1317695000Y-968930000D01*
X1317695000Y-968930000D02*
X1315155000Y-968930000D01*
%TO.C,SW7*%
X1310150000Y-998150000D02*
X1322850000Y-998150000D01*
X1310150000Y-1010850000D02*
X1310150000Y-998150000D01*
X1322850000Y-998150000D02*
X1322850000Y-1010850000D01*
X1322850000Y-1010850000D02*
X1310150000Y-1010850000D01*
%TO.C,SW2*%
X1333150000Y-951650000D02*
X1345850000Y-951650000D01*
X1333150000Y-964350000D02*
X1333150000Y-951650000D01*
X1345850000Y-951650000D02*
X1345850000Y-964350000D01*
X1345850000Y-964350000D02*
X1333150000Y-964350000D01*
%TO.C,BZ1*%
X1321905000Y-980635000D02*
G75*
G02*
X1319905000Y-980635000I-1000000J0D01*
G01*
X1319905000Y-980635000D02*
G75*
G02*
X1321905000Y-980635000I1000000J0D01*
G01*
X1326905000Y-980635000D02*
G75*
G02*
X1314905000Y-980635000I-6000000J0D01*
G01*
X1314905000Y-980635000D02*
G75*
G02*
X1326905000Y-980635000I6000000J0D01*
G01*
%TD*%
M02*
