M48
; DRILL file KiCad 10.0.5-1-g226df246f3 date 2026-09-06T21:36:07
; FORMAT={-:-/ absolute / metric / decimal}
; #@! TF.CreationDate,2026-09-06T21:36:07+05:30
; #@! TF.GenerationSoftware,Kicad,Pcbnew,10.0.5-1-g226df246f3
; #@! TF.FileFunction,Plated,1,2,PTH
FMAT,2
METRIC
; #@! TA.AperFunction,Plated,PTH,ViaDrill
T1C0.300
; #@! TA.AperFunction,Plated,PTH,ComponentDrill
T2C1.000
; #@! TA.AperFunction,Plated,PTH,ComponentDrill
T3C1.500
%
G90
G05
T1
X1293.0Y-1077.0
X1301.5Y-1055.5
X1301.5Y-1065.5
X1317.669Y-1065.72
X1317.669Y-1070.8
X1318.0Y-1058.0
X1329.5Y-1060.0
T2
X1273.5Y-1059.84
X1273.5Y-1062.38
X1273.5Y-1064.92
X1273.5Y-1067.46
X1273.5Y-1070.0
X1273.5Y-1072.54
X1273.5Y-1075.08
X1273.5Y-1077.62
X1344.2Y-1073.0
X1351.8Y-1073.0
T3
X1285.19Y-1082.46
X1285.61Y-1060.46
X1291.54Y-1079.92
X1291.96Y-1057.92
X1306.5Y-1082.46
X1312.85Y-1079.92
X1327.11Y-1060.96
X1327.19Y-1082.46
X1333.46Y-1058.42
X1333.54Y-1079.92
M30
