%TF.GenerationSoftware,KiCad,Pcbnew,10.0.6*%
%TF.CreationDate,2026-09-23T12:21:33+05:30*%
%TF.ProjectId,init_dawn.d,696e6974-5f64-4617-976e-2e642e6b6963,rev?*%
%TF.SameCoordinates,Original*%
%TF.FileFunction,Legend,Bot*%
%TF.FilePolarity,Positive*%
%FSLAX46Y46*%
G04 Gerber Fmt 4.6, Leading zero omitted, Abs format (unit mm)*
G04 Created by KiCad (PCBNEW 10.0.6) date 2026-09-23 12:21:33*
%MOMM*%
%LPD*%
G01*
G04 APERTURE LIST*
%ADD10C,0.250000*%
G04 APERTURE END LIST*
D10*
G36*
X1352815352Y-1095160000D02*
G01*
X1352409665Y-1095160000D01*
X1352409665Y-1094883028D01*
X1352368346Y-1094974767D01*
X1352315260Y-1095049005D01*
X1352250174Y-1095108220D01*
X1352173914Y-1095151881D01*
X1352087091Y-1095178649D01*
X1351987124Y-1095187965D01*
X1351878460Y-1095177294D01*
X1351783852Y-1095146540D01*
X1351700416Y-1095096089D01*
X1351626256Y-1095024323D01*
X1351568345Y-1094939390D01*
X1351525648Y-1094839998D01*
X1351498671Y-1094723453D01*
X1351489113Y-1094586395D01*
X1351489113Y-1094208674D01*
X1351908722Y-1094208674D01*
X1351908722Y-1094572351D01*
X1351916502Y-1094650231D01*
X1351937944Y-1094711033D01*
X1351971737Y-1094758586D01*
X1352017600Y-1094794074D01*
X1352075630Y-1094816288D01*
X1352149424Y-1094824288D01*
X1352226713Y-1094815871D01*
X1352286448Y-1094792658D01*
X1352332728Y-1094755778D01*
X1352366217Y-1094706359D01*
X1352387741Y-1094642024D01*
X1352395621Y-1094558429D01*
X1352395621Y-1094222595D01*
X1352387740Y-1094139086D01*
X1352366217Y-1094074833D01*
X1352332728Y-1094025491D01*
X1352286438Y-1093988540D01*
X1352226703Y-1093965289D01*
X1352149424Y-1093956859D01*
X1352075522Y-1093964721D01*
X1352017495Y-1093986513D01*
X1351971737Y-1094021217D01*
X1351938115Y-1094067929D01*
X1351916597Y-1094128984D01*
X1351908722Y-1094208674D01*
X1351489113Y-1094208674D01*
X1351489113Y-1094194630D01*
X1351498672Y-1094057568D01*
X1351525652Y-1093941046D01*
X1351568349Y-1093841698D01*
X1351626256Y-1093756824D01*
X1351700423Y-1093684999D01*
X1351783863Y-1093634511D01*
X1351878468Y-1093603737D01*
X1351987124Y-1093593060D01*
X1352087240Y-1093602109D01*
X1352173554Y-1093628001D01*
X1352248709Y-1093669996D01*
X1352313023Y-1093727346D01*
X1352365660Y-1093799746D01*
X1352406856Y-1093889692D01*
X1352395621Y-1093537128D01*
X1352395621Y-1093117397D01*
X1352815352Y-1093117397D01*
X1352815352Y-1095160000D01*
G37*
G36*
X1350885101Y-1095663628D02*
G01*
X1350675174Y-1095084406D01*
X1351254396Y-1093621025D01*
X1350817934Y-1093621025D01*
X1350568928Y-1094292571D01*
X1350511531Y-1094466106D01*
X1350486266Y-1094563127D01*
X1350470987Y-1094650753D01*
X1350434595Y-1094466106D01*
X1350381472Y-1094292571D01*
X1350149197Y-1093621025D01*
X1349709926Y-1093621025D01*
X1350445830Y-1095663628D01*
X1350885101Y-1095663628D01*
G37*
G36*
X1347740840Y-1095160000D02*
G01*
X1347740840Y-1093117397D01*
X1346481769Y-1093117397D01*
X1346481769Y-1093481196D01*
X1347329535Y-1093481196D01*
X1347329535Y-1093940006D01*
X1346579710Y-1093940006D01*
X1346579710Y-1094286953D01*
X1347329535Y-1094286953D01*
X1347329535Y-1094796200D01*
X1346481769Y-1094796200D01*
X1346481769Y-1095160000D01*
X1347740840Y-1095160000D01*
G37*
G36*
X1346045673Y-1095160000D02*
G01*
X1346045673Y-1093621025D01*
X1345639863Y-1093621025D01*
X1345639863Y-1093912041D01*
X1345607971Y-1093818809D01*
X1345559280Y-1093741807D01*
X1345493073Y-1093678422D01*
X1345413563Y-1093632047D01*
X1345320015Y-1093603225D01*
X1345209019Y-1093593060D01*
X1345095348Y-1093603592D01*
X1344998890Y-1093633554D01*
X1344916279Y-1093681945D01*
X1344845219Y-1093749741D01*
X1344790115Y-1093830889D01*
X1344749134Y-1093927642D01*
X1344723015Y-1094043008D01*
X1344713695Y-1094180708D01*
X1344713695Y-1094334581D01*
X1345133426Y-1094334581D01*
X1345133426Y-1094208674D01*
X1345141348Y-1094130988D01*
X1345163214Y-1094070265D01*
X1345197784Y-1094022683D01*
X1345244608Y-1093987196D01*
X1345304027Y-1093964904D01*
X1345379745Y-1093956859D01*
X1345454711Y-1093965741D01*
X1345514113Y-1093990617D01*
X1345561584Y-1094030987D01*
X1345595792Y-1094084044D01*
X1345617857Y-1094152961D01*
X1345625942Y-1094242257D01*
X1345625942Y-1095160000D01*
X1346045673Y-1095160000D01*
G37*
G36*
X1343902780Y-1093602187D02*
G01*
X1344020374Y-1093628257D01*
X1344123726Y-1093669996D01*
X1344217767Y-1093728859D01*
X1344295069Y-1093800406D01*
X1344357344Y-1093885540D01*
X1344402475Y-1093980956D01*
X1344430257Y-1094087862D01*
X1344439898Y-1094208674D01*
X1344439898Y-1094572351D01*
X1344430255Y-1094693245D01*
X1344402470Y-1094800190D01*
X1344357344Y-1094895607D01*
X1344295077Y-1094980665D01*
X1344217776Y-1095052173D01*
X1344123726Y-1095111029D01*
X1344020374Y-1095152768D01*
X1343902780Y-1095178838D01*
X1343768353Y-1095187965D01*
X1343632104Y-1095178774D01*
X1343514149Y-1095152647D01*
X1343411636Y-1095111029D01*
X1343318450Y-1095052248D01*
X1343241611Y-1094980750D01*
X1343179483Y-1094895607D01*
X1343134357Y-1094800190D01*
X1343106572Y-1094693245D01*
X1343096929Y-1094572351D01*
X1343096929Y-1094208674D01*
X1343516538Y-1094208674D01*
X1343516538Y-1094572351D01*
X1343524460Y-1094650122D01*
X1343546327Y-1094710927D01*
X1343580896Y-1094758586D01*
X1343627825Y-1094793759D01*
X1343688890Y-1094816129D01*
X1343768353Y-1094824288D01*
X1343846012Y-1094816223D01*
X1343906775Y-1094793929D01*
X1343954466Y-1094758586D01*
X1343989813Y-1094710821D01*
X1344012105Y-1094650013D01*
X1344020167Y-1094572351D01*
X1344020167Y-1094208674D01*
X1344012008Y-1094129211D01*
X1343989638Y-1094068146D01*
X1343954466Y-1094021217D01*
X1343906880Y-1093986653D01*
X1343846121Y-1093964784D01*
X1343768353Y-1093956859D01*
X1343688777Y-1093964876D01*
X1343627716Y-1093986821D01*
X1343580896Y-1094021217D01*
X1343546500Y-1094068037D01*
X1343524555Y-1094129098D01*
X1343516538Y-1094208674D01*
X1343096929Y-1094208674D01*
X1343106570Y-1094087862D01*
X1343134353Y-1093980956D01*
X1343179483Y-1093885540D01*
X1343241618Y-1093800321D01*
X1343318458Y-1093728784D01*
X1343411636Y-1093669996D01*
X1343514149Y-1093628378D01*
X1343632104Y-1093602251D01*
X1343768353Y-1093593060D01*
X1343902780Y-1093602187D01*
G37*
G36*
X1342856594Y-1095160000D02*
G01*
X1342325000Y-1094362547D01*
X1342820202Y-1093621025D01*
X1342352965Y-1093621025D01*
X1342162700Y-1093928893D01*
X1342120812Y-1094010104D01*
X1342089916Y-1094082766D01*
X1342059263Y-1094010104D01*
X1342017254Y-1093928893D01*
X1341826988Y-1093621025D01*
X1341359630Y-1093621025D01*
X1341852145Y-1094362547D01*
X1341323360Y-1095160000D01*
X1341790596Y-1095160000D01*
X1342014445Y-1094796200D01*
X1342057798Y-1094713768D01*
X1342089916Y-1094642327D01*
X1342120812Y-1094713768D01*
X1342162700Y-1094796200D01*
X1342389357Y-1095160000D01*
X1342856594Y-1095160000D01*
G37*
G36*
X1340859176Y-1094432522D02*
G01*
X1340859176Y-1094040757D01*
X1339963782Y-1094040757D01*
X1339963782Y-1094432522D01*
X1340859176Y-1094432522D01*
G37*
G36*
X1338813571Y-1093960557D02*
G01*
X1338874459Y-1093994595D01*
X1338903921Y-1094028872D01*
X1338922290Y-1094073067D01*
X1338928925Y-1094130272D01*
X1338922354Y-1094187635D01*
X1338904019Y-1094232904D01*
X1338874459Y-1094268879D01*
X1338813354Y-1094304976D01*
X1338733042Y-1094317728D01*
X1338650641Y-1094304824D01*
X1338590404Y-1094268879D01*
X1338561633Y-1094233009D01*
X1338543717Y-1094187743D01*
X1338537281Y-1094130272D01*
X1338543781Y-1094072953D01*
X1338561733Y-1094028765D01*
X1338590404Y-1093994595D01*
X1338650413Y-1093960703D01*
X1338733042Y-1093948433D01*
X1338813571Y-1093960557D01*
G37*
G36*
X1338867470Y-1093098558D02*
G01*
X1338985063Y-1093124628D01*
X1339088415Y-1093166367D01*
X1339182457Y-1093225230D01*
X1339259758Y-1093296777D01*
X1339322034Y-1093381912D01*
X1339367164Y-1093477327D01*
X1339394947Y-1093584233D01*
X1339404588Y-1093705045D01*
X1339404588Y-1094572351D01*
X1339394945Y-1094693245D01*
X1339367160Y-1094800190D01*
X1339322034Y-1094895607D01*
X1339259766Y-1094980665D01*
X1339182466Y-1095052173D01*
X1339088415Y-1095111029D01*
X1338985063Y-1095152768D01*
X1338867470Y-1095178838D01*
X1338733042Y-1095187965D01*
X1338596793Y-1095178774D01*
X1338478838Y-1095152647D01*
X1338376325Y-1095111029D01*
X1338283139Y-1095052248D01*
X1338206300Y-1094980750D01*
X1338144173Y-1094895607D01*
X1338099046Y-1094800190D01*
X1338071262Y-1094693245D01*
X1338061618Y-1094572351D01*
X1338061618Y-1093705045D01*
X1338453262Y-1093705045D01*
X1338453262Y-1094572351D01*
X1338462094Y-1094647471D01*
X1338486973Y-1094707937D01*
X1338527512Y-1094757121D01*
X1338580689Y-1094793166D01*
X1338647892Y-1094816021D01*
X1338733042Y-1094824288D01*
X1338816388Y-1094816112D01*
X1338883321Y-1094793333D01*
X1338937351Y-1094757121D01*
X1338978686Y-1094707834D01*
X1339003980Y-1094647367D01*
X1339012944Y-1094572351D01*
X1339012944Y-1093705045D01*
X1339004122Y-1093629919D01*
X1338979279Y-1093569498D01*
X1338938817Y-1093520397D01*
X1338885562Y-1093484353D01*
X1338818277Y-1093461497D01*
X1338733042Y-1093453230D01*
X1338647892Y-1093461497D01*
X1338580689Y-1093484352D01*
X1338527512Y-1093520397D01*
X1338486977Y-1093569508D01*
X1338462096Y-1093629928D01*
X1338453262Y-1093705045D01*
X1338061618Y-1093705045D01*
X1338071260Y-1093584233D01*
X1338099042Y-1093477327D01*
X1338144173Y-1093381912D01*
X1338206308Y-1093296692D01*
X1338283148Y-1093225155D01*
X1338376325Y-1093166367D01*
X1338478838Y-1093124749D01*
X1338596793Y-1093098622D01*
X1338733042Y-1093089431D01*
X1338867470Y-1093098558D01*
G37*
G36*
X1337712229Y-1095160000D02*
G01*
X1337712229Y-1094785087D01*
X1336937124Y-1094015600D01*
X1336871502Y-1093931381D01*
X1336832819Y-1093838255D01*
X1336819644Y-1093733011D01*
X1336827647Y-1093659135D01*
X1336850558Y-1093596531D01*
X1336888154Y-1093542745D01*
X1336938126Y-1093501073D01*
X1336997348Y-1093475938D01*
X1337068649Y-1093467152D01*
X1337141630Y-1093476216D01*
X1337202733Y-1093502243D01*
X1337254762Y-1093545554D01*
X1337293726Y-1093601440D01*
X1337317660Y-1093667626D01*
X1337326081Y-1093746933D01*
X1337745812Y-1093746933D01*
X1337735523Y-1093618884D01*
X1337705859Y-1093505515D01*
X1337657641Y-1093404260D01*
X1337591575Y-1093313508D01*
X1337510936Y-1093236901D01*
X1337414253Y-1093173450D01*
X1337307757Y-1093127595D01*
X1337188683Y-1093099267D01*
X1337054605Y-1093089431D01*
X1336924064Y-1093098518D01*
X1336809274Y-1093124544D01*
X1336707780Y-1093166367D01*
X1336615364Y-1093225020D01*
X1336538433Y-1093296548D01*
X1336475505Y-1093381912D01*
X1336429445Y-1093477376D01*
X1336401235Y-1093583384D01*
X1336391486Y-1093702236D01*
X1336399203Y-1093808951D01*
X1336422366Y-1093913558D01*
X1336461461Y-1094017065D01*
X1336515020Y-1094114019D01*
X1336589525Y-1094213988D01*
X1336688119Y-1094317728D01*
X1337175017Y-1094782278D01*
X1336369138Y-1094782278D01*
X1336369138Y-1095160000D01*
X1337712229Y-1095160000D01*
G37*
M02*
