%TF.GenerationSoftware,KiCad,Pcbnew,10.0.5-1-g226df246f3*%
%TF.CreationDate,2026-09-06T21:36:05+05:30*%
%TF.ProjectId,init_dawn.d,696e6974-5f64-4617-976e-2e642e6b6963,rev?*%
%TF.SameCoordinates,Original*%
%TF.FileFunction,Copper,L2,Bot*%
%TF.FilePolarity,Positive*%
%FSLAX46Y46*%
G04 Gerber Fmt 4.6, Leading zero omitted, Abs format (unit mm)*
G04 Created by KiCad (PCBNEW 10.0.5-1-g226df246f3) date 2026-09-06 21:36:05*
%MOMM*%
%LPD*%
G01*
G04 APERTURE LIST*
%TA.AperFunction,ComponentPad*%
%ADD10R,1.700000X1.700000*%
%TD*%
%TA.AperFunction,ComponentPad*%
%ADD11C,1.700000*%
%TD*%
%TA.AperFunction,ComponentPad*%
%ADD12C,2.200000*%
%TD*%
%TA.AperFunction,ComponentPad*%
%ADD13R,2.000000X2.000000*%
%TD*%
%TA.AperFunction,ComponentPad*%
%ADD14C,2.000000*%
%TD*%
%TA.AperFunction,ViaPad*%
%ADD15C,0.600000*%
%TD*%
%TA.AperFunction,Conductor*%
%ADD16C,0.200000*%
%TD*%
G04 APERTURE END LIST*
D10*
%TO.P,tft_header1,1,Pin_1_1*%
%TO.N,Net-(BZ1--)*%
X1273500000Y-1059840000D03*
D11*
%TO.P,tft_header1,2,Pin_2_2*%
%TO.N,Net-(U2-3V3_OUT)*%
X1273500000Y-1062380000D03*
%TO.P,tft_header1,3,Pin_3_3*%
%TO.N,Net-(U2-D10)*%
X1273500000Y-1064920000D03*
%TO.P,tft_header1,4,Pin_4_4*%
%TO.N,Net-(U2-D8)*%
X1273500000Y-1067460000D03*
%TO.P,tft_header1,5,Pin_5_5*%
%TO.N,Net-(U2-D9{slash}BOOT)*%
X1273500000Y-1070000000D03*
%TO.P,tft_header1,6,Pin_6_6*%
%TO.N,Net-(U2-D7)*%
X1273500000Y-1072540000D03*
%TO.P,tft_header1,7,Pin_7_7*%
%TO.N,Net-(U2-D0)*%
X1273500000Y-1075080000D03*
%TO.P,tft_header1,8,Pin_8_8*%
%TO.N,Net-(U2-3V3_OUT)*%
X1273500000Y-1077620000D03*
%TD*%
D12*
%TO.P,SW7,1,1_1*%
%TO.N,Net-(U2-3V3_OUT)*%
X1291960000Y-1057920000D03*
%TO.P,SW7,2,2_2*%
%TO.N,Net-(U2-D5)*%
X1285610000Y-1060460000D03*
%TD*%
%TO.P,SW6,1,1_1*%
%TO.N,Net-(U2-3V3_OUT)*%
X1291540000Y-1079920000D03*
%TO.P,SW6,2,2_2*%
%TO.N,Net-(U2-D4)*%
X1285190000Y-1082460000D03*
%TD*%
D13*
%TO.P,BZ1,1,+_1*%
%TO.N,Net-(BZ1-+)*%
X1344200000Y-1073000000D03*
D14*
%TO.P,BZ1,2,-_2*%
%TO.N,Net-(BZ1--)*%
X1351800000Y-1073000000D03*
%TD*%
D12*
%TO.P,SW4,1,1_1*%
%TO.N,Net-(U2-3V3_OUT)*%
X1333540000Y-1079920000D03*
%TO.P,SW4,2,2_2*%
%TO.N,Net-(U2-D2)*%
X1327190000Y-1082460000D03*
%TD*%
%TO.P,SW3,1,1_1*%
%TO.N,Net-(U2-3V3_OUT)*%
X1333460000Y-1058420000D03*
%TO.P,SW3,2,2_2*%
%TO.N,Net-(U2-D1)*%
X1327110000Y-1060960000D03*
%TD*%
%TO.P,SW5,1,1_1*%
%TO.N,Net-(U2-3V3_OUT)*%
X1312850000Y-1079920000D03*
%TO.P,SW5,2,2_2*%
%TO.N,Net-(U2-D3)*%
X1306500000Y-1082460000D03*
%TD*%
D15*
%TO.N,Net-(BZ1--)*%
X1318000000Y-1058000000D03*
X1329500000Y-1060000000D03*
%TO.N,Net-(U2-D9{slash}BOOT)*%
X1317669500Y-1065720250D03*
%TO.N,Net-(U2-D7)*%
X1317669500Y-1070800250D03*
%TO.N,Net-(U2-D0)*%
X1301500000Y-1055500000D03*
%TO.N,Net-(U2-D4)*%
X1293000000Y-1077000000D03*
X1301500000Y-1065500000D03*
%TD*%
%TO.N,Net-(BZ1--)*%
D16*
X1329500000Y-1060000000D02*
X1327500000Y-1058000000D01*
X1318000000Y-1058000000D02*
X1313500000Y-1053500000D01*
X1327500000Y-1058000000D02*
X1318000000Y-1058000000D01*
X1279840000Y-1053500000D02*
X1273500000Y-1059840000D01*
X1313500000Y-1053500000D02*
X1279840000Y-1053500000D01*
%TO.N,Net-(U2-3V3_OUT)*%
X1275800000Y-1079920000D02*
X1291540000Y-1079920000D01*
X1291960000Y-1079500000D02*
X1291540000Y-1079920000D01*
X1333540000Y-1079920000D02*
X1291540000Y-1079920000D01*
X1333460000Y-1058420000D02*
X1333460000Y-1079840000D01*
X1273500000Y-1077620000D02*
X1275800000Y-1079920000D01*
X1333460000Y-1079840000D02*
X1333540000Y-1079920000D01*
X1291960000Y-1057920000D02*
X1291960000Y-1079500000D01*
%TO.N,Net-(U2-D9{slash}BOOT)*%
X1286980000Y-1056520000D02*
X1308469250Y-1056520000D01*
X1273500000Y-1070000000D02*
X1286980000Y-1056520000D01*
X1308469250Y-1056520000D02*
X1317669500Y-1065720250D01*
%TO.N,Net-(U2-D7)*%
X1308917779Y-1056120000D02*
X1286706346Y-1056120000D01*
X1272350000Y-1071390000D02*
X1273500000Y-1072540000D01*
X1273023654Y-1068850000D02*
X1272350000Y-1069523654D01*
X1317669500Y-1070800250D02*
X1318269500Y-1070200250D01*
X1318269500Y-1065471721D02*
X1308917779Y-1056120000D01*
X1286706346Y-1056120000D02*
X1273976346Y-1068850000D01*
X1273976346Y-1068850000D02*
X1273023654Y-1068850000D01*
X1272350000Y-1069523654D02*
X1272350000Y-1071390000D01*
X1318269500Y-1070200250D02*
X1318269500Y-1065471721D01*
%TO.N,Net-(U2-D0)*%
X1284786346Y-1055500000D02*
X1273976346Y-1066310000D01*
X1271950000Y-1073530000D02*
X1273500000Y-1075080000D01*
X1271950000Y-1067383654D02*
X1271950000Y-1073530000D01*
X1273023654Y-1066310000D02*
X1271950000Y-1067383654D01*
X1273976346Y-1066310000D02*
X1273023654Y-1066310000D01*
X1301500000Y-1055500000D02*
X1284786346Y-1055500000D01*
%TO.N,Net-(U2-D4)*%
X1301500000Y-1065500000D02*
X1301500000Y-1068500000D01*
X1301500000Y-1068500000D02*
X1293000000Y-1077000000D01*
%TD*%
M02*
