%TF.GenerationSoftware,KiCad,Pcbnew,10.0.5-1-g226df246f3*%
%TF.CreationDate,2026-09-06T21:36:05+05:30*%
%TF.ProjectId,init_dawn.d,696e6974-5f64-4617-976e-2e642e6b6963,rev?*%
%TF.SameCoordinates,Original*%
%TF.FileFunction,Other,User*%
%FSLAX46Y46*%
G04 Gerber Fmt 4.6, Leading zero omitted, Abs format (unit mm)*
G04 Created by KiCad (PCBNEW 10.0.5-1-g226df246f3) date 2026-09-06 21:36:05*
%MOMM*%
%LPD*%
G01*
G04 APERTURE LIST*
%ADD10C,0.050000*%
G04 APERTURE END LIST*
%TO.C,tft_header1*%
D10*
X1271730000Y-1058070000D02*
X1275270000Y-1058070000D01*
X1275270000Y-1079390000D01*
X1271730000Y-1079390000D01*
X1271730000Y-1058070000D01*
%TO.C,U2*%
X1300669500Y-1052680250D02*
X1318469500Y-1052680250D01*
X1318469500Y-1073680250D01*
X1300669500Y-1073680250D01*
X1300669500Y-1052680250D01*
%TO.C,SW7*%
X1282820000Y-1056400000D02*
X1296020000Y-1056400000D01*
X1282820000Y-1069600000D02*
X1282820000Y-1056400000D01*
X1296020000Y-1056400000D02*
X1296020000Y-1069600000D01*
X1296020000Y-1069600000D02*
X1282820000Y-1069600000D01*
%TO.C,H1*%
X1348950000Y-1057500000D02*
G75*
G02*
X1342050000Y-1057500000I-3450000J0D01*
G01*
X1342050000Y-1057500000D02*
G75*
G02*
X1348950000Y-1057500000I3450000J0D01*
G01*
%TO.C,SW6*%
X1282400000Y-1078400000D02*
X1295600000Y-1078400000D01*
X1282400000Y-1091600000D02*
X1282400000Y-1078400000D01*
X1295600000Y-1078400000D02*
X1295600000Y-1091600000D01*
X1295600000Y-1091600000D02*
X1282400000Y-1091600000D01*
%TO.C,BZ1*%
X1354250000Y-1073000000D02*
G75*
G02*
X1341750000Y-1073000000I-6250000J0D01*
G01*
X1341750000Y-1073000000D02*
G75*
G02*
X1354250000Y-1073000000I6250000J0D01*
G01*
%TO.C,H2*%
X1277450000Y-1088500000D02*
G75*
G02*
X1270550000Y-1088500000I-3450000J0D01*
G01*
X1270550000Y-1088500000D02*
G75*
G02*
X1277450000Y-1088500000I3450000J0D01*
G01*
%TO.C,SW4*%
X1324400000Y-1078400000D02*
X1337600000Y-1078400000D01*
X1324400000Y-1091600000D02*
X1324400000Y-1078400000D01*
X1337600000Y-1078400000D02*
X1337600000Y-1091600000D01*
X1337600000Y-1091600000D02*
X1324400000Y-1091600000D01*
%TO.C,SW3*%
X1324320000Y-1056900000D02*
X1337520000Y-1056900000D01*
X1324320000Y-1070100000D02*
X1324320000Y-1056900000D01*
X1337520000Y-1056900000D02*
X1337520000Y-1070100000D01*
X1337520000Y-1070100000D02*
X1324320000Y-1070100000D01*
%TO.C,SW5*%
X1303710000Y-1078400000D02*
X1316910000Y-1078400000D01*
X1303710000Y-1091600000D02*
X1303710000Y-1078400000D01*
X1316910000Y-1078400000D02*
X1316910000Y-1091600000D01*
X1316910000Y-1091600000D02*
X1303710000Y-1091600000D01*
%TD*%
M02*
