%TF.GenerationSoftware,KiCad,Pcbnew,10.0.5-1-g226df246f3*%
%TF.CreationDate,2026-09-06T21:36:05+05:30*%
%TF.ProjectId,init_dawn.d,696e6974-5f64-4617-976e-2e642e6b6963,rev?*%
%TF.SameCoordinates,Original*%
%TF.FileFunction,OtherDrawing,Comment*%
%FSLAX46Y46*%
G04 Gerber Fmt 4.6, Leading zero omitted, Abs format (unit mm)*
G04 Created by KiCad (PCBNEW 10.0.5-1-g226df246f3) date 2026-09-06 21:36:05*
%MOMM*%
%LPD*%
G01*
G04 APERTURE LIST*
%ADD10C,0.150000*%
G04 APERTURE END LIST*
%TO.C,SW7*%
D10*
X1279895000Y-1053475000D02*
X1298945000Y-1053475000D01*
X1279895000Y-1072525000D02*
X1279895000Y-1053475000D01*
X1298945000Y-1053475000D02*
X1298945000Y-1072525000D01*
X1298945000Y-1072525000D02*
X1279895000Y-1072525000D01*
%TO.C,SW6*%
X1279475000Y-1075475000D02*
X1298525000Y-1075475000D01*
X1279475000Y-1094525000D02*
X1279475000Y-1075475000D01*
X1298525000Y-1075475000D02*
X1298525000Y-1094525000D01*
X1298525000Y-1094525000D02*
X1279475000Y-1094525000D01*
%TO.C,SW4*%
X1321475000Y-1075475000D02*
X1340525000Y-1075475000D01*
X1321475000Y-1094525000D02*
X1321475000Y-1075475000D01*
X1340525000Y-1075475000D02*
X1340525000Y-1094525000D01*
X1340525000Y-1094525000D02*
X1321475000Y-1094525000D01*
%TO.C,SW3*%
X1321395000Y-1053975000D02*
X1340445000Y-1053975000D01*
X1321395000Y-1073025000D02*
X1321395000Y-1053975000D01*
X1340445000Y-1053975000D02*
X1340445000Y-1073025000D01*
X1340445000Y-1073025000D02*
X1321395000Y-1073025000D01*
%TO.C,SW5*%
X1300785000Y-1075475000D02*
X1319835000Y-1075475000D01*
X1300785000Y-1094525000D02*
X1300785000Y-1075475000D01*
X1319835000Y-1075475000D02*
X1319835000Y-1094525000D01*
X1319835000Y-1094525000D02*
X1300785000Y-1094525000D01*
%TD*%
M02*
