%TF.GenerationSoftware,KiCad,Pcbnew,10.0.6*%
%TF.CreationDate,2026-09-23T12:21:33+05:30*%
%TF.ProjectId,init_dawn.d,696e6974-5f64-4617-976e-2e642e6b6963,rev?*%
%TF.SameCoordinates,Original*%
%TF.FileFunction,Soldermask,Top*%
%TF.FilePolarity,Negative*%
%FSLAX46Y46*%
G04 Gerber Fmt 4.6, Leading zero omitted, Abs format (unit mm)*
G04 Created by KiCad (PCBNEW 10.0.6) date 2026-09-23 12:21:33*
%MOMM*%
%LPD*%
G01*
G04 APERTURE LIST*
G04 Aperture macros list*
%AMRoundRect*
0 Rectangle with rounded corners*
0 $1 Rounding radius*
0 $2 $3 $4 $5 $6 $7 $8 $9 X,Y pos of 4 corners*
0 Add a 4 corners polygon primitive as box body*
4,1,4,$2,$3,$4,$5,$6,$7,$8,$9,$2,$3,0*
0 Add four circle primitives for the rounded corners*
1,1,$1+$1,$2,$3*
1,1,$1+$1,$4,$5*
1,1,$1+$1,$6,$7*
1,1,$1+$1,$8,$9*
0 Add four rect primitives between the rounded corners*
20,1,$1+$1,$2,$3,$4,$5,0*
20,1,$1+$1,$4,$5,$6,$7,0*
20,1,$1+$1,$6,$7,$8,$9,0*
20,1,$1+$1,$8,$9,$2,$3,0*%
G04 Aperture macros list end*
%ADD10R,1.700000X1.700000*%
%ADD11C,1.700000*%
%ADD12RoundRect,0.550800X-0.875000X-0.500000X0.875000X-0.500000X0.875000X0.500000X-0.875000X0.500000X0*%
%ADD13RoundRect,0.275000X0.975000X0.275000X-0.975000X0.275000X-0.975000X-0.275000X0.975000X-0.275000X0*%
%ADD14C,4.000000*%
%ADD15C,2.200000*%
%ADD16C,3.200000*%
%ADD17R,2.000000X2.000000*%
%ADD18C,2.000000*%
G04 APERTURE END LIST*
D10*
%TO.C,tft_header1*%
X1273500000Y-1059840000D03*
D11*
X1273500000Y-1062380000D03*
X1273500000Y-1064920000D03*
X1273500000Y-1067460000D03*
X1273500000Y-1070000000D03*
X1273500000Y-1072540000D03*
X1273500000Y-1075080000D03*
X1273500000Y-1077620000D03*
%TD*%
D12*
%TO.C,U2*%
X1301504500Y-1055560250D03*
X1301504500Y-1058100250D03*
X1301504500Y-1060640250D03*
X1301504500Y-1063180250D03*
X1301504500Y-1065720250D03*
X1301504500Y-1068260250D03*
X1301504500Y-1070800250D03*
X1317669500Y-1070800250D03*
X1317669500Y-1068260250D03*
X1317669500Y-1065720250D03*
X1317669500Y-1063180250D03*
X1317669500Y-1060640250D03*
X1317669500Y-1058100250D03*
X1317669500Y-1055560250D03*
D11*
X1308289500Y-1054548250D03*
X1310829500Y-1054548250D03*
X1308289500Y-1057088250D03*
X1310829500Y-1057088250D03*
X1308289500Y-1059628250D03*
X1310829500Y-1059628250D03*
D13*
X1305114500Y-1062798250D03*
X1305114500Y-1060893250D03*
%TD*%
D11*
%TO.C,SW7*%
X1284340000Y-1063000000D03*
D14*
X1289420000Y-1063000000D03*
D11*
X1294500000Y-1063000000D03*
D15*
X1291960000Y-1057920000D03*
X1285610000Y-1060460000D03*
%TD*%
D16*
%TO.C,H1*%
X1345500000Y-1057500000D03*
%TD*%
D11*
%TO.C,SW6*%
X1283920000Y-1085000000D03*
D14*
X1289000000Y-1085000000D03*
D11*
X1294080000Y-1085000000D03*
D15*
X1291540000Y-1079920000D03*
X1285190000Y-1082460000D03*
%TD*%
D17*
%TO.C,BZ1*%
X1344200000Y-1073000000D03*
D18*
X1351800000Y-1073000000D03*
%TD*%
D16*
%TO.C,H2*%
X1274000000Y-1088500000D03*
%TD*%
D11*
%TO.C,SW4*%
X1325920000Y-1085000000D03*
D14*
X1331000000Y-1085000000D03*
D11*
X1336080000Y-1085000000D03*
D15*
X1333540000Y-1079920000D03*
X1327190000Y-1082460000D03*
%TD*%
D11*
%TO.C,SW3*%
X1325840000Y-1063500000D03*
D14*
X1330920000Y-1063500000D03*
D11*
X1336000000Y-1063500000D03*
D15*
X1333460000Y-1058420000D03*
X1327110000Y-1060960000D03*
%TD*%
D11*
%TO.C,SW5*%
X1305230000Y-1085000000D03*
D14*
X1310310000Y-1085000000D03*
D11*
X1315390000Y-1085000000D03*
D15*
X1312850000Y-1079920000D03*
X1306500000Y-1082460000D03*
%TD*%
M02*
